<svg width="16" height="16" viewBox="0 0 16 16" fill="none" xmlns="http://www.w3.org/2000/svg">
<path d="M10.0001 12.6L10.7001 13.3L12.3001 11.7L13.9001 13.3L14.7001 12.6L13.0001 11L14.7001 9.40005L13.9001 8.60005L12.3001 10.3L10.7001 8.60005L10.0001 9.40005L11.6001 11L10.0001 12.6Z" fill="#424242"/>
<path d="M1.00006 4L15.0001 4L15.0001 3L1.00006 3L1.00006 4Z" fill="#424242"/>
<path d="M1.00006 7L15.0001 7L15.0001 6L1.00006 6L1.00006 7Z" fill="#424242"/>
<path d="M9.00006 9.5L9.00006 9L1.00006 9L1.00006 10L9.00006 10L9.00006 9.5Z" fill="#424242"/>
<path d="M9.00006 13L9.00006 12.5L9.00006 12L1.00006 12L1.00006 13L9.00006 13Z" fill="#424242"/>
</svg>