<svg width="16" height="16" viewBox="0 0 16 16" fill="none" xmlns="http://www.w3.org/2000/svg">
<path fill-rule="evenodd" clip-rule="evenodd" d="M11.9565 6H12.0064C12.8004 6 13.5618 6.31607 14.1232 6.87868C14.6846 7.44129 15 8.20435 15 9C15 9.79565 14.6846 10.5587 14.1232 11.1213C13.5618 11.6839 12.8004 12 12.0064 12V11C12.5357 11 13.0434 10.7893 13.4176 10.4142C13.7919 10.0391 14.0021 9.53044 14.0021 9C14.0021 8.46957 13.7919 7.96086 13.4176 7.58579C13.0434 7.21072 12.5357 7 12.0064 7H11.0924L10.9687 6.143C10.8938 5.60541 10.6456 5.10711 10.2618 4.72407C9.87801 4.34103 9.37977 4.09427 8.84303 4.02143C8.30629 3.94859 7.76051 4.05365 7.2889 4.3206C6.81729 4.58754 6.44573 5.00173 6.23087 5.5L5.89759 6.262L5.08933 6.073C4.90382 6.02699 4.71364 6.0025 4.52255 6C3.86093 6 3.22641 6.2634 2.75858 6.73224C2.29075 7.20108 2.02792 7.83696 2.02792 8.5C2.02792 9.16304 2.29075 9.79893 2.75858 10.2678C3.22641 10.7366 3.86093 11 4.52255 11H5.02148V12H4.52255C4.02745 12.0043 3.5371 11.903 3.08403 11.7029C2.63096 11.5028 2.22553 11.2084 1.89461 10.8394C1.5637 10.4703 1.31488 10.0349 1.16465 9.56211C1.01442 9.08932 0.966217 8.58992 1.02324 8.09704C1.08026 7.60416 1.24121 7.12906 1.4954 6.70326C1.74959 6.27745 2.09121 5.91068 2.49762 5.62727C2.90402 5.34385 3.36591 5.15027 3.85264 5.05937C4.33938 4.96847 4.83984 4.98232 5.32083 5.1C5.6241 4.40501 6.14511 3.82799 6.80496 3.45635C7.4648 3.08472 8.22753 2.9387 8.9776 3.04044C9.72768 3.14217 10.4242 3.4861 10.9618 4.02014C11.4993 4.55418 11.8485 5.24923 11.9565 6ZM6.70719 11.1214L8.0212 12.4354V7H9.01506V12.3992L10.2929 11.1214L11 11.8285L8.85356 13.9749H8.14645L6.00008 11.8285L6.70719 11.1214Z" fill="#424242"/>
</svg>