/* XPM */
static char * about_xpm[] = {
"50 40 7 1",
" 	s None	c None",
".	c black",
"X	c white",
"o	c gray70",
"O	c navy",
"+	c red",
"@	c yellow",
"                                                  ",
"                                                  ",
"                                                  ",
"        .................................         ",
"      ..XXXXXXXXXXXXXXXXXXXXXXXXXXXXXXoo.         ",
"      .XooooooooooooooooooooooooooooooXo.         ",
"     .XXXXXXXXXXXXXXXXXXXXXXXXXXXXXXooXo.         ",
"     ..oooooooooooooooooooooooooooooooXo.         ",
"     ...............................XoXo.         ",
"     .OOOOOOOOOOOOOOOOOOOOOOOOOOOOO.XoXo.         ",
"     .OOOOOOOOOOOOOOOOOOOOOOOOOOOOO.XoXo.         ",
"     .OOOOOOOOOOOOOOOOOOOOOOOOOOOOO.XoXo.         ",
"     .OOOOOOOOOOOOOOOOOOOOOOOOOOOOO.XoXo.         ",
"     .OOOOOOOOOOOOOOOOOOOOOOOOOOOOO.XoXo.++++     ",
"     .OOOOOOOOOOOOOOOOOOOOOOOOOOOOO.XoXo+++       ",
"     .OOOOOOOOOOOOOOOOOOOOOOOOOOOOO.Xo+++++       ",
"     .OOOOOOOOOOOOOOOOOOOOOOOOOOOOO.Xo++++++      ",
"     .OOOOOOOOOOOOOOOOOOOOOOOOOOOOO.Xo+++   +     ",
"     .OOOOO@@@@@OOOOOOOOOOOOOOOOOOO.Xo++.         ",
"     .OOOOOOO@OOOOO@OOOOOOOOOOOOOOO.XoXo.         ",
"     .OOOOOOO@OOOOOOOOOOOOOOOOOOOOO.XoXo.         ",
"     .OOOOOOO@OOOO@@OOO@OOO@OOOOOOO.XoXo.         ",
"     .OOOOOOO@OOOOO@OOOO@O@OOOOOOOO.XoXo.         ",
"     .OOOOOOO@OOOOO@OOOOO@OOOOOOOOO.XoXo.         ",
"     .OOOOOOO@OOOOO@OOOOO@OOOOOOOOO.XoXo.         ",
"     .OOOOOOO@OOOOO@OOOO@O@OOOOOOOO.XoXo.         ",
"     .OOOOOOO@OOOO@@@OO@OOO@OOOOOOO.XoXo.         ",
"     .OOOOOOOOOOOOOOOOOOOOOOOOOOOOO.XoXo.         ",
"     .OOOOOOOOOOOOOOOOOOOOOOOOOOOOO.XoXo.         ",
"     .OOOOOOOOOOOOOOOOOOOOOOOOOOOOO.XoXo.         ",
"     .OOOOOOOOOOOOOOOOOOOOOOOOOOOOO.XoXo.         ",
"     .OOOOOOOOOOOOOOOOOOOOOOOOOOOOO.XoXo.         ",
"     .OOOOOOOOOOOOOOOOOOOOOOOOOOOOO.XoXo.         ",
"     .OOOOOOOOOOOOOOOOOOOOOOOOOOOOO.Xo..          ",
"     .OOOOOOOOOOOOOOOOOOOOOOOOOOOOO.Xo            ",
"      OOOOOOOOOOOOOOOOOOOOOOOOOOOOO.X.            ",
"        .............................             ",
"                                                  ",
"                                                  ",
"                                                  "};
