/* XPM */
static char * combobox_xpm[] = {
"50 40 6 1",
" 	s None	c None",
".	c black",
"X	c white",
"o	c #FFFF80808080",
"O	c gray70",
"+	c #808000008080",
"                                                  ",
"                                                  ",
"                                                  ",
"   ....................................  XXXXXXX  ",
"   .ooooooooooooooooooooooooooooooooooX  X  .  .  ",
"   .ooooooooooooooooooooooooooooooooooX  X  .  .  ",
"   .oooo.oooooooooooooooooooooooooooooX  X  .  .  ",
"   .oo.o..oo.o.oo.o.ooooooooooooooooooX  X  .  .  ",
"   .o..o.o.o.oo.oo.oo.ooooooooooooooooX  X ... .  ",
"   .oo.oo.oo.o.oo.ooo.ooooooooooooooooX  X  .  .  ",
"   .ooooooooooooooooooooooooooooooooooX  X     .  ",
"   .XXXXXXXXXXXXXXXXXXXXXXXXXXXXXXXXXXX  X......  ",
"                                                  ",
"                                                  ",
"                                                  ",
"   XXXXXXXXXXXXXXXXXXXXXXXXXXXXXXXXXXXXXXXXXXXXX  ",
"   X............................................  ",
"   X.OOOOOOOOOOOOOOOOOOOOOOOOOOOOOOOOOOOX.OOOOX.  ",
"   X.O+OOOOOOOOOOOOOOOOOOOOOOOOOOOOOOOOOX.OX OX.  ",
"   X.O++OOO+OO+++OOOOOOOOOOOOOOOOOOOOOOOX.X ..X.  ",
"   X.O+O+O+OOO+O+OOOOOOOOOOOOOOOOOOOOOOOX.OOOOX.  ",
"   X.O++OOO+OO+++OOOOOOOOOOOOOOOOOOOOOOOX.OOOOX.  ",
"   X.OOOOOOOOOOOOOOOOOOOOOOOOOOOOOOOOOOOX.XXXXX.  ",
"   X.O.....X..........................OOX.X  .X.  ",
"   X.OX...XXX.X.XX.XX.................OOX.X  .X.  ",
"   X.OX.X..X..X.XX..XX.X..............OOX.X  .X.  ",
"   X.O.X...X..X.X...X..X..............OOX.X  .X.  ",
"   X.OOOOOOOOOOOOOOOOOOOOOOOO+OOOOOOOOOOX.X  .X.  ",
"   X.OOOOOOOOO+OOO+OOOOO+OOOO+OOOOOOOOOOX.X  .X.  ",
"   X.O+++OO+OO+O+OO++O++OO+OO+OOOOOOOOOOX.X...X.  ",
"   X.OO+OO++OO+O+OO+OOO+OO+O++OOOOOOOOOOX.OOOOX.  ",
"   X.OOOOOOOO+OOOOO++OO+OOOOOOOOOOOOOOOOX.OOOOX.  ",
"   X.OOOOOOOOOOOOOOOOOOOOOOOOOOOOOOOOOOOX.X  .X.  ",
"   X.OOOOOOOOOOOOOOOOOOOOOOOOOOOOOOOOOOOX.O .OX.  ",
"   X.OOOOOOOOOOOOOOOOOOOOOOOOOOOOOOOOOOOX.OOOOX.  ",
"   X.XXXXXXXXXXXXXXXXXXXXXXXXXXXXXXXXXXXX.XXXXX.  ",
"   X............................................  ",
"                                                  ",
"                                                  ",
"                                                  "};
