/* XPM */
static char * drivea_xpm[] = {
/* width height ncolors chars_per_pixel */
"32 32 5 1",
/* colors */
" 	s None	c None",
".	c #000000000000",
"X	c white",
"o	c #c000c000c000",
"O	c #800080008000",
/* pixels */
"                                ",
"                                ",
"                                ",
"                                ",
"                                ",
"                                ",
"                                ",
"                                ",
"                                ",
"   ..........................   ",
"   .XXXXXXXXXXXXXXXXXXXXXXXo.   ",
"   .XooooooooooooooooooooooO.   ",
"   .Xooooooooooooooooo..oooO.   ",
"   .Xooooooooooooooooo..oooO.   ",
"   .XooooooooooooooooooooooO.   ",
"   .Xoooooooo.......oooooooO.   ",
"   .Xoo...................oO.   ",
"   .Xoooooooo.......oooooooO.   ",
"   .XooooooooooooooooooooooO.   ",
"   .XooooooooooooooooooooooO.   ",
"   .XooooooooooooooooooooooO.   ",
"   .XooooooooooooooooooooooO.   ",
"   .oOOOOOOOOOOOOOOOOOOOOOOO.   ",
"   ..........................   ",
"                                ",
"                                ",
"                                ",
"                                ",
"                                ",
"                                ",
"                                ",
"                                "};
