/* XPM */
static char * filebox_xpm[] = {
"50 40 6 1",
" 	s None	c None",
".	c white",
"X	c gray80",
"o	c black",
"O	c #FFFF80808080",
"+	c gray70",
"                                                  ",
"                                                  ",
"                                                  ",
"   ............................................   ",
"   .XXXXXXXXXXXXXXXXXXXXXXXXXXXXXXXXXXXXXXXXXXo   ",
"   .XXooXooXoXooXXXXXXXXXXXXXXXXXXXXXXXXXXXXXXo   ",
"   .XXooXooXoXooXXXXXXXXXXXXXXXXXXXXXXXXXXXXXXo   ",
"   .XXXXXXXXXXXXXXXXXXXXXXXXXXXXXXXXXXXXXXXXXXo   ",
"   .XXooooooooooooooooooooooooooooooooooooo.XXo   ",
"   .XXoOOOOOOOOOOOOOOOOOOOOOOOOOOOOOOOOOOOO.XXo   ",
"   .XXoOOOOOOOOOOOOOOOOOOOOOOOOOOOOOOOOOOOO.XXo   ",
"   .XX......................................XXo   ",
"   .XXXXXXXXXXXXXXXXXXXXXXXXXXXXXXXXXXXXXXXXXXo   ",
"   .XXXXXXXXXXXXXXXXXXXXXXXXXXXXXXXXXXXXXXXXXXo   ",
"   .XXoooooooooooooooo.XXXXoooooooooooooooo.XXo   ",
"   .XXo+++++++++++++++.XXXXo+++++++++++++++.XXo   ",
"   .XXo+++++++++++++++.XXXXo+++++++++++++++.XXo   ",
"   .XXo+++++++++++++++.XXXXo+++++++++++++++.XXo   ",
"   .XXo+++++++++++++++.XXXXo+++++++++++++++.XXo   ",
"   .XXo+++++++++++++++.XXXXo+++++++++++++++.XXo   ",
"   .XXo+++++++++++++++.XXXXo+++++++++++++++.XXo   ",
"   .XXo+++++++++++++++.XXXXo+++++++++++++++.XXo   ",
"   .XXo+++++++++++++++.XXXXo+++++++++++++++.XXo   ",
"   .XXo+++++++++++++++.XXXXo+++++++++++++++.XXo   ",
"   .XXo+++++++++++++++.XXXXo+++++++++++++++.XXo   ",
"   .XXo+++++++++++++++.XXXXo+++++++++++++++.XXo   ",
"   .XX.................XXXX.................XXo   ",
"   .XXXXXXXXXXXXXXXXXXXXXXXXXXXXXXXXXXXXXXXXXXo   ",
"   .XXooXooXoXooXoXXXXXXXXXXXXXXXXXXXXXXXXXXXXo   ",
"   .XXooXooXoXooXoXooXXXXXXXXXXXXXXXXXXXXXXXXXo   ",
"   .XXXXXXXXXXXXXXXXXXXXXXXXXXXXXXXXXXXXXXXXXXo   ",
"   .XXoooooooooooooooooooooooooooooooooooooo.Xo   ",
"   .XXoOOOOOOOOOOOOOOOOOOOOOOOOOOOOOOOOOOOOO.Xo   ",
"   .XXoOOOOOOOOOOOOOOOOOOOOOOOOOOOOOOOOOOOOO.Xo   ",
"   .XX.......................................Xo   ",
"   .XXXXXXXXXXXXXXXXXXXXXXXXXXXXXXXXXXXXXXXXXXo   ",
"   .ooooooooooooooooooooooooooooooooooooooooooo   ",
"                                                  ",
"                                                  ",
"                                                  "};
