#define justify_width 16
#define justify_height 16
static unsigned char justify_bits[] = {
   0x00, 0x00, 0x00, 0x00, 0x00, 0x00, 0xec, 0xdb, 0x00, 0x00, 0x7c, 0xdb,
   0x00, 0x00, 0xbc, 0xf7, 0x00, 0x00, 0xdc, 0xde, 0x00, 0x00, 0x6c, 0xdf,
   0x00, 0x00, 0x6c, 0xef, 0x00, 0x00, 0xdc, 0xdf};
