#define filebox_width 32
#define filebox_height 32
static unsigned char filebox_bits[] = {
   0x00, 0x00, 0x00, 0x00, 0x00, 0x00, 0x00, 0x00, 0x00, 0x00, 0x00, 0x00,
   0x00, 0x00, 0x00, 0x00, 0xfc, 0xff, 0xff, 0x3f, 0x04, 0x00, 0x00, 0x20,
   0xe4, 0xff, 0xff, 0x27, 0x24, 0x00, 0x00, 0x24, 0x24, 0x00, 0x00, 0x24,
   0xe4, 0xff, 0xff, 0x27, 0x04, 0x00, 0x00, 0x20, 0xe4, 0x7f, 0xfe, 0x27,
   0x24, 0x50, 0x02, 0x25, 0x24, 0x40, 0x02, 0x24, 0x24, 0x50, 0x02, 0x25,
   0x24, 0x40, 0x02, 0x24, 0x24, 0x50, 0x02, 0x25, 0x24, 0x40, 0x02, 0x24,
   0x24, 0x50, 0x02, 0x25, 0xe4, 0x7f, 0xfe, 0x27, 0x04, 0x00, 0x00, 0x20,
   0xe4, 0xff, 0xff, 0x27, 0x24, 0x00, 0x00, 0x24, 0x24, 0x00, 0x00, 0x24,
   0xe4, 0xff, 0xff, 0x27, 0x04, 0x00, 0x00, 0x20, 0xfc, 0xff, 0xff, 0x3f,
   0x00, 0x00, 0x00, 0x00, 0x00, 0x00, 0x00, 0x00, 0x00, 0x00, 0x00, 0x00,
   0x00, 0x00, 0x00, 0x00, 0x00, 0x00, 0x00, 0x00};
