/* XPM */
static char * minusarm_xpm[] = {
"9 9 3 1",
" 	c black",
".	c yellow",
"X	c #808080808080",
"         ",
" ....... ",
" ....... ",
" .XXXXX. ",
" .X   X. ",
" .XXXXX. ",
" ....... ",
" ....... ",
"         "};
