#define resize2_width 13
#define resize2_height 13
#define resize2_x_hot 6
#define resize2_y_hot 6
static unsigned char resize2_bits[] = {
   0xc0, 0x1f, 0x80, 0x10, 0x00, 0x11, 0x80, 0x11, 0xc0, 0x16, 0x60, 0x1b,
   0xb1, 0x11, 0xdb, 0x00, 0x6d, 0x00, 0x31, 0x00, 0x11, 0x00, 0x21, 0x00,
   0x7f, 0x00};
