#define error_width 17
#define error_height 17
static unsigned char error_bits[] = {
   0xf0, 0x0f, 0x00, 0x58, 0x15, 0x00, 0xac, 0x2a, 0x00, 0x16, 0x50, 0x00,
   0x2b, 0xa0, 0x00, 0x55, 0x40, 0x01, 0xa3, 0xc0, 0x00, 0x45, 0x41, 0x01,
   0x83, 0xc2, 0x00, 0x05, 0x45, 0x01, 0x03, 0xca, 0x00, 0x05, 0x74, 0x01,
   0x0a, 0xa8, 0x00, 0x14, 0x58, 0x00, 0xe8, 0x2f, 0x00, 0x50, 0x15, 0x00,
   0xa0, 0x0a, 0x00};
