#define info_width 8
#define info_height 21
static unsigned char info_bits[] = {
   0x3c, 0x2a, 0x16, 0x2a, 0x14, 0x00, 0x00, 0x3f, 0x15, 0x2e, 0x14, 0x2c,
   0x14, 0x2c, 0x14, 0x2c, 0x14, 0x2c, 0xd7, 0xab, 0x55};
