#define question_width 17
#define question_height 27
static unsigned char question_bits[] = {
   0xf0, 0x0f, 0x00, 0x58, 0x15, 0x00, 0xac, 0x2a, 0x00, 0x56, 0x55, 0x00,
   0x2b, 0xa8, 0x00, 0x15, 0x50, 0x01, 0x0b, 0xa0, 0x00, 0x05, 0x60, 0x01,
   0x0b, 0xa0, 0x00, 0x05, 0x60, 0x01, 0x0b, 0xb0, 0x00, 0x00, 0x58, 0x01,
   0x00, 0xaf, 0x00, 0x80, 0x55, 0x00, 0xc0, 0x2a, 0x00, 0x40, 0x15, 0x00,
   0xc0, 0x02, 0x00, 0x40, 0x01, 0x00, 0xc0, 0x02, 0x00, 0x40, 0x01, 0x00,
   0xc0, 0x02, 0x00, 0x00, 0x00, 0x00, 0x80, 0x01, 0x00, 0xc0, 0x02, 0x00,
   0x40, 0x01, 0x00, 0xc0, 0x02, 0x00, 0x00, 0x01, 0x00};
