#define warning_width 6
#define warning_height 19
static unsigned char warning_bits[] = {
   0x0c, 0x16, 0x2b, 0x15, 0x2b, 0x15, 0x2b, 0x16, 0x0a, 0x16, 0x0a, 0x16,
   0x0a, 0x00, 0x00, 0x1e, 0x0a, 0x16, 0x0a};
