/* XPM */
static char * warning_xpm[] = {
"32 32 3 1",
" 	s None	c None",
".	c #000000000000",
"X	c yellow",
"                                ",
"           .........            ",
"        ...XXXXXXXXX...         ",
"       .XXXXXXXXXXXXXXX.        ",
"     ..XXXXXXXXXXXXXXXXX..      ",
"    .XXXXXXXXX...XXXXXXXXX.     ",
"   .XXXXXXXXX.....XXXXXXXXX.    ",
"   .XXXXXXXXX.....XXXXXXXXX.    ",
"  .XXXXXXXXX.......XXXXXXXXX.   ",
" .XXXXXXXXXX.......XXXXXXXXXX.  ",
" .XXXXXXXXXX.......XXXXXXXXXX.  ",
" .XXXXXXXXXX.......XXXXXXXXXX.  ",
".XXXXXXXXXXX.......XXXXXXXXXXX. ",
".XXXXXXXXXXX.......XXXXXXXXXXX. ",
".XXXXXXXXXXX.......XXXXXXXXXXX. ",
".XXXXXXXXXXX.......XXXXXXXXXXX. ",
".XXXXXXXXXXX.......XXXXXXXXXXX. ",
".XXXXXXXXXXXX.....XXXXXXXXXXXX. ",
".XXXXXXXXXXXX.....XXXXXXXXXXXX. ",
".XXXXXXXXXXXX.....XXXXXXXXXXXX. ",
".XXXXXXXXXXXXX...XXXXXXXXXXXXX. ",
" .XXXXXXXXXXXXXXXXXXXXXXXXXXX.  ",
" .XXXXXXXXXXXX...XXXXXXXXXXXX.  ",
" .XXXXXXXXXXX.....XXXXXXXXXXX.  ",
"  .XXXXXXXXX.......XXXXXXXXX.   ",
"   .XXXXXXXX.......XXXXXXXX.    ",
"   .XXXXXXXX.......XXXXXXXX.    ",
"    .XXXXXXXX.....XXXXXXXX.     ",
"     ..XXXXXXX...XXXXXXX..      ",
"       .XXXXXXXXXXXXXXX.        ",
"        ...XXXXXXXXX...         ",
"           .........            "};
