#define hourglass_width 32
#define hourglas_height 32
#define hourglas_x_hot 16
#define hourglas_y_hot 15
static char hourglas_bits[] = {
   0xfe, 0xff, 0xff, 0xff, 0xfe, 0xff, 0xff, 0xff, 0xfe, 0xff, 0xff, 0xff,
   0x7c, 0x00, 0x00, 0x7c, 0x7c, 0x00, 0x00, 0x7c, 0x7c, 0x00, 0x00, 0x7c,
   0xfc, 0x00, 0x00, 0x7e, 0xfc, 0x00, 0x00, 0x7e, 0xfc, 0x00, 0x00, 0x7e,
   0xbc, 0x01, 0x00, 0x7b, 0xbc, 0xfd, 0x7e, 0x7b, 0x3c, 0xfb, 0xbf, 0x79,
   0x3c, 0xe6, 0xcf, 0x78, 0x3c, 0xdc, 0x77, 0x78, 0x3c, 0x38, 0x39, 0x78,
   0x3c, 0x60, 0x0d, 0x78, 0x3c, 0x38, 0x38, 0x78, 0x3c, 0x1c, 0x71, 0x78,
   0x3c, 0x06, 0xc1, 0x78, 0x3c, 0x03, 0x80, 0x79, 0xbc, 0x01, 0x00, 0x7b,
   0xbc, 0x01, 0x00, 0x7b, 0xfc, 0x00, 0x01, 0x7e, 0xfc, 0x00, 0x01, 0x7e,
   0xfc, 0x80, 0x03, 0x7e, 0x7c, 0xc0, 0x07, 0x7c, 0x7c, 0xf0, 0x1f, 0x7c,
   0x7c, 0xfe, 0xff, 0x7c, 0xfe, 0xff, 0xff, 0x7f, 0xfe, 0xff, 0xff, 0xff,
   0xfe, 0xff, 0xff, 0xff, 0xfe, 0xff, 0xff, 0xff};
