#define minusarm_width 9
#define minusarm_height 9
static unsigned char minusarm_bits[] = {
   0xff, 0x01, 0x01, 0x01, 0x7d, 0x01, 0x7d, 0x01, 0x01, 0x01, 0x7d, 0x01,
   0x7d, 0x01, 0x01, 0x01, 0xff, 0x01};
