/* XPM */
static char * plusarm_xpm[] = {
"9 9 3 1",
" 	c black",
".	c yellow",
"X	c gray40",
"         ",
" ....... ",
" ... ... ",
" ..X X.. ",
" .  X  . ",
" ..X X.. ",
" ... ... ",
" ....... ",
"         "};
