#define plusarm_width 9
#define plusarm_height 9
static unsigned char plusarm_bits[] = {
   0xff, 0x01, 0x01, 0x01, 0x6d, 0x01, 0x6d, 0x01, 0x01, 0x01, 0x6d, 0x01,
   0x6d, 0x01, 0x01, 0x01, 0xff, 0x01};
