#define questhead_width 20
#define questhead_height 22
static unsigned char questhead_bits[] = {
   0xf8, 0x1f, 0x00, 0xac, 0x2a, 0x00, 0x56, 0x55, 0x00, 0xeb, 0xaf, 0x00,
   0xf5, 0x5f, 0x01, 0xfb, 0xbf, 0x00, 0x75, 0x5d, 0x01, 0xfb, 0xbe, 0x02,
   0x75, 0x5d, 0x05, 0xab, 0xbe, 0x0a, 0x55, 0x5f, 0x07, 0xab, 0xaf, 0x00,
   0xd6, 0x57, 0x01, 0xac, 0xab, 0x00, 0xd8, 0x57, 0x00, 0xb0, 0xaa, 0x00,
   0x50, 0x55, 0x00, 0xb0, 0x0b, 0x00, 0xd0, 0x17, 0x00, 0xb0, 0x0b, 0x00,
   0x58, 0x15, 0x00, 0xa8, 0x2a, 0x00};
