#define face_width 108
#define face_height 144
#define face_x_hot 48
#define face_y_hot 80
static char face_bits[] = {
   0x00, 0x00, 0x00, 0x00, 0x00, 0x00, 0x00, 0x00, 0x20, 0x00, 0x00, 0x00,
   0x00, 0x00, 0x00, 0x00, 0x00, 0x00, 0x00, 0x00, 0x00, 0x00, 0x08, 0x09,
   0x20, 0x80, 0x24, 0x05, 0x00, 0x80, 0x08, 0x00, 0x00, 0x00, 0x00, 0x88,
   0x24, 0x20, 0x80, 0x24, 0x00, 0x00, 0x00, 0x10, 0x80, 0x04, 0x00, 0x01,
   0x00, 0x01, 0x40, 0x0a, 0x09, 0x00, 0x92, 0x04, 0x80, 0x00, 0x00, 0x00,
   0x00, 0x00, 0x10, 0x40, 0x12, 0x00, 0x00, 0x10, 0x40, 0x00, 0x00, 0x84,
   0x24, 0x40, 0x22, 0xa8, 0x02, 0x14, 0x84, 0x92, 0x40, 0x42, 0x12, 0x04,
   0x10, 0x00, 0x00, 0x00, 0x00, 0x52, 0x00, 0x52, 0x11, 0x00, 0x12, 0x00,
   0x40, 0x02, 0x00, 0x20, 0x00, 0x08, 0x00, 0xaa, 0x02, 0x54, 0x85, 0x24,
   0x00, 0x10, 0x12, 0x00, 0x00, 0x81, 0x44, 0x00, 0x90, 0x5a, 0x00, 0xea,
   0x1b, 0x00, 0x80, 0x40, 0x40, 0x02, 0x00, 0x08, 0x00, 0x20, 0xa2, 0x05,
   0x8a, 0xb4, 0x6e, 0x45, 0x12, 0x04, 0x08, 0x00, 0x00, 0x00, 0x10, 0x02,
   0xa8, 0x92, 0x00, 0xda, 0x5f, 0x10, 0x00, 0x10, 0xa1, 0x04, 0x20, 0x41,
   0x02, 0x00, 0x5a, 0x25, 0xa0, 0xff, 0xfb, 0x05, 0x41, 0x02, 0x04, 0x00,
   0x00, 0x08, 0x40, 0x80, 0xec, 0x9b, 0xec, 0xfe, 0x7f, 0x01, 0x04, 0x20,
   0x90, 0x02, 0x04, 0x00, 0x08, 0x20, 0xfb, 0x2e, 0xf5, 0xff, 0xff, 0x57,
   0x00, 0x04, 0x02, 0x00, 0x00, 0x20, 0x01, 0xc1, 0x6e, 0xab, 0xfa, 0xff,
   0xff, 0x05, 0x90, 0x20, 0x48, 0x02, 0x00, 0x04, 0x20, 0xa8, 0xdf, 0xb5,
   0xfe, 0xff, 0xff, 0x0b, 0x01, 0x00, 0x01, 0x00, 0x80, 0x80, 0x04, 0xe0,
   0xbb, 0xef, 0xff, 0xff, 0x7f, 0x01, 0x00, 0x04, 0x48, 0x02, 0x00, 0x20,
   0x80, 0xf4, 0x6f, 0xfb, 0xff, 0xff, 0xff, 0x20, 0x90, 0x40, 0x02, 0x00,
   0x00, 0x04, 0x08, 0xb8, 0xf6, 0xff, 0xff, 0xdf, 0xbe, 0x12, 0x45, 0x10,
   0x90, 0x04, 0x90, 0x00, 0x22, 0xfa, 0xff, 0xff, 0xff, 0xbb, 0xd7, 0xe9,
   0x3a, 0x02, 0x02, 0x00, 0x04, 0x90, 0x80, 0xfe, 0xdf, 0xf6, 0xb7, 0xef,
   0xbe, 0x56, 0x57, 0x40, 0x48, 0x09, 0x00, 0x04, 0x00, 0xfa, 0xf5, 0xdf,
   0xed, 0x5a, 0xd5, 0xea, 0xbd, 0x09, 0x00, 0x00, 0x40, 0x00, 0x92, 0xfe,
   0xbf, 0x7d, 0xb7, 0x6a, 0x55, 0xbf, 0xf7, 0x02, 0x11, 0x01, 0x00, 0x91,
   0x00, 0xff, 0xff, 0xaf, 0x55, 0x55, 0x5b, 0xeb, 0xef, 0x22, 0x04, 0x04,
   0x04, 0x00, 0xa4, 0xff, 0xf7, 0xad, 0xaa, 0xaa, 0xaa, 0xbe, 0xfe, 0x03,
   0x20, 0x00, 0x10, 0x44, 0x80, 0xff, 0x7f, 0x55, 0x12, 0x91, 0x2a, 0xeb,
   0xbf, 0x0b, 0x82, 0x02, 0x00, 0x00, 0xd1, 0x7f, 0xdf, 0xa2, 0xa4, 0x54,
   0x55, 0xfd, 0xfd, 0x47, 0x08, 0x08, 0x00, 0x21, 0xe4, 0xff, 0x37, 0x11,
   0x09, 0xa5, 0xaa, 0xb6, 0xff, 0x0d, 0x80, 0x00, 0x00, 0x04, 0xd0, 0xff,
   0x4f, 0x44, 0x20, 0x48, 0x55, 0xfb, 0xff, 0x27, 0x11, 0x02, 0x40, 0x40,
   0xe2, 0xfb, 0x15, 0x11, 0x4a, 0x55, 0x4a, 0x7d, 0xf7, 0x0f, 0x00, 0x00,
   0x04, 0x08, 0xf8, 0xdf, 0x52, 0x44, 0x01, 0x52, 0xb5, 0xfa, 0xff, 0x0f,
   0x49, 0x02, 0x00, 0x02, 0xe9, 0xf6, 0x0a, 0x11, 0xa4, 0x88, 0x4a, 0x6d,
   0xff, 0x5f, 0x00, 0x00, 0x10, 0x20, 0xf0, 0x2f, 0x21, 0x44, 0x10, 0x52,
   0xb5, 0xfa, 0xff, 0x0f, 0x44, 0x04, 0x80, 0x08, 0xf8, 0xab, 0x8a, 0x00,
   0x81, 0xa4, 0xd4, 0xd6, 0xfe, 0x2f, 0x00, 0x00, 0x04, 0x40, 0xb5, 0x2d,
   0x21, 0x08, 0x04, 0x90, 0xaa, 0xfa, 0xff, 0x1f, 0x11, 0x01, 0x00, 0x04,
   0xf0, 0x57, 0x0a, 0x22, 0x40, 0x4a, 0xda, 0x5e, 0xfb, 0x1f, 0x40, 0x00,
   0x40, 0x20, 0xba, 0x95, 0x90, 0x00, 0x01, 0xa0, 0xaa, 0xea, 0xff, 0x5f,
   0x02, 0x02, 0x00, 0x01, 0xe8, 0x57, 0x05, 0x00, 0x00, 0x12, 0xd5, 0xfe,
   0xfd, 0x1f, 0x48, 0x00, 0x04, 0x48, 0x7a, 0x95, 0x08, 0x02, 0x10, 0x40,
   0xaa, 0x55, 0xf7, 0x1f, 0x00, 0x09, 0x20, 0x00, 0xf8, 0x57, 0x22, 0x10,
   0x00, 0x28, 0xa9, 0xfa, 0xff, 0x5f, 0x02, 0x00, 0x00, 0x49, 0xdd, 0x29,
   0x01, 0x00, 0x80, 0x80, 0xaa, 0xd7, 0xff, 0x0f, 0x10, 0x00, 0x08, 0x00,
   0xf8, 0x96, 0x08, 0x00, 0x00, 0x20, 0x54, 0xfa, 0xee, 0x3f, 0x81, 0x04,
   0x40, 0x24, 0xfe, 0x55, 0x82, 0x00, 0x00, 0x82, 0xd2, 0xad, 0xff, 0x0f,
   0x08, 0x00, 0x04, 0x80, 0x6c, 0x97, 0x00, 0x00, 0x02, 0x20, 0xa9, 0xf6,
   0xdf, 0x5f, 0x00, 0x02, 0x20, 0x09, 0xfa, 0x49, 0x12, 0x00, 0x20, 0x84,
   0x54, 0xdb, 0xfe, 0x1f, 0x91, 0x00, 0x00, 0x00, 0xf8, 0x2b, 0x00, 0x20,
   0x00, 0x40, 0xa4, 0xf6, 0xbb, 0x1f, 0x04, 0x00, 0x44, 0x92, 0x7e, 0x95,
   0x02, 0x00, 0x00, 0x89, 0xaa, 0xdd, 0xff, 0x1f, 0x20, 0x09, 0x10, 0x00,
   0xf4, 0x57, 0x20, 0x01, 0x08, 0x20, 0xa9, 0x76, 0xff, 0x5f, 0x02, 0x00,
   0x00, 0x21, 0xfc, 0x4a, 0x05, 0x00, 0x01, 0x80, 0x54, 0xdb, 0xff, 0x1e,
   0x08, 0x02, 0x04, 0x08, 0xf9, 0x2b, 0x00, 0x00, 0x40, 0x28, 0xd2, 0xf6,
   0xff, 0xbf, 0x80, 0x00, 0x90, 0x00, 0xbc, 0x92, 0x08, 0x10, 0x00, 0x82,
   0x54, 0xdb, 0xff, 0x1f, 0x20, 0x00, 0x00, 0x44, 0xf9, 0x55, 0x02, 0x01,
   0x00, 0x20, 0xaa, 0xbd, 0xfd, 0x3f, 0x08, 0x04, 0x04, 0x10, 0xf4, 0x2a,
   0x01, 0x00, 0x22, 0x80, 0xd4, 0xf6, 0xff, 0x5f, 0x82, 0x00, 0x40, 0x02,
   0xf8, 0x55, 0x20, 0x00, 0x00, 0x50, 0x6a, 0xdf, 0xfe, 0x3f, 0x00, 0x00,
   0x00, 0x48, 0xe9, 0x4a, 0x05, 0x08, 0x00, 0xa5, 0xd5, 0xf5, 0xff, 0x3f,
   0x10, 0x01, 0x10, 0x01, 0xb0, 0xab, 0x92, 0x02, 0x40, 0xf8, 0xbf, 0xde,
   0xfe, 0x5f, 0x02, 0x04, 0x04, 0x48, 0xfa, 0xd4, 0x6f, 0x20, 0x84, 0xef,
   0xff, 0xfb, 0xff, 0x1f, 0x20, 0x00, 0x00, 0x00, 0xe0, 0xed, 0xbf, 0x0b,
   0xa1, 0x7e, 0xff, 0xbf, 0xfd, 0x5f, 0x04, 0x01, 0x20, 0x49, 0xd2, 0xfb,
   0xfe, 0x55, 0xd4, 0xff, 0xff, 0xf6, 0xff, 0x07, 0x00, 0x04, 0x00, 0x00,
   0xc0, 0xaa, 0xfb, 0x2b, 0xa2, 0xfe, 0xff, 0xdf, 0xee, 0x1f, 0x91, 0x00,
   0x82, 0xa4, 0xa4, 0xf5, 0xff, 0x57, 0xd5, 0xff, 0xbf, 0xfd, 0xff, 0x4d,
   0x00, 0x00, 0x20, 0x00, 0x88, 0x5b, 0xff, 0x2f, 0x69, 0xff, 0xff, 0xdb,
   0xfe, 0x1f, 0x24, 0x02, 0x00, 0x49, 0xa2, 0xd6, 0xff, 0x5f, 0xea, 0xff,
   0x7f, 0x7f, 0x7f, 0x0d, 0x00, 0x00, 0x10, 0x00, 0x40, 0xab, 0xf7, 0xbb,
   0xf0, 0xdf, 0xff, 0xd5, 0xff, 0xbf, 0x82, 0x04, 0x42, 0x24, 0x91, 0xd5,
   0xaa, 0xae, 0xd4, 0xaa, 0x52, 0x7b, 0xff, 0x15, 0x08, 0x00, 0x00, 0x01,
   0x04, 0x55, 0xd5, 0x55, 0x70, 0x5b, 0x75, 0xdd, 0xdf, 0x1f, 0x40, 0x00,
   0x08, 0x48, 0xa0, 0x4a, 0xa9, 0x56, 0xea, 0x56, 0xad, 0x6a, 0x7d, 0x9b,
   0x04, 0x01, 0x00, 0x02, 0x42, 0x2a, 0xd5, 0xaa, 0xa8, 0xaa, 0xaa, 0xfa,
   0xdf, 0x2f, 0x10, 0x04, 0x22, 0x48, 0x08, 0x45, 0x2a, 0x15, 0x68, 0x55,
   0x55, 0xd7, 0x76, 0x1b, 0x00, 0x00, 0x00, 0x01, 0x40, 0x2a, 0x80, 0xa0,
   0xb2, 0x09, 0x48, 0xb9, 0xdf, 0x17, 0x22, 0x01, 0x00, 0x24, 0x45, 0x8a,
   0x24, 0x4a, 0x54, 0x51, 0x91, 0xf6, 0x6e, 0x4b, 0x00, 0x04, 0x90, 0x00,
   0x80, 0x52, 0x00, 0x20, 0x69, 0x05, 0xa4, 0xaa, 0xff, 0x1e, 0x48, 0x00,
   0x02, 0x92, 0x08, 0x05, 0x81, 0x94, 0xd4, 0x92, 0x40, 0xfd, 0xb6, 0x8b,
   0x00, 0x01, 0x40, 0x00, 0x82, 0x54, 0x00, 0x48, 0x68, 0x05, 0x90, 0xa4,
   0xef, 0x06, 0x24, 0x00, 0x08, 0x12, 0x10, 0x05, 0x00, 0x10, 0xb5, 0x01,
   0x42, 0xfb, 0xbf, 0x43, 0x00, 0x09, 0x00, 0x40, 0x81, 0xa8, 0x08, 0x4a,
   0xaa, 0x96, 0x90, 0xac, 0x6d, 0x15, 0x22, 0x00, 0x20, 0x09, 0x04, 0x15,
   0x80, 0x28, 0xdc, 0x01, 0x24, 0xfb, 0xbf, 0x01, 0x80, 0x04, 0x09, 0x00,
   0x40, 0x48, 0x02, 0x45, 0xb2, 0x2e, 0x41, 0x6d, 0xef, 0x05, 0x11, 0x00,
   0x40, 0x52, 0x02, 0x15, 0x29, 0x2a, 0xac, 0x42, 0x54, 0xfb, 0x3b, 0x51,
   0x84, 0x00, 0x08, 0x00, 0x20, 0x54, 0x80, 0x05, 0xb5, 0x3d, 0xa2, 0xb6,
   0xdf, 0x00, 0x20, 0x04, 0x20, 0x49, 0x89, 0xa8, 0x6a, 0x29, 0xac, 0xd6,
   0x54, 0xff, 0x3f, 0x84, 0x00, 0x01, 0x04, 0x10, 0x00, 0x94, 0xa8, 0x56,
   0xda, 0x5f, 0xab, 0xd5, 0x1e, 0x10, 0x48, 0x00, 0x90, 0x82, 0x48, 0xa8,
   0xb2, 0xac, 0xfd, 0x55, 0xd5, 0xfe, 0x9f, 0x80, 0x00, 0x0a, 0x02, 0x08,
   0x02, 0x55, 0x5a, 0x75, 0xff, 0xaf, 0xb6, 0xf7, 0x2d, 0x12, 0x92, 0x00,
   0x10, 0x20, 0x10, 0xa8, 0x54, 0xd5, 0xbf, 0x5d, 0xad, 0xdd, 0x0f, 0x00,
   0x00, 0x04, 0x40, 0x09, 0x84, 0xa8, 0xaa, 0x5a, 0xed, 0xeb, 0x6a, 0xff,
   0x9f, 0xa4, 0x24, 0x01, 0x02, 0xa0, 0x20, 0x50, 0x55, 0xd5, 0xbe, 0xae,
   0xad, 0xfd, 0x16, 0x00, 0x10, 0x04, 0x20, 0x0a, 0x08, 0xb4, 0xaa, 0x95,
   0xaa, 0x7b, 0xb7, 0xdb, 0x5f, 0x92, 0x04, 0x01, 0x84, 0x20, 0x21, 0x51,
   0xd5, 0x2a, 0xa9, 0xee, 0xd5, 0xfe, 0x0d, 0x00, 0x20, 0x04, 0x10, 0x00,
   0x08, 0x50, 0xe9, 0xd7, 0xd4, 0xfb, 0xb5, 0xff, 0x9f, 0x24, 0x09, 0x01,
   0x42, 0x4a, 0xa2, 0x64, 0xd5, 0x55, 0x7b, 0x7f, 0xda, 0x7d, 0x4f, 0x00,
   0x20, 0x04, 0x00, 0x80, 0x00, 0xa0, 0x2a, 0x13, 0x84, 0x6a, 0x55, 0xff,
   0x1d, 0x48, 0x8a, 0x00, 0x94, 0x24, 0x8a, 0xc8, 0xaa, 0x42, 0x20, 0x5d,
   0xf5, 0xff, 0x5f, 0x01, 0x00, 0x02, 0x01, 0x00, 0x20, 0xa2, 0x4a, 0x1a,
   0x82, 0x56, 0xda, 0xbd, 0x3f, 0x92, 0x92, 0x00, 0x90, 0x92, 0x00, 0x40,
   0x95, 0x6a, 0xf4, 0x55, 0x6d, 0xff, 0xd6, 0x00, 0x00, 0x0a, 0x04, 0x20,
   0x14, 0x49, 0x4b, 0xaa, 0xaa, 0x56, 0xf5, 0xff, 0xbf, 0xab, 0xa4, 0x00,
   0x20, 0x89, 0x40, 0x80, 0xaa, 0xaa, 0xaa, 0xaa, 0xde, 0xbf, 0xeb, 0x03,
   0x00, 0x02, 0x04, 0x02, 0x0a, 0x10, 0x2b, 0x2a, 0x55, 0x5b, 0xf5, 0xff,
   0xd7, 0x2f, 0x92, 0x00, 0x10, 0x28, 0x21, 0x01, 0x56, 0x95, 0xa0, 0x56,
   0xdf, 0xef, 0xea, 0x87, 0x40, 0x0a, 0x42, 0x41, 0x00, 0x90, 0xaa, 0x52,
   0xb6, 0xad, 0xfa, 0xff, 0xd5, 0x2f, 0x14, 0x00, 0x00, 0x04, 0x95, 0x04,
   0xaa, 0xac, 0x55, 0x6b, 0xff, 0xb7, 0xea, 0x9f, 0x40, 0x02, 0x28, 0x51,
   0x00, 0x40, 0x58, 0xd5, 0xda, 0xd6, 0x6e, 0x7f, 0xf9, 0x3f, 0x12, 0x04,
   0x02, 0x04, 0x49, 0x25, 0x55, 0xaa, 0x77, 0xab, 0xff, 0x2b, 0xfd, 0x3f,
   0x48, 0x01, 0x20, 0x41, 0x00, 0x00, 0x58, 0xa9, 0xda, 0xea, 0xfd, 0xaf,
   0xfa, 0xff, 0x02, 0x04, 0x08, 0x14, 0x29, 0x49, 0x52, 0x55, 0x55, 0x55,
   0xff, 0x8d, 0xfe, 0x3f, 0xa8, 0x00, 0x02, 0x41, 0x00, 0x02, 0xa0, 0xa2,
   0xaa, 0xea, 0xff, 0x53, 0xfd, 0xff, 0x02, 0x04, 0x50, 0x04, 0x25, 0xa8,
   0x54, 0x49, 0x52, 0xb5, 0xbf, 0x8a, 0xfe, 0xff, 0xa9, 0x08, 0x04, 0x50,
   0x80, 0x02, 0xa1, 0x2a, 0x95, 0xea, 0xff, 0xa1, 0xff, 0xff, 0x03, 0x02,
   0x90, 0x02, 0x09, 0x08, 0x44, 0x49, 0x52, 0xbd, 0x7f, 0xca, 0xff, 0xff,
   0x2b, 0x09, 0x04, 0x48, 0x40, 0x82, 0x90, 0x56, 0xa9, 0xf6, 0xbf, 0xd0,
   0xff, 0xff, 0x47, 0x00, 0x50, 0x02, 0x15, 0x11, 0x40, 0x95, 0xaa, 0xfd,
   0x2f, 0xe9, 0xff, 0xff, 0x8f, 0x0a, 0x84, 0x50, 0x40, 0x84, 0x14, 0xaa,
   0x6a, 0xff, 0x5f, 0xf2, 0xff, 0xff, 0x7f, 0x00, 0x10, 0x02, 0x09, 0x10,
   0x40, 0x7d, 0xf7, 0xff, 0x0b, 0xfc, 0xff, 0xff, 0xaf, 0x02, 0x84, 0x50,
   0x42, 0x85, 0x12, 0xd0, 0xdd, 0xff, 0xa7, 0xf2, 0xff, 0xff, 0xff, 0x04,
   0x00, 0x0a, 0x08, 0x10, 0x48, 0xf8, 0xff, 0xff, 0x0a, 0xfe, 0xff, 0xff,
   0x7f, 0x03, 0xa4, 0x80, 0xa2, 0x8a, 0x02, 0x68, 0xff, 0xff, 0x52, 0xfd,
   0xff, 0xff, 0xff, 0x07, 0x00, 0x2a, 0x08, 0x20, 0x28, 0xdc, 0xff, 0x5f,
   0x05, 0xff, 0xff, 0xff, 0xff, 0x0d, 0x92, 0x40, 0x22, 0x09, 0x02, 0xea,
   0xfb, 0xaf, 0x48, 0xff, 0xff, 0xff, 0xff, 0x0f, 0x00, 0x12, 0x81, 0xa0,
   0x48, 0x9c, 0x6e, 0x93, 0xa2, 0xff, 0xff, 0xff, 0xff, 0x07, 0xa8, 0x40,
   0x28, 0x0a, 0x02, 0x74, 0xb5, 0x45, 0x81, 0xff, 0xff, 0xff, 0xff, 0x0f,
   0x02, 0x0a, 0x81, 0x20, 0x08, 0xae, 0xaa, 0x90, 0xe8, 0xff, 0xff, 0xff,
   0xff, 0x0f, 0x90, 0x40, 0x28, 0x88, 0x12, 0x58, 0x15, 0x50, 0xd0, 0xff,
   0xff, 0xff, 0xff, 0x0f, 0x44, 0x0a, 0x41, 0x21, 0x08, 0xae, 0x04, 0x14,
   0xf0, 0xff, 0xff, 0xff, 0xff, 0x0f, 0x10, 0x40, 0x14, 0x88, 0x04, 0xba,
   0x02, 0x28, 0xe8, 0xff, 0xff, 0xff, 0xff, 0x0f, 0x42, 0x15, 0x41, 0x21,
   0x05, 0xad, 0x00, 0x05, 0xf8, 0xff, 0xff, 0xff, 0xff, 0x0f, 0x10, 0x40,
   0x24, 0x8a, 0x0e, 0x36, 0x00, 0x0a, 0xf4, 0xff, 0xff, 0xff, 0xff, 0x0f,
   0x42, 0x25, 0x90, 0xd0, 0x8b, 0xc2, 0x41, 0x05, 0xfc, 0xff, 0xff, 0xff,
   0xff, 0x0f, 0x10, 0x08, 0x05, 0xe8, 0x8e, 0x58, 0x80, 0x02, 0xfa, 0xff,
   0xff, 0xff, 0xff, 0x0f, 0x4a, 0x20, 0xa8, 0xba, 0x0b, 0x2b, 0x51, 0x01,
   0xfe, 0xff, 0xff, 0xff, 0xff, 0x0f, 0x00, 0x8a, 0x02, 0xe8, 0xaf, 0x84,
   0x90, 0x04, 0xfd, 0xff, 0xff, 0xff, 0xff, 0x0f, 0x52, 0x21, 0x54, 0xbf,
   0x1f, 0x15, 0xa5, 0x02, 0xfe, 0xff, 0xff, 0xff, 0xff, 0x0f, 0x00, 0x08,
   0x01, 0xfa, 0xb6, 0xa4, 0x52, 0x40, 0xff, 0xff, 0xff, 0xff, 0xff, 0x0f,
   0x4a, 0xa2, 0x54, 0xef, 0x5f, 0x4b, 0xa4, 0x80, 0xff, 0xff, 0xff, 0xff,
   0xff, 0x0f, 0x80, 0x10, 0x82, 0xfe, 0xbf, 0x92, 0x52, 0x42, 0xff, 0xff,
   0xff, 0xff, 0xff, 0x0f, 0x12, 0x42, 0xa8, 0xbf, 0x1f, 0x24, 0x80, 0xa0,
   0xff, 0xff, 0xff, 0xff, 0xff, 0x0f, 0x84, 0x28, 0x8a, 0xf7, 0x37, 0x80,
   0x52, 0x80, 0xff, 0xff, 0xff, 0xff, 0xff, 0x0f, 0x10, 0x82, 0xe0, 0xff,
   0x1f, 0x00, 0x20, 0xe1, 0xff, 0xff, 0xff, 0xff, 0xff, 0x0f, 0x84, 0x28,
   0xca, 0xff, 0x1f, 0x00, 0x00, 0xc0, 0xff, 0xff, 0xff, 0xff, 0xff, 0x0f,
   0x10, 0x42, 0xf0, 0xfd, 0x1b, 0x00, 0x50, 0xf0, 0xff, 0xff, 0xff, 0xff,
   0xff, 0x0f, 0xa4, 0x10, 0xc5, 0xff, 0x1f, 0x00, 0x00, 0xe0, 0xff, 0xff,
   0xff, 0xff, 0xff, 0x0f, 0x00, 0x22, 0xf8, 0xff, 0x0e, 0x00, 0x00, 0xf0,
   0xff, 0xff, 0xff, 0xff, 0xff, 0x0f, 0xaa, 0x88, 0xe2, 0xff, 0x0f, 0x10,
   0x00, 0xf0, 0xff, 0xff, 0xff, 0xff, 0xff, 0x0f, 0x00, 0x25, 0xfa, 0xff,
   0x0f, 0x01, 0x11, 0xfd, 0xff, 0xff, 0xff, 0xff, 0xff, 0x0f, 0xff, 0xfb,
   0xfb, 0xff, 0x7f, 0x5d, 0xd5, 0xfa, 0xff, 0xff, 0xff, 0xff, 0xff, 0x0f};
