/* XPM */
static char * exit_xpm[] = {
"50 40 5 1",
" 	s None	c None",
".	c black",
"X	c white",
"o	c #000080800000",
"O	c yellow",
"                                                  ",
"                                                  ",
"                                                  ",
"                                                  ",
"                                                  ",
"                                                  ",
"                                                  ",
"                                                  ",
"                                                  ",
"     .......................................      ",
"     .XXXXXXXXXXXXXXXXXXXXXXXXXXXXXXXXXXXXX.      ",
"     .XoooooooooooooooooooooooooooooooooooX.      ",
"     .XoooooooooooooooooooooooooooooooooooX.      ",
"     .XoooooooooooooooooooooooOoooooooooooX.      ",
"     .XoooooooooooooooooooooooOOooooooooooX.      ",
"     .XoooooooooooooooooooooooOOOoooooooooX.      ",
"     .XoooooOOOOOOOOOOOOOOOOOOOOOOooooooooX.      ",
"     .XoooooOOOOOOOOOOOOOOOOOOOOOOOoooooooX.      ",
"     .XoooooOOOOOOOOOOOOOOOOOOOOOOOOooooooX.      ",
"     .XoooooOOOOOOOOOOOOOOOOOOOOOOOOOoooooX.      ",
"     .XoooooOOOOOOOOOOOOOOOOOOOOOOOOooooooX.      ",
"     .XoooooOOOOOOOOOOOOOOOOOOOOOOOoooooooX.      ",
"     .XoooooOOOOOOOOOOOOOOOOOOOOOOooooooooX.      ",
"     .XoooooooooooooooooooooooOOOoooooooooX.      ",
"     .XoooooooooooooooooooooooOOooooooooooX.      ",
"     .XoooooooooooooooooooooooOoooooooooooX.      ",
"     .XoooooooooooooooooooooooooooooooooooX.      ",
"     .XoooooooooooooooooooooooooooooooooooX.      ",
"     .XoooooooooooooooooooooooooooooooooooX.      ",
"     .XXXXXXXXXXXXXXXXXXXXXXXXXXXXXXXXXXXXX.      ",
"     .......................................      ",
"                                                  ",
"                                                  ",
"                                                  ",
"                                                  ",
"                                                  ",
"                                                  ",
"                                                  ",
"                                                  ",
"                                                  "};
