#define netw_width 32
#define netw_height 32
static unsigned char netw_bits[] = {
   0x00, 0x00, 0x00, 0x00, 0x00, 0x00, 0xfe, 0x7f, 0x00, 0x00, 0x02, 0x40,
   0x00, 0x00, 0xfa, 0x5f, 0x00, 0x00, 0x0a, 0x50, 0x00, 0x00, 0x0a, 0x52,
   0x00, 0x00, 0x0a, 0x52, 0x00, 0x00, 0x8a, 0x51, 0x00, 0x00, 0x0a, 0x50,
   0x00, 0x00, 0x4a, 0x50, 0x00, 0x00, 0x0a, 0x50, 0x00, 0x00, 0x0a, 0x50,
   0x00, 0x00, 0xfa, 0x5f, 0x00, 0x00, 0x02, 0x40, 0xfe, 0x7f, 0x52, 0x55,
   0x02, 0x40, 0xaa, 0x6a, 0xfa, 0x5f, 0xfe, 0x7f, 0x0a, 0x50, 0xfe, 0x7f,
   0x0a, 0x52, 0x80, 0x00, 0x0a, 0x52, 0x80, 0x00, 0x8a, 0x51, 0x80, 0x00,
   0x0a, 0x50, 0x80, 0x00, 0x4a, 0x50, 0x80, 0x00, 0x0a, 0x50, 0xe0, 0x03,
   0x0a, 0x50, 0x20, 0x02, 0xfa, 0xdf, 0x3f, 0x03, 0x02, 0x40, 0xa0, 0x02,
   0x52, 0x55, 0xe0, 0x03, 0xaa, 0x6a, 0x00, 0x00, 0xfe, 0x7f, 0x00, 0x00,
   0xfe, 0x7f, 0x00, 0x00, 0x00, 0x00, 0x00, 0x00};
