/* XPM */
static char * info_xpm[] = {
"32 32 3 1",
" 	s None	c None",
".	c #000000000000",
"X	c white",
"                                ",
"           .........            ",
"        ...XXXXXXXXX...         ",
"       .XXXXXXXXXXXXXXX.        ",
"     ..XXXXXXXXXXXXXXXXX..      ",
"    .XXXXXXXXXXXXXXXXXXXXX.     ",
"   .XXXXXXXXXX...XXXXXXXXXX.    ",
"   .XXXXXXXXX.....XXXXXXXXX.    ",
"  .XXXXXXXXX.......XXXXXXXXX.   ",
" .XXXXXXXXXX.......XXXXXXXXXX.  ",
" .XXXXXXXXXX.......XXXXXXXXXX.  ",
" .XXXXXXXXXXX.....XXXXXXXXXXX.  ",
".XXXXXXXXXXXXX...XXXXXXXXXXXXX. ",
".XXXXXXXXXXXXXXXXXXXXXXXXXXXXX. ",
".XXXXXXXXXXXXXXXXXXXXXXXXXXXXX. ",
".XXXXXXXXXXX.......XXXXXXXXXXX. ",
".XXXXXXXXXXX.......XXXXXXXXXXX. ",
".XXXXXXXXXXX.......XXXXXXXXXXX. ",
".XXXXXXXXXXX.......XXXXXXXXXXX. ",
".XXXXXXXXXXX.......XXXXXXXXXXX. ",
".XXXXXXXXXXX.......XXXXXXXXXXX. ",
" .XXXXXXXXXX.......XXXXXXXXXX.  ",
" .XXXXXXXXXX.......XXXXXXXXXX.  ",
" .XXXXXXXXXX.......XXXXXXXXXX.  ",
"  .XXXXXXXXX.......XXXXXXXXX.   ",
"   .XXXXXXXX.......XXXXXXXX.    ",
"   .XXXXXXXX.......XXXXXXXX.    ",
"    .XXXXXXXXXXXXXXXXXXXXX.     ",
"     ..XXXXXXXXXXXXXXXXX..      ",
"       .XXXXXXXXXXXXXXX.        ",
"        ...XXXXXXXXX...         ",
"           .........            "};
