<svg xmlns="http://www.w3.org/2000/svg" viewBox="0 0 32 32"><style>.icon-canvas-transparent{opacity:0;fill:#f6f6f6}.icon-vs-out{fill:#f6f6f6}.icon-vso-bg{fill:#656565}.icon-vso-lightgrey{fill:#bfbfbf}.icon-white{fill:#fff}.st0{fill:url(#path1948_1_)}.st1{fill:url(#path1950_1_)}</style><path class="icon-canvas-transparent" d="M32 32H0V0h32v32z" id="canvas"/><g id="iconBg"><path class="icon-vs-out" d="M26 8.009V29H7V3h14.053L26 8.009z"/><path class="icon-vso-bg" d="M21.471 2H6v28h21V7.599L21.471 2zM21 3h.053l4.939 5H21V3zm5 26H7V3h13v6h6v20z"/></g><path class="icon-vso-lightgrey" d="M17 7H9V6h8v1zm0 2H9v1h8V9zm7 3H9v1h15v-1zm0 3H9v1h15v-1zm0 3H9v1h15v-1zm0 3H9v1h15v-1zm0 3H9v1h15v-1z" id="iconFg"/><g id="colorImportance"><path class="icon-white" d="M31.66 24.063C31.312 25.116 30.661 27 28.413 27H27v1.313c0 .905-.335 2.537-2.965 3.298-.904.261-1.694.389-2.531.389-.83 0-1.63-.128-2.526-.392C17.061 31.045 16 29.844 16 28.313V27h-1.232c-1.699 0-2.944-1.141-3.416-3.11-.469-1.946-.469-3.021 0-4.967.451-1.881 1.96-2.923 3.845-2.923H16v-1.697c0-2.005.866-2.845 3.087-3.238.727-.128 1.506-.065 2.327-.065h.003c.921 0 1.703-.07 2.504.064 1.818.302 3.079 1.585 3.079 3.239V16h1.413c1.142 0 2.636.356 3.27 2.912.515 2.072.509 3.559-.023 5.151z"/><linearGradient id="path1948_1_" gradientUnits="userSpaceOnUse" x1="522.32" y1="-288.668" x2="541.017" y2="-304.754" gradientTransform="matrix(.5625 0 0 -.568 -282.272 -151.69)"><stop offset="0" stop-color="#5a9fd4"/><stop offset="1" stop-color="#306998"/></linearGradient><path id="path1948_2_" class="st0" d="M21.419 11.725c-.786.004-1.537.071-2.197.188-1.946.344-2.299 1.063-2.299 2.39v1.753h4.598v.584h-6.324c-1.336 0-2.507.803-2.873 2.331-.422 1.751-.441 2.844 0 4.673.327 1.361 1.108 2.331 2.444 2.331h1.581v-2.101c0-1.518 1.313-2.857 2.873-2.857h4.593c1.278 0 2.299-1.053 2.299-2.337v-4.379c0-1.246-1.051-2.182-2.299-2.39-.79-.13-1.61-.189-2.396-.186zm-2.487 1.41c.475 0 .863.394.863.879a.87.87 0 0 1-.863.874.868.868 0 0 1-.863-.874c0-.485.387-.879.863-.879z"/><linearGradient id="path1950_1_" gradientUnits="userSpaceOnUse" x1="548.245" y1="-314.489" x2="541.569" y2="-305.043" gradientTransform="matrix(.5625 0 0 -.568 -282.272 -151.69)"><stop offset="0" stop-color="#ffd43b"/><stop offset="1" stop-color="#ffe873"/></linearGradient><path id="path1950_2_" class="st1" d="M26.687 16.64v2.042c0 1.583-1.342 2.915-2.873 2.915h-4.593c-1.258 0-2.299 1.077-2.299 2.337v4.379c0 1.246 1.084 1.979 2.299 2.337 1.456.428 2.851.505 4.593 0 1.158-.335 2.299-1.01 2.299-2.337V26.56H21.52v-.584H28.412c1.336 0 1.834-.932 2.299-2.331.48-1.44.46-2.826 0-4.673-.33-1.33-.961-2.331-2.299-2.331h-1.725zm-2.583 11.089c.477 0 .863.391.863.874a.871.871 0 0 1-.863.879.872.872 0 0 1-.863-.879c0-.484.388-.874.863-.874z"/></g></svg>