<svg xmlns="http://www.w3.org/2000/svg" viewBox="0 0 32 32"><style>.icon-canvas-transparent{opacity:0;fill:#f6f6f6}.icon-white{fill:#fff}.icon-visualstudio-online{fill:#007acc}.graph-lightgrey{fill:#dfdfdf}.st0{fill:#f6f6f6}.st1{fill:#656565}.st2{fill:#bfbfbf}.st3{fill:#fff}.st4{fill:url(#path1948_1_)}.st5{fill:url(#path1950_1_)}</style><path class="icon-canvas-transparent" d="M32 32H0V0h32v32z" id="canvas"/><g id="iconBg"><path class="graph-lightgrey" d="M29 7H3V5h26v2z"/><path class="icon-visualstudio-online" d="M30 5H2V3h28v2z"/><path class="icon-white" d="M29.141 4l.429.429-.14.142-.43-.43-.43.43-.14-.142.429-.429-.429-.429.141-.142.429.43.43-.43.141.142-.43.429zM27.6 3.4h-1.2v1.2h1.2V3.4zm-1 .2h.8v.8h-.8v-.8zm-1.139.8h-1v.2h1v-.2z"/><path class="st0" d="M3 7h26v19H3z"/><path class="st1" d="M29 5v21H3V5H2v22h28V5z"/><path class="st1" d="M4 5.75h2v.5H4z"/></g><path class="st2" d="M12 11H5v-1h7v1zm-7 7v1h11v-1H5zm0-4v1h11v-1H5z" id="iconFg"/><g id="colorImportance"><path class="st3" d="M31.618 18.912C30.984 16.356 29.49 16 28.349 16H27v-1.697c0-1.654-1.294-2.937-3.11-3.24-.802-.133-1.617-.063-2.537-.063h-.003c-.821 0-1.568-.063-2.295.065-2.221.393-3.055 1.233-3.055 3.238V16h-.868c-1.885 0-3.394 1.042-3.845 2.924-.469 1.946-.469 3.022 0 4.967C11.76 25.859 13.005 27 14.703 27H16v1.313c0 1.531 1.029 2.732 2.946 3.296.896.263 1.662.391 2.492.391.838 0 1.661-.128 2.565-.39C26.632 30.85 27 29.218 27 28.313V27h1.349c2.246 0 2.897-1.884 3.247-2.937.532-1.592.538-3.079.022-5.151z"/><linearGradient id="path1948_1_" gradientUnits="userSpaceOnUse" x1="522.205" y1="-288.668" x2="540.902" y2="-304.754" gradientTransform="matrix(.5625 0 0 -.568 -282.272 -151.69)"><stop offset="0" stop-color="#5a9fd4"/><stop offset="1" stop-color="#306998"/></linearGradient><path id="path1948_6_" class="st4" d="M21.354 11.725c-.786.004-1.537.071-2.197.188-1.946.344-2.299 1.063-2.299 2.39v1.753h4.598v.584h-6.324c-1.336 0-2.507.803-2.873 2.331-.422 1.751-.441 2.844 0 4.673.327 1.361 1.107 2.331 2.444 2.331h1.581v-2.101c0-1.518 1.313-2.857 2.873-2.857h4.593c1.278 0 2.299-1.053 2.299-2.337v-4.379c0-1.246-1.051-2.182-2.299-2.39-.79-.13-1.61-.189-2.396-.186zm-2.486 1.41c.475 0 .863.394.863.879a.87.87 0 0 1-.863.874.868.868 0 0 1-.863-.874c0-.485.386-.879.863-.879z"/><linearGradient id="path1950_1_" gradientUnits="userSpaceOnUse" x1="548.13" y1="-314.489" x2="541.454" y2="-305.043" gradientTransform="matrix(.5625 0 0 -.568 -282.272 -151.69)"><stop offset="0" stop-color="#ffd43b"/><stop offset="1" stop-color="#ffe873"/></linearGradient><path id="path1950_6_" class="st5" d="M26.623 16.64v2.042c0 1.583-1.342 2.915-2.873 2.915h-4.593c-1.258 0-2.299 1.077-2.299 2.337v4.379c0 1.246 1.084 1.979 2.299 2.337 1.456.428 2.851.505 4.593 0 1.158-.335 2.299-1.01 2.299-2.337V26.56h-4.593v-.584h6.892c1.336 0 1.834-.932 2.299-2.331.48-1.44.46-2.826 0-4.673-.33-1.33-.961-2.331-2.299-2.331h-1.725zm-2.584 11.089c.477 0 .863.391.863.874a.871.871 0 0 1-.863.879.872.872 0 0 1-.863-.879.87.87 0 0 1 .863-.874z"/></g></svg>