#define foo_width 16
#define foo_height 16
static char foo_bits[] = {
   0x60, 0x06, 0x90, 0x09, 0x90, 0x09, 0xb0, 0x0d, 0x4e, 0x72, 0x49, 0x92,
   0x71, 0x8e, 0x8e, 0x71, 0x8e, 0x71, 0x71, 0x8e, 0x49, 0x92, 0x4e, 0x72,
   0xb0, 0x0d, 0x90, 0x09, 0x90, 0x09, 0x60, 0x06};
