/* XPM */
static char * select_xpm[] = {
"50 40 9 1",
" 	s None	c None",
".	c black",
"X	c gray95",
"o	c gray50",
"O	c gray70",
"+	c navy",
"@	c #000080800000",
"#	c #808000000000",
"$	c white",
"                                                  ",
"                                                  ",
"                                                  ",
"                                                  ",
"                                                  ",
"                                                  ",
"                                                  ",
"                                                  ",
"                                                  ",
"  ..............................................  ",
"  .XXXXXXXXXXooooooooooooXXXXXXXXXXXoXXXXXXXXXX.  ",
"  .X         ooOOOOOOOOOOXX         oX        o.  ",
"  .X         ooOOOOOOOOOOXX         oX        o.  ",
"  .X   ++++  ooOOOOOOOOOOXX  ...    oX  @     o.  ",
"  .X  +++++  ooOOOOOOOOOOXX .   .   oX  @@@   o.  ",
"  .X +++   + ooOOOOOOOOOOXX .    .  oX @  @   o.  ",
"  .X +     + ooOO#####OOOXX .    .  oX @  @   o.  ",
"  .X +     + ooOO#OOO##OOXX .       oX @   @  o.  ",
"  .X +     + ooO##OOOO##OXX .       oX @    @ o.  ",
"  .X ++   ++ ooO###OOO#OOXX .       oX @    @ o.  ",
"  .X +++++++ ooO#######OOXX .       oX @    @ o.  ",
"  .X +     + ooO##O#OO#OOXX .       oX @    @ o.  ",
"  .X +    ++ ooO##OOOOO#OXX .    .  oX @    @ o.  ",
"  .X +     + ooOO#OOOOO#OXX .    .  oX @   @@ o.  ",
"  .X +    ++ ooOO#OOOOO#OXX  ....   oX @@@@@  o.  ",
"  .X         ooOO######OOXX         oX        o.  ",
"  .X         ooOOOOOOOOOOXX        $oX        o.  ",
"  .XoooooooooooXXXXXXXXXXXoooooooooooXooooooooo.  ",
"  ..............................................  ",
"                                                  ",
"                                                  ",
"                                                  ",
"                                                  ",
"                                                  ",
"                                                  ",
"                                                  ",
"                                                  ",
"                                                  ",
"                                                  ",
"                                                  "};
