<?xml version="1.0" encoding="UTF-8" standalone="no"?>
<!DOCTYPE svg PUBLIC "-//W3C//DTD SVG 1.1//EN"
 "http://www.w3.org/Graphics/SVG/1.1/DTD/svg11.dtd">
<!-- Generated by graphviz version 2.43.0 (0)
 -->
<!-- Title: G Pages: 1 -->
<svg width="376pt" height="540pt"
 viewBox="0.00 0.00 376.09 540.00" xmlns="http://www.w3.org/2000/svg" xmlns:xlink="http://www.w3.org/1999/xlink">
<g id="graph0" class="graph" transform="scale(1 1) rotate(0) translate(4 536)">
<title>G</title>
<polygon fill="white" stroke="transparent" points="-4,4 -4,-536 372.09,-536 372.09,4 -4,4"/>
<!-- start -->
<!-- tp_alloc -->
<g id="node2" class="node">
<title>tp_alloc</title>
<g id="a_node2"><a xlink:href="typeobj.html#c.PyTypeObject.tp_alloc" xlink:title="tp_alloc" target="_top">
<ellipse fill="none" stroke="black" cx="190.94" cy="-484" rx="34.96" ry="18"/>
<text text-anchor="middle" x="190.94" y="-481.5" font-family="Courier,monospace" font-size="10.00">tp_alloc</text>
</a>
</g>
</g>
<!-- start&#45;&gt;tp_alloc -->
<g id="edge1" class="edge">
<title>start&#45;&gt;tp_alloc</title>
<path fill="none" stroke="black" d="M190.94,-520.85C190.94,-518.57 190.94,-515.61 190.94,-512.37"/>
<polygon fill="black" stroke="black" points="194.44,-512.22 190.94,-502.22 187.44,-512.22 194.44,-512.22"/>
</g>
<!-- tp_new -->
<g id="node3" class="node">
<title>tp_new</title>
<g id="a_node3"><a xlink:href="typeobj.html#c.PyTypeObject.tp_new" xlink:title="tp_new" target="_top">
<ellipse fill="none" stroke="black" cx="190.94" cy="-429" rx="28.01" ry="18"/>
<text text-anchor="middle" x="190.94" y="-426.5" font-family="Courier,monospace" font-size="10.00">tp_new</text>
</a>
</g>
</g>
<!-- tp_alloc&#45;&gt;tp_new -->
<g id="edge2" class="edge">
<title>tp_alloc&#45;&gt;tp_new</title>
<path fill="none" stroke="black" d="M190.94,-465.94C190.94,-463.1 190.94,-460.1 190.94,-457.09"/>
<polygon fill="black" stroke="black" points="194.44,-457.03 190.94,-447.03 187.44,-457.03 194.44,-457.03"/>
</g>
<!-- tp_init -->
<g id="node4" class="node">
<title>tp_init</title>
<g id="a_node4"><a xlink:href="typeobj.html#c.PyTypeObject.tp_init" xlink:title="tp_init" target="_top">
<ellipse fill="none" stroke="black" cx="190.94" cy="-374" rx="31.4" ry="18"/>
<text text-anchor="middle" x="190.94" y="-371.5" font-family="Courier,monospace" font-size="10.00">tp_init</text>
</a>
</g>
</g>
<!-- tp_new&#45;&gt;tp_init -->
<g id="edge3" class="edge">
<title>tp_new&#45;&gt;tp_init</title>
<path fill="none" stroke="black" d="M190.94,-410.94C190.94,-408.1 190.94,-405.1 190.94,-402.09"/>
<polygon fill="black" stroke="black" points="194.44,-402.03 190.94,-392.03 187.44,-402.03 194.44,-402.03"/>
</g>
<!-- alive -->
<g id="node5" class="node">
<title>alive</title>
<polygon fill="none" stroke="black" points="238.44,-337 143.44,-337 143.44,-301 238.44,-301 238.44,-337"/>
<text text-anchor="start" x="151.44" y="-316.5" font-family="Times,serif" font-style="italic" font-size="10.00">alive, ref count &gt; 0</text>
</g>
<!-- tp_init&#45;&gt;alive -->
<g id="edge4" class="edge">
<title>tp_init&#45;&gt;alive</title>
<path fill="none" stroke="black" d="M190.94,-355.94C190.94,-353.1 190.94,-350.1 190.94,-347.09"/>
<polygon fill="black" stroke="black" points="194.44,-347.03 190.94,-337.03 187.44,-347.03 194.44,-347.03"/>
</g>
<!-- tp_traverse -->
<g id="node6" class="node">
<title>tp_traverse</title>
<g id="a_node6"><a xlink:href="typeobj.html#c.PyTypeObject.tp_traverse" xlink:title="tp_traverse" target="_top">
<polygon fill="none" stroke="black" points="368.24,-311.54 368.24,-326.46 340.53,-337 301.35,-337 273.64,-326.46 273.64,-311.54 301.35,-301 340.53,-301 368.24,-311.54"/>
<text text-anchor="middle" x="320.94" y="-316.5" font-family="Courier,monospace" font-size="10.00">tp_traverse</text>
</a>
</g>
</g>
<!-- alive&#45;&gt;tp_traverse -->
<g id="edge6" class="edge">
<title>alive&#45;&gt;tp_traverse</title>
<path fill="none" stroke="black" d="M238.67,-331.55C250.11,-332.81 261.54,-332.82 272.97,-331.57"/>
<polygon fill="black" stroke="black" points="273.61,-335.02 283.02,-330.16 272.63,-328.09 273.61,-335.02"/>
</g>
<!-- tp_finalize -->
<g id="node7" class="node">
<title>tp_finalize</title>
<g id="a_node7"><a xlink:href="typeobj.html#c.PyTypeObject.tp_finalize" xlink:title="tp_finalize" target="_top">
<polygon fill="none" stroke="black" points="163.24,-235.54 163.24,-250.46 135.53,-261 96.35,-261 68.64,-250.46 68.64,-235.54 96.35,-225 135.53,-225 163.24,-235.54"/>
<text text-anchor="middle" x="115.94" y="-240.5" font-family="Courier,monospace" font-size="10.00">tp_finalize</text>
</a>
</g>
</g>
<!-- alive&#45;&gt;tp_finalize -->
<g id="edge8" class="edge">
<title>alive&#45;&gt;tp_finalize</title>
<path fill="none" stroke="black" d="M133.21,-309.95C112.7,-305.82 93.14,-299.94 86.94,-292 80.92,-284.29 82.95,-278.93 86.94,-270 88.54,-266.42 90.9,-263.13 93.6,-260.17"/>
<polygon fill="black" stroke="black" points="132.83,-313.44 143.3,-311.84 134.12,-306.56 132.83,-313.44"/>
<text text-anchor="start" x="86.94" y="-278.5" font-family="Times,serif" font-style="italic" font-size="10.00"> &#160;resurrected &#160;</text>
</g>
<!-- alive&#45;&gt;tp_finalize -->
<g id="edge9" class="edge">
<title>alive&#45;&gt;tp_finalize</title>
<path fill="none" stroke="black" d="M173.69,-300.59C164.58,-291.44 153.2,-280.07 142.94,-270 142.29,-269.36 141.63,-268.72 140.96,-268.06"/>
<polygon fill="black" stroke="black" points="143.32,-265.47 133.7,-261.01 138.44,-270.49 143.32,-265.47"/>
<text text-anchor="start" x="164.94" y="-284" font-family="Times,serif" font-style="italic" font-size="10.00"> &#160;cyclic &#160;&#160;&#160;</text>
<text text-anchor="start" x="165.44" y="-273" font-family="Times,serif" font-style="italic" font-size="10.00">isolate &#160;&#160;&#160;</text>
</g>
<!-- tp_clear -->
<g id="node8" class="node">
<title>tp_clear</title>
<g id="a_node8"><a xlink:href="typeobj.html#c.PyTypeObject.tp_clear" xlink:title="tp_clear" target="_top">
<polygon fill="none" stroke="black" points="255.62,-155.54 255.62,-170.46 233.55,-181 202.33,-181 180.25,-170.46 180.25,-155.54 202.33,-145 233.55,-145 255.62,-155.54"/>
<text text-anchor="middle" x="217.94" y="-160.5" font-family="Courier,monospace" font-size="10.00">tp_clear</text>
</a>
</g>
</g>
<!-- alive&#45;&gt;tp_clear -->
<g id="edge7" class="edge">
<title>alive&#45;&gt;tp_clear</title>
<path fill="none" stroke="black" d="M200.63,-300.72C201.92,-297.88 203.08,-294.9 203.94,-292 213.87,-258.26 216.88,-217.65 217.73,-191.35"/>
<polygon fill="black" stroke="black" points="221.23,-191.44 217.97,-181.36 214.23,-191.27 221.23,-191.44"/>
<text text-anchor="start" x="214.94" y="-246" font-family="Times,serif" font-style="italic" font-size="10.00"> &#160;cyclic &#160;&#160;&#160;</text>
<text text-anchor="start" x="215.44" y="-235" font-family="Times,serif" font-style="italic" font-size="10.00">isolate &#160;&#160;&#160;</text>
</g>
<!-- tp_dealloc -->
<g id="node9" class="node">
<title>tp_dealloc</title>
<g id="a_node9"><a xlink:href="typeobj.html#c.PyTypeObject.tp_dealloc" xlink:title="tp_dealloc" target="_top">
<ellipse fill="none" stroke="black" cx="148.94" cy="-83" rx="40.74" ry="18"/>
<text text-anchor="middle" x="148.94" y="-80.5" font-family="Courier,monospace" font-size="10.00">tp_dealloc</text>
</a>
</g>
</g>
<!-- alive&#45;&gt;tp_dealloc -->
<g id="edge15" class="edge">
<title>alive&#45;&gt;tp_dealloc</title>
<path fill="none" stroke="black" d="M219.22,-300.95C232.99,-291.08 248.38,-277.37 256.94,-261 281.7,-213.63 270.04,-194.21 264.94,-141 263.6,-127.03 268.66,-120.12 258.94,-110 250.27,-100.97 222.93,-94.48 197.67,-90.25"/>
<polygon fill="black" stroke="black" points="198.2,-86.79 187.78,-88.68 197.1,-93.7 198.2,-86.79"/>
<text text-anchor="start" x="271.94" y="-208" font-family="Times,serif" font-style="italic" font-size="10.00"> &#160;ref count &#160;</text>
<text text-anchor="start" x="279.44" y="-197" font-family="Times,serif" font-style="italic" font-size="10.00"> &#160;== 0 &#160;</text>
</g>
<!-- tp_traverse&#45;&gt;alive -->
<g id="edge5" class="edge">
<title>tp_traverse&#45;&gt;alive</title>
<path fill="none" stroke="black" d="M283.02,-307.84C271.59,-305.86 260.15,-305.14 248.72,-305.67"/>
<polygon fill="black" stroke="black" points="248.37,-302.18 238.67,-306.45 248.92,-309.16 248.37,-302.18"/>
</g>
<!-- tp_finalize&#45;&gt;tp_clear -->
<g id="edge10" class="edge">
<title>tp_finalize&#45;&gt;tp_clear</title>
<path fill="none" stroke="black" d="M137.57,-225.46C152.81,-213.81 173.35,-198.09 189.86,-185.48"/>
<polygon fill="black" stroke="black" points="192.25,-188.05 198.07,-179.2 188,-182.49 192.25,-188.05"/>
</g>
<!-- tp_finalize&#45;&gt;tp_dealloc -->
<g id="edge11" class="edge">
<title>tp_finalize&#45;&gt;tp_dealloc</title>
<g id="a_edge11"><a xlink:href="lifecycle.html#c.PyObject_CallFinalizerFromDealloc" xlink:title="&lt;TABLE&gt;" target="_top">
<path fill="none" stroke="black" d="M66.9,-228.85C44.83,-220.22 20.86,-206.43 7.94,-185 -2.16,-168.25 -2.99,-157.21 7.94,-141 30.53,-107.51 76.48,-93.69 109.8,-87.99"/>
<polygon fill="black" stroke="black" points="65.95,-232.23 76.54,-232.35 68.34,-225.65 65.95,-232.23"/>
</a>
</g>
<g id="a_edge11&#45;label"><a xlink:href="lifecycle.html#c.PyObject_CallFinalizerFromDealloc" xlink:title="&lt;TABLE&gt;" target="_top">
<text text-anchor="start" x="7.94" y="-160.5" font-family="Times,serif" font-style="italic" font-size="10.00"> </text>
<text text-anchor="start" x="10.94" y="-177" font-family="Times,serif" font-style="italic" font-size="10.00">optional call to</text>
<text text-anchor="start" x="79.94" y="-160.5" font-family="Times,serif" font-style="italic" font-size="10.00"> &#160;&#160;&#160;&#160;&#160;</text>
<text text-anchor="start" x="10.94" y="-166" font-family="Courier,monospace" font-size="10.00">PyObject_Call</text>
<text text-anchor="start" x="10.94" y="-155" font-family="Courier,monospace" font-size="10.00">FinalizerFrom</text>
<text text-anchor="start" x="10.94" y="-144" font-family="Courier,monospace" font-size="10.00">Dealloc</text>
</a>
</g>
</g>
<!-- tp_finalize&#45;&gt;tp_dealloc -->
<g id="edge12" class="edge">
<title>tp_finalize&#45;&gt;tp_dealloc</title>
<path fill="none" stroke="black" d="M115.86,-224.94C116.14,-204.64 117.76,-169.87 124.94,-141 127.52,-130.64 131.71,-119.72 135.88,-110.25"/>
<polygon fill="black" stroke="black" points="139.15,-111.53 140.15,-100.98 132.79,-108.6 139.15,-111.53"/>
<text text-anchor="start" x="124.94" y="-166" font-family="Times,serif" font-style="italic" font-size="10.00"> &#160;ref count &#160;</text>
<text text-anchor="start" x="132.44" y="-155" font-family="Times,serif" font-style="italic" font-size="10.00"> &#160;== 0 &#160;</text>
</g>
<!-- tp_clear&#45;&gt;tp_dealloc -->
<g id="edge13" class="edge">
<title>tp_clear&#45;&gt;tp_dealloc</title>
<path fill="none" stroke="black" d="M190.25,-150.58C171.99,-142.93 151.21,-133.91 149.94,-132 145.96,-126.04 144.54,-118.66 144.42,-111.5"/>
<polygon fill="black" stroke="black" points="147.92,-111.53 145,-101.34 140.93,-111.12 147.92,-111.53"/>
<text text-anchor="start" x="149.94" y="-124" font-family="Times,serif" font-style="italic" font-size="10.00"> &#160;ref count &#160;</text>
<text text-anchor="start" x="157.44" y="-113" font-family="Times,serif" font-style="italic" font-size="10.00"> &#160;== 0 &#160;</text>
</g>
<!-- tp_clear&#45;&gt;tp_dealloc -->
<g id="edge14" class="edge">
<title>tp_clear&#45;&gt;tp_dealloc</title>
<path fill="none" stroke="black" d="M210.57,-135.4C207.17,-126.59 202.42,-117.2 195.94,-110 190.82,-104.32 184.16,-99.61 177.47,-95.83"/>
<polygon fill="black" stroke="black" points="207.3,-136.64 213.85,-144.97 213.92,-134.37 207.3,-136.64"/>
<text text-anchor="start" x="211.44" y="-124" font-family="Times,serif" font-style="italic" font-size="10.00"> &#160;optional</text>
<text text-anchor="start" x="207.94" y="-113" font-family="Times,serif" font-style="italic" font-size="10.00">direct call &#160;</text>
</g>
<!-- tp_free -->
<g id="node10" class="node">
<title>tp_free</title>
<g id="a_node10"><a xlink:href="typeobj.html#c.PyTypeObject.tp_free" xlink:title="tp_free" target="_top">
<ellipse fill="none" stroke="black" cx="148.94" cy="-18" rx="31.4" ry="18"/>
<text text-anchor="middle" x="148.94" y="-15.5" font-family="Courier,monospace" font-size="10.00">tp_free</text>
</a>
</g>
</g>
<!-- tp_dealloc&#45;&gt;tp_free -->
<g id="edge16" class="edge">
<title>tp_dealloc&#45;&gt;tp_free</title>
<path fill="none" stroke="black" d="M148.94,-64.78C148.94,-59.09 148.94,-52.61 148.94,-46.34"/>
<polygon fill="black" stroke="black" points="152.44,-46.19 148.94,-36.19 145.44,-46.19 152.44,-46.19"/>
<text text-anchor="start" x="148.94" y="-48" font-family="Times,serif" font-style="italic" font-size="10.00"> &#160;directly calls &#160;</text>
</g>
</g>
</svg>
