<?xml version="1.0" encoding="UTF-8" standalone="no"?>
<?xml-stylesheet href="lifecycle.dot.css" type="text/css"?>
<!DOCTYPE svg PUBLIC "-//W3C//DTD SVG 1.1//EN"
 "http://www.w3.org/Graphics/SVG/1.1/DTD/svg11.dtd">
<!-- Generated by graphviz version 2.43.0 (0)
 -->
<!-- Title: Life Events Pages: 1 -->
<svg width="393pt" height="765pt"
 viewBox="0.00 0.00 392.63 765.00" xmlns="http://www.w3.org/2000/svg" xmlns:xlink="http://www.w3.org/1999/xlink">
<g id="life_events_graph" class="graph" transform="scale(1 1) rotate(0) translate(4 761)">
<title>Life Events</title>
<polygon fill="white" stroke="transparent" points="-4,4 -4,-761 388.63,-761 388.63,4 -4,4"/>
<!-- start -->
<!-- tp_new -->
<g id="life_events_graph_node2" class="node">
<title>tp_new</title>
<g id="a_life_events_graph_node2"><a xlink:href="typeobj.html#c.PyTypeObject.tp_new" xlink:title="tp_new" target="_top">
<ellipse fill="none" stroke="black" cx="181.63" cy="-695" rx="32.75" ry="18"/>
<text text-anchor="middle" x="181.63" y="-691.9" font-family="Courier,monospace" font-size="12.00">tp_new</text>
</a>
</g>
</g>
<!-- start&#45;&gt;tp_new -->
<g id="life_events_graph_edge1" class="edge">
<title>start&#45;&gt;tp_new</title>
<path fill="none" stroke="black" d="M181.63,-743.77C181.63,-738.75 181.63,-731.06 181.63,-723.3"/>
<polygon fill="black" stroke="black" points="185.13,-723.29 181.63,-713.29 178.13,-723.29 185.13,-723.29"/>
<text text-anchor="start" x="181.63" y="-725.4" font-family="Times,serif" font-style="italic" font-size="12.00"> &#160;&#160;&#160;type call &#160;</text>
</g>
<!-- tp_alloc -->
<g id="life_events_graph_node3" class="node">
<title>tp_alloc</title>
<g id="a_life_events_graph_node3"><a xlink:href="typeobj.html#c.PyTypeObject.tp_alloc" xlink:title="tp_alloc" target="_top">
<ellipse fill="none" stroke="black" cx="331.63" cy="-695" rx="40.03" ry="18"/>
<text text-anchor="middle" x="331.63" y="-691.9" font-family="Courier,monospace" font-size="12.00">tp_alloc</text>
</a>
</g>
</g>
<!-- tp_new&#45;&gt;tp_alloc -->
<g id="life_events_graph_edge2" class="edge">
<title>tp_new&#45;&gt;tp_alloc</title>
<path fill="none" stroke="black" d="M214.55,-695C234.13,-695 259.37,-695 281.39,-695"/>
<polygon fill="none" stroke="black" points="281.58,-698.5 291.58,-695 281.58,-691.5 281.58,-698.5"/>
<text text-anchor="start" x="222.94" y="-701.4" font-family="Times,serif" font-style="italic" font-size="12.00"> &#160;direct call &#160;</text>
</g>
<!-- tp_init -->
<g id="life_events_graph_node4" class="node">
<title>tp_init</title>
<g id="a_life_events_graph_node4"><a xlink:href="typeobj.html#c.PyTypeObject.tp_init" xlink:title="tp_init" target="_top">
<ellipse fill="none" stroke="black" cx="181.63" cy="-640" rx="36.14" ry="18"/>
<text text-anchor="middle" x="181.63" y="-636.9" font-family="Courier,monospace" font-size="12.00">tp_init</text>
</a>
</g>
</g>
<!-- tp_new&#45;&gt;tp_init -->
<g id="life_events_graph_edge3" class="edge">
<title>tp_new&#45;&gt;tp_init</title>
<path fill="none" stroke="black" d="M181.63,-676.94C181.63,-674.1 181.63,-671.1 181.63,-668.09"/>
<polygon fill="black" stroke="black" points="185.13,-668.03 181.63,-658.03 178.13,-668.03 185.13,-668.03"/>
</g>
<!-- reachable -->
<g id="life_events_graph_node5" class="node">
<title>reachable</title>
<polygon fill="none" stroke="black" points="213.63,-603 149.63,-603 149.63,-567 213.63,-567 213.63,-603"/>
<text text-anchor="middle" x="181.63" y="-581.9" font-family="Times,serif" font-style="italic" font-size="12.00">reachable</text>
</g>
<!-- tp_init&#45;&gt;reachable -->
<g id="life_events_graph_edge4" class="edge">
<title>tp_init&#45;&gt;reachable</title>
<path fill="none" stroke="black" d="M175.3,-622.23C175.04,-619.39 174.9,-616.37 174.88,-613.34"/>
<polygon fill="black" stroke="black" points="178.39,-613.33 175.26,-603.21 171.39,-613.07 178.39,-613.33"/>
</g>
<!-- reachable&#45;&gt;tp_init -->
<g id="life_events_graph_edge6" class="edge">
<title>reachable&#45;&gt;tp_init</title>
<path fill="none" stroke="black" d="M188,-603.21C188.24,-606.07 188.37,-609.09 188.38,-612.13"/>
<polygon fill="black" stroke="black" points="184.88,-612.09 187.96,-622.23 191.87,-612.38 184.88,-612.09"/>
</g>
<!-- tp_traverse -->
<g id="life_events_graph_node6" class="node">
<title>tp_traverse</title>
<g id="a_life_events_graph_node6"><a xlink:href="typeobj.html#c.PyTypeObject.tp_traverse" xlink:title="tp_traverse" target="_top">
<ellipse fill="none" stroke="black" cx="181.63" cy="-492" rx="51.19" ry="18"/>
<text text-anchor="middle" x="181.63" y="-488.9" font-family="Courier,monospace" font-size="12.00">tp_traverse</text>
</a>
</g>
</g>
<!-- reachable&#45;&gt;tp_traverse -->
<g id="life_events_graph_edge5" class="edge">
<title>reachable&#45;&gt;tp_traverse</title>
<path fill="none" stroke="black" d="M181.63,-566.88C181.63,-553.79 181.63,-535.48 181.63,-520.36"/>
<polygon fill="black" stroke="black" points="185.13,-520.04 181.63,-510.04 178.13,-520.04 185.13,-520.04"/>
<text text-anchor="start" x="193.63" y="-548.4" font-family="Times,serif" font-style="italic" font-size="12.00"> &#160;periodic &#160;</text>
<text text-anchor="start" x="181.63" y="-535.4" font-family="Times,serif" font-style="italic" font-size="12.00"> &#160;cyclic isolate &#160;&#160;</text>
<text text-anchor="start" x="192.13" y="-522.4" font-family="Times,serif" font-style="italic" font-size="12.00"> &#160;detection &#160;</text>
</g>
<!-- finalized -->
<g id="life_events_graph_node7" class="node">
<title>finalized</title>
<polygon fill="none" stroke="black" points="202.63,-430 136.63,-396 202.63,-362 268.63,-396 202.63,-430"/>
<text text-anchor="start" x="177.63" y="-399.4" font-family="Times,serif" font-style="italic" font-size="12.00">marked as</text>
<text text-anchor="start" x="179.63" y="-386.4" font-family="Times,serif" font-style="italic" font-size="12.00">finalized?</text>
</g>
<!-- reachable&#45;&gt;finalized -->
<g id="life_events_graph_edge10" class="edge">
<title>reachable&#45;&gt;finalized</title>
<path fill="none" stroke="black" d="M213.8,-581.73C230.04,-578.76 248.43,-572.21 258.63,-558 275.24,-534.86 247.75,-452.73 240.63,-439 238.37,-434.65 235.55,-430.39 232.47,-426.37"/>
<polygon fill="black" stroke="black" points="234.98,-423.91 225.89,-418.47 229.6,-428.39 234.98,-423.91"/>
<text text-anchor="start" x="260.63" y="-488.9" font-family="Times,serif" font-style="italic" font-size="12.00"> &#160;no refs &#160;</text>
</g>
<!-- tp_finalize -->
<g id="life_events_graph_node8" class="node">
<title>tp_finalize</title>
<g id="a_life_events_graph_node8"><a xlink:href="typeobj.html#c.PyTypeObject.tp_finalize" xlink:title="tp_finalize" target="_top">
<ellipse fill="none" stroke="black" cx="102.63" cy="-313" rx="51.19" ry="18"/>
<text text-anchor="middle" x="102.63" y="-309.9" font-family="Courier,monospace" font-size="12.00">tp_finalize</text>
</a>
</g>
</g>
<!-- reachable&#45;&gt;tp_finalize -->
<g id="life_events_graph_edge7" class="edge">
<title>reachable&#45;&gt;tp_finalize</title>
<path fill="none" stroke="black" d="M139.09,-582.06C122.16,-578.93 104.21,-572.16 93.63,-558 41.61,-488.39 78.68,-373.8 95.51,-330.91"/>
<polygon fill="black" stroke="black" points="139.03,-585.58 149.43,-583.56 140.04,-578.66 139.03,-585.58"/>
<text text-anchor="start" x="68.63" y="-448.9" font-family="Times,serif" font-style="italic" font-size="12.00"> &#160;resurrected &#160;</text>
</g>
<!-- tp_dealloc -->
<g id="life_events_graph_node11" class="node">
<title>tp_dealloc</title>
<g id="a_life_events_graph_node11"><a xlink:href="typeobj.html#c.PyTypeObject.tp_dealloc" xlink:title="tp_dealloc" target="_top">
<ellipse fill="none" stroke="black" cx="165.63" cy="-85" rx="47.3" ry="18"/>
<text text-anchor="middle" x="165.63" y="-81.9" font-family="Courier,monospace" font-size="12.00">tp_dealloc</text>
</a>
</g>
</g>
<!-- reachable&#45;&gt;tp_dealloc -->
<g id="life_events_graph_edge19" class="edge">
<title>reachable&#45;&gt;tp_dealloc</title>
<path fill="none" stroke="black" d="M213.64,-580.61C261.37,-573.6 345.63,-552.75 345.63,-493 345.63,-493 345.63,-493 345.63,-139 345.63,-112.68 273.92,-98.47 221.02,-91.57"/>
<polygon fill="black" stroke="black" points="221.41,-88.09 211.05,-90.33 220.54,-95.04 221.41,-88.09"/>
<text text-anchor="start" x="345.63" y="-309.9" font-family="Times,serif" font-style="italic" font-size="12.00"> &#160;no refs</text>
</g>
<!-- tp_traverse&#45;&gt;reachable -->
<g id="life_events_graph_edge8" class="edge">
<title>tp_traverse&#45;&gt;reachable</title>
<path fill="none" stroke="black" d="M134.22,-499.13C122.72,-502.97 111.71,-509.14 104.63,-519 94.52,-533.08 94.52,-543.92 104.63,-558 112.76,-569.33 126.09,-575.78 139.39,-579.44"/>
<polygon fill="black" stroke="black" points="138.94,-582.93 149.46,-581.73 140.49,-576.1 138.94,-582.93"/>
<text text-anchor="start" x="116.63" y="-541.9" font-family="Times,serif" font-style="italic" font-size="12.00"> &#160;not in a &#160;</text>
<text text-anchor="start" x="104.63" y="-528.9" font-family="Times,serif" font-style="italic" font-size="12.00"> &#160;cyclic isolate &#160;</text>
</g>
<!-- tp_traverse&#45;&gt;finalized -->
<g id="life_events_graph_edge9" class="edge">
<title>tp_traverse&#45;&gt;finalized</title>
<path fill="none" stroke="black" d="M185.48,-473.76C187.8,-463.39 190.85,-449.73 193.74,-436.82"/>
<polygon fill="black" stroke="black" points="197.23,-437.22 196,-426.69 190.4,-435.69 197.23,-437.22"/>
<text text-anchor="start" x="195.13" y="-455.4" font-family="Times,serif" font-style="italic" font-size="12.00"> &#160;cyclic &#160;</text>
<text text-anchor="start" x="193.63" y="-442.4" font-family="Times,serif" font-style="italic" font-size="12.00"> &#160;isolate &#160;</text>
</g>
<!-- finalized&#45;&gt;tp_finalize -->
<g id="life_events_graph_edge11" class="edge">
<title>finalized&#45;&gt;tp_finalize</title>
<path fill="none" stroke="black" d="M177.65,-374.77C163.21,-363.07 145,-348.32 130.14,-336.29"/>
<polygon fill="black" stroke="black" points="132.25,-333.49 122.28,-329.92 127.85,-338.93 132.25,-333.49"/>
<text text-anchor="start" x="150.63" y="-343.4" font-family="Times,serif" font-style="italic" font-size="12.00"> &#160;no &#160;</text>
</g>
<!-- tp_clear -->
<g id="life_events_graph_node9" class="node">
<title>tp_clear</title>
<g id="a_life_events_graph_node9"><a xlink:href="typeobj.html#c.PyTypeObject.tp_clear" xlink:title="tp_clear" target="_top">
<ellipse fill="none" stroke="black" cx="203.63" cy="-233" rx="40.03" ry="18"/>
<text text-anchor="middle" x="203.63" y="-229.9" font-family="Courier,monospace" font-size="12.00">tp_clear</text>
</a>
</g>
</g>
<!-- finalized&#45;&gt;tp_clear -->
<g id="life_events_graph_edge12" class="edge">
<title>finalized&#45;&gt;tp_clear</title>
<path fill="none" stroke="black" d="M207.12,-364.08C210.17,-338.75 213.18,-301.74 209.25,-261.09"/>
<polygon fill="black" stroke="black" points="212.7,-260.52 208.13,-250.97 205.75,-261.29 212.7,-260.52"/>
<text text-anchor="start" x="211.63" y="-309.9" font-family="Times,serif" font-style="italic" font-size="12.00"> &#160;yes &#160;</text>
</g>
<!-- tp_finalize&#45;&gt;tp_clear -->
<g id="life_events_graph_edge13" class="edge">
<title>tp_finalize&#45;&gt;tp_clear</title>
<path fill="none" stroke="black" d="M110.27,-295.01C116.09,-283.75 125.06,-269.37 136.63,-260 143.53,-254.41 151.78,-249.91 160.09,-246.34"/>
<polygon fill="black" stroke="black" points="161.39,-249.59 169.43,-242.69 158.84,-243.07 161.39,-249.59"/>
<text text-anchor="start" x="142.63" y="-276.4" font-family="Times,serif" font-style="italic" font-size="12.00"> &#160;no refs or &#160;&#160;</text>
<text text-anchor="start" x="136.63" y="-263.4" font-family="Times,serif" font-style="italic" font-size="12.00"> &#160;cyclic isolate &#160;</text>
</g>
<!-- tp_finalize&#45;&gt;tp_dealloc -->
<g id="life_events_graph_edge14" class="edge">
<title>tp_finalize&#45;&gt;tp_dealloc</title>
<g id="a_life_events_graph_edge14"><a xlink:href="lifecycle.html#c.PyObject_CallFinalizerFromDealloc" xlink:title=" &#160;recommended&lt;br/&gt; &#160;call (see&lt;br/&gt; &#160;explanation)" target="_top">
<path fill="none" stroke="black" stroke-dasharray="5,2" d="M70.93,-290.53C34.33,-262.9 -17.9,-212.99 6.63,-167 29.67,-123.81 84.83,-103.08 123.69,-93.54"/>
<polygon fill="none" stroke="black" points="69.25,-293.64 79.39,-296.73 73.39,-287.99 69.25,-293.64"/>
</a>
</g>
<g id="a_life_events_graph_edge14&#45;label"><a xlink:href="lifecycle.html#c.PyObject_CallFinalizerFromDealloc" xlink:title=" &#160;recommended&lt;br/&gt; &#160;call (see&lt;br/&gt; &#160;explanation)" target="_top">
<text text-anchor="start" x="6.63" y="-196.4" font-family="Times,serif" font-style="italic" font-size="12.00"> &#160;recommended</text>
<text text-anchor="start" x="20.63" y="-183.4" font-family="Times,serif" font-style="italic" font-size="12.00"> &#160;call (see</text>
<text text-anchor="start" x="10.63" y="-170.4" font-family="Times,serif" font-style="italic" font-size="12.00"> &#160;explanation)</text>
</a>
</g>
</g>
<!-- tp_finalize&#45;&gt;tp_dealloc -->
<g id="life_events_graph_edge15" class="edge">
<title>tp_finalize&#45;&gt;tp_dealloc</title>
<path fill="none" stroke="black" d="M103.69,-294.65C105.75,-267.05 111.41,-211.69 125.63,-167 131.77,-147.69 141.9,-127.24 150.43,-111.72"/>
<polygon fill="black" stroke="black" points="153.63,-113.18 155.48,-102.75 147.53,-109.75 153.63,-113.18"/>
<text text-anchor="start" x="125.63" y="-183.4" font-family="Times,serif" font-style="italic" font-size="12.00"> &#160;&#160;no refs &#160;</text>
</g>
<!-- uncollectable -->
<g id="life_events_graph_node10" class="node">
<title>uncollectable</title>
<polygon fill="none" stroke="black" points="308.63,-158 228.63,-158 228.63,-122 308.63,-122 308.63,-158"/>
<text text-anchor="start" x="236.63" y="-143.4" font-family="Times,serif" font-style="italic" font-size="12.00">uncollectable</text>
<text text-anchor="start" x="249.13" y="-130.4" font-family="Times,serif" font-style="italic" font-size="12.00">(leaked)</text>
</g>
<!-- tp_clear&#45;&gt;uncollectable -->
<g id="life_events_graph_edge17" class="edge">
<title>tp_clear&#45;&gt;uncollectable</title>
<path fill="none" stroke="black" d="M215.25,-215.73C225.05,-202.01 239.24,-182.15 250.52,-166.35"/>
<polygon fill="black" stroke="black" points="253.48,-168.23 256.45,-158.05 247.79,-164.16 253.48,-168.23"/>
<text text-anchor="start" x="250.13" y="-189.9" font-family="Times,serif" font-style="italic" font-size="12.00"> &#160;cyclic &#160;</text>
<text text-anchor="start" x="248.63" y="-176.9" font-family="Times,serif" font-style="italic" font-size="12.00"> &#160;isolate &#160;</text>
</g>
<!-- tp_clear&#45;&gt;tp_dealloc -->
<g id="life_events_graph_edge16" class="edge">
<title>tp_clear&#45;&gt;tp_dealloc</title>
<path fill="none" stroke="black" d="M195.72,-215.35C189.05,-200.6 179.8,-178.33 174.63,-158 170.93,-143.45 168.73,-126.85 167.43,-113.26"/>
<polygon fill="black" stroke="black" points="170.9,-112.77 166.57,-103.1 163.92,-113.36 170.9,-112.77"/>
<text text-anchor="start" x="174.63" y="-136.9" font-family="Times,serif" font-style="italic" font-size="12.00"> &#160;no refs &#160;</text>
</g>
<!-- uncollectable&#45;&gt;tp_dealloc -->
<!-- tp_free -->
<g id="life_events_graph_node12" class="node">
<title>tp_free</title>
<g id="a_life_events_graph_node12"><a xlink:href="typeobj.html#c.PyTypeObject.tp_free" xlink:title="tp_free" target="_top">
<ellipse fill="none" stroke="black" cx="165.63" cy="-18" rx="36.14" ry="18"/>
<text text-anchor="middle" x="165.63" y="-14.9" font-family="Courier,monospace" font-size="12.00">tp_free</text>
</a>
</g>
</g>
<!-- tp_dealloc&#45;&gt;tp_free -->
<g id="life_events_graph_edge20" class="edge">
<title>tp_dealloc&#45;&gt;tp_free</title>
<path fill="none" stroke="black" d="M165.63,-66.92C165.63,-60.7 165.63,-53.5 165.63,-46.6"/>
<polygon fill="none" stroke="black" points="169.13,-46.19 165.63,-36.19 162.13,-46.19 169.13,-46.19"/>
<text text-anchor="start" x="165.63" y="-48.4" font-family="Times,serif" font-style="italic" font-size="12.00"> &#160;&#160;&#160;direct call &#160;</text>
</g>
</g>
</svg>
