<?xml version="1.0" encoding="UTF-8" standalone="no"?>
<!DOCTYPE svg PUBLIC "-//W3C//DTD SVG 1.1//EN"
 "http://www.w3.org/Graphics/SVG/1.1/DTD/svg11.dtd">
<!-- Generated by graphviz version 2.43.0 (0)
 -->
<!-- Title: G Pages: 1 -->
<svg width="327pt" height="588pt"
 viewBox="0.00 0.00 326.94 588.00" xmlns="http://www.w3.org/2000/svg" xmlns:xlink="http://www.w3.org/1999/xlink">
<g id="graph0" class="graph" transform="scale(1 1) rotate(0) translate(4 584)">
<title>G</title>
<polygon fill="white" stroke="transparent" points="-4,4 -4,-584 322.94,-584 322.94,4 -4,4"/>
<!-- start -->
<!-- tp_alloc -->
<g id="node2" class="node">
<title>tp_alloc</title>
<g id="a_node2"><a xlink:href="typeobj.html#c.PyTypeObject.tp_alloc" xlink:title="tp_alloc" target="_top">
<ellipse fill="none" stroke="black" cx="141.79" cy="-532" rx="34.96" ry="18"/>
<text text-anchor="middle" x="141.79" y="-529.5" font-family="Courier,monospace" font-size="10.00">tp_alloc</text>
</a>
</g>
</g>
<!-- start&#45;&gt;tp_alloc -->
<g id="edge1" class="edge">
<title>start&#45;&gt;tp_alloc</title>
<path fill="none" stroke="black" d="M141.79,-568.85C141.79,-566.57 141.79,-563.61 141.79,-560.37"/>
<polygon fill="black" stroke="black" points="145.29,-560.22 141.79,-550.22 138.29,-560.22 145.29,-560.22"/>
</g>
<!-- tp_new -->
<g id="node3" class="node">
<title>tp_new</title>
<g id="a_node3"><a xlink:href="typeobj.html#c.PyTypeObject.tp_new" xlink:title="tp_new" target="_top">
<ellipse fill="none" stroke="black" cx="141.79" cy="-477" rx="28.01" ry="18"/>
<text text-anchor="middle" x="141.79" y="-474.5" font-family="Courier,monospace" font-size="10.00">tp_new</text>
</a>
</g>
</g>
<!-- tp_alloc&#45;&gt;tp_new -->
<g id="edge2" class="edge">
<title>tp_alloc&#45;&gt;tp_new</title>
<path fill="none" stroke="black" d="M141.79,-513.94C141.79,-511.1 141.79,-508.1 141.79,-505.09"/>
<polygon fill="black" stroke="black" points="145.29,-505.03 141.79,-495.03 138.29,-505.03 145.29,-505.03"/>
</g>
<!-- tp_init -->
<g id="node4" class="node">
<title>tp_init</title>
<g id="a_node4"><a xlink:href="typeobj.html#c.PyTypeObject.tp_init" xlink:title="tp_init" target="_top">
<ellipse fill="none" stroke="black" cx="141.79" cy="-422" rx="31.4" ry="18"/>
<text text-anchor="middle" x="141.79" y="-419.5" font-family="Courier,monospace" font-size="10.00">tp_init</text>
</a>
</g>
</g>
<!-- tp_new&#45;&gt;tp_init -->
<g id="edge3" class="edge">
<title>tp_new&#45;&gt;tp_init</title>
<path fill="none" stroke="black" d="M141.79,-458.94C141.79,-456.1 141.79,-453.1 141.79,-450.09"/>
<polygon fill="black" stroke="black" points="145.29,-450.03 141.79,-440.03 138.29,-450.03 145.29,-450.03"/>
</g>
<!-- alive -->
<g id="node5" class="node">
<title>alive</title>
<polygon fill="none" stroke="black" points="189.29,-385 94.29,-385 94.29,-349 189.29,-349 189.29,-385"/>
<text text-anchor="start" x="102.29" y="-364.5" font-family="Times,serif" font-style="italic" font-size="10.00">alive, ref count &gt; 0</text>
</g>
<!-- tp_init&#45;&gt;alive -->
<g id="edge4" class="edge">
<title>tp_init&#45;&gt;alive</title>
<path fill="none" stroke="black" d="M141.79,-403.94C141.79,-401.1 141.79,-398.1 141.79,-395.09"/>
<polygon fill="black" stroke="black" points="145.29,-395.03 141.79,-385.03 138.29,-395.03 145.29,-395.03"/>
</g>
<!-- tp_traverse -->
<g id="node6" class="node">
<title>tp_traverse</title>
<g id="a_node6"><a xlink:href="typeobj.html#c.PyTypeObject.tp_traverse" xlink:title="tp_traverse" target="_top">
<polygon fill="none" stroke="black" points="319.09,-359.54 319.09,-374.46 291.38,-385 252.2,-385 224.49,-374.46 224.49,-359.54 252.2,-349 291.38,-349 319.09,-359.54"/>
<text text-anchor="middle" x="271.79" y="-364.5" font-family="Courier,monospace" font-size="10.00">tp_traverse</text>
</a>
</g>
</g>
<!-- alive&#45;&gt;tp_traverse -->
<g id="edge6" class="edge">
<title>alive&#45;&gt;tp_traverse</title>
<path fill="none" stroke="black" d="M189.52,-379.55C200.96,-380.81 212.39,-380.82 223.82,-379.57"/>
<polygon fill="black" stroke="black" points="224.46,-383.02 233.87,-378.16 223.48,-376.09 224.46,-383.02"/>
</g>
<!-- tp_finalize -->
<g id="node7" class="node">
<title>tp_finalize</title>
<g id="a_node7"><a xlink:href="typeobj.html#c.PyTypeObject.tp_finalize" xlink:title="tp_finalize" target="_top">
<polygon fill="none" stroke="black" points="133.09,-283.54 133.09,-298.46 105.38,-309 66.2,-309 38.49,-298.46 38.49,-283.54 66.2,-273 105.38,-273 133.09,-283.54"/>
<text text-anchor="middle" x="85.79" y="-288.5" font-family="Courier,monospace" font-size="10.00">tp_finalize</text>
</a>
</g>
</g>
<!-- alive&#45;&gt;tp_finalize -->
<g id="edge8" class="edge">
<title>alive&#45;&gt;tp_finalize</title>
<path fill="none" stroke="black" d="M84.06,-357.95C63.55,-353.82 43.99,-347.94 37.79,-340 31.77,-332.29 32.79,-326.4 37.79,-318 41.28,-312.14 46.61,-307.52 52.46,-303.9"/>
<polygon fill="black" stroke="black" points="83.68,-361.44 94.15,-359.84 84.97,-354.56 83.68,-361.44"/>
<text text-anchor="start" x="37.79" y="-326.5" font-family="Times,serif" font-style="italic" font-size="10.00"> &#160;resurrected &#160;</text>
</g>
<!-- alive&#45;&gt;tp_finalize -->
<g id="edge9" class="edge">
<title>alive&#45;&gt;tp_finalize</title>
<path fill="none" stroke="black" d="M124.37,-348.8C121.73,-345.94 119.12,-342.95 116.79,-340 111.42,-333.22 106.11,-325.49 101.45,-318.24"/>
<polygon fill="black" stroke="black" points="104.2,-316.05 95.93,-309.43 98.27,-319.76 104.2,-316.05"/>
<text text-anchor="start" x="116.79" y="-332" font-family="Times,serif" font-style="italic" font-size="10.00"> &#160;cyclic &#160;&#160;&#160;</text>
<text text-anchor="start" x="117.29" y="-321" font-family="Times,serif" font-style="italic" font-size="10.00">isolate &#160;&#160;&#160;</text>
</g>
<!-- tp_clear -->
<g id="node8" class="node">
<title>tp_clear</title>
<g id="a_node8"><a xlink:href="typeobj.html#c.PyTypeObject.tp_clear" xlink:title="tp_clear" target="_top">
<polygon fill="none" stroke="black" points="206.48,-228.54 206.48,-243.46 184.4,-254 153.18,-254 131.1,-243.46 131.1,-228.54 153.18,-218 184.4,-218 206.48,-228.54"/>
<text text-anchor="middle" x="168.79" y="-233.5" font-family="Courier,monospace" font-size="10.00">tp_clear</text>
</a>
</g>
</g>
<!-- alive&#45;&gt;tp_clear -->
<g id="edge7" class="edge">
<title>alive&#45;&gt;tp_clear</title>
<path fill="none" stroke="black" d="M151.28,-348.99C152.63,-346.06 153.87,-342.99 154.79,-340 162.49,-315.04 165.96,-285.37 167.52,-264.3"/>
<polygon fill="black" stroke="black" points="171.03,-264.34 168.17,-254.14 164.04,-263.89 171.03,-264.34"/>
<text text-anchor="start" x="166.79" y="-294" font-family="Times,serif" font-style="italic" font-size="10.00"> &#160;cyclic &#160;&#160;&#160;</text>
<text text-anchor="start" x="167.29" y="-283" font-family="Times,serif" font-style="italic" font-size="10.00">isolate &#160;&#160;&#160;</text>
</g>
<!-- ref0 -->
<g id="node9" class="node">
<title>ref0</title>
<polygon fill="none" stroke="black" points="141.29,-156 64.29,-156 64.29,-120 141.29,-120 141.29,-156"/>
<text text-anchor="start" x="72.29" y="-135.5" font-family="Times,serif" font-style="italic" font-size="10.00">ref count == 0</text>
</g>
<!-- alive&#45;&gt;ref0 -->
<g id="edge14" class="edge">
<title>alive&#45;&gt;ref0</title>
<path fill="none" stroke="black" d="M170.35,-348.96C184.29,-339.1 199.92,-325.38 208.79,-309 228.1,-273.33 233.33,-254.58 215.79,-218 199.52,-184.08 181.03,-185.96 149.79,-165 147.93,-163.75 146.01,-162.51 144.06,-161.29"/>
<polygon fill="black" stroke="black" points="145.71,-158.2 135.33,-156.05 142.1,-164.2 145.71,-158.2"/>
</g>
<!-- tp_traverse&#45;&gt;alive -->
<g id="edge5" class="edge">
<title>tp_traverse&#45;&gt;alive</title>
<path fill="none" stroke="black" d="M233.87,-355.84C222.44,-353.86 211,-353.14 199.57,-353.67"/>
<polygon fill="black" stroke="black" points="199.22,-350.18 189.52,-354.45 199.77,-357.16 199.22,-350.18"/>
</g>
<!-- tp_finalize&#45;&gt;tp_clear -->
<g id="edge10" class="edge">
<title>tp_finalize&#45;&gt;tp_clear</title>
<path fill="none" stroke="black" d="M109.8,-274.67C118.65,-269.02 128.8,-262.53 138.16,-256.56"/>
<polygon fill="black" stroke="black" points="140.28,-259.36 146.82,-251.03 136.51,-253.46 140.28,-259.36"/>
</g>
<!-- tp_finalize&#45;&gt;ref0 -->
<g id="edge11" class="edge">
<title>tp_finalize&#45;&gt;ref0</title>
<path fill="none" stroke="black" d="M87.71,-272.97C90.63,-247.03 96.22,-197.36 99.71,-166.33"/>
<polygon fill="black" stroke="black" points="103.21,-166.53 100.85,-156.2 96.26,-165.74 103.21,-166.53"/>
</g>
<!-- tp_dealloc -->
<g id="node10" class="node">
<title>tp_dealloc</title>
<g id="a_node10"><a xlink:href="typeobj.html#c.PyTypeObject.tp_dealloc" xlink:title="tp_dealloc" target="_top">
<ellipse fill="none" stroke="black" cx="102.79" cy="-83" rx="40.74" ry="18"/>
<text text-anchor="middle" x="102.79" y="-80.5" font-family="Courier,monospace" font-size="10.00">tp_dealloc</text>
</a>
</g>
</g>
<!-- tp_finalize&#45;&gt;tp_dealloc -->
<g id="edge16" class="edge">
<title>tp_finalize&#45;&gt;tp_dealloc</title>
<g id="a_edge16"><a xlink:href="lifecycle.html#c.PyObject_CallFinalizerFromDealloc" xlink:title="&lt;TABLE&gt;" target="_top">
<path fill="none" stroke="black" d="M54.21,-268.04C36.32,-253.58 15.62,-232.94 5.79,-209 -1.64,-190.91 -2.08,-182.9 5.79,-165 19.65,-133.46 52.99,-110.14 76.71,-96.82"/>
<polygon fill="black" stroke="black" points="52.13,-270.86 62.18,-274.23 56.43,-265.33 52.13,-270.86"/>
</a>
</g>
<g id="a_edge16&#45;label"><a xlink:href="lifecycle.html#c.PyObject_CallFinalizerFromDealloc" xlink:title="&lt;TABLE&gt;" target="_top">
<text text-anchor="start" x="5.79" y="-184.5" font-family="Times,serif" font-style="italic" font-size="10.00"> </text>
<text text-anchor="start" x="8.79" y="-201" font-family="Times,serif" font-style="italic" font-size="10.00">optional call to</text>
<text text-anchor="start" x="77.79" y="-184.5" font-family="Times,serif" font-style="italic" font-size="10.00"> &#160;&#160;&#160;&#160;&#160;</text>
<text text-anchor="start" x="8.79" y="-190" font-family="Courier,monospace" font-size="10.00">PyObject_Call</text>
<text text-anchor="start" x="8.79" y="-179" font-family="Courier,monospace" font-size="10.00">FinalizerFrom</text>
<text text-anchor="start" x="8.79" y="-168" font-family="Courier,monospace" font-size="10.00">Dealloc</text>
</a>
</g>
</g>
<!-- tp_clear&#45;&gt;ref0 -->
<g id="edge12" class="edge">
<title>tp_clear&#45;&gt;ref0</title>
<path fill="none" stroke="black" d="M156.99,-217.84C146.76,-202.96 131.82,-181.22 120.21,-164.34"/>
<polygon fill="black" stroke="black" points="123.04,-162.27 114.49,-156.01 117.27,-166.24 123.04,-162.27"/>
</g>
<!-- tp_clear&#45;&gt;tp_dealloc -->
<g id="edge13" class="edge">
<title>tp_clear&#45;&gt;tp_dealloc</title>
<path fill="none" stroke="black" d="M169.78,-207.59C169.45,-183 165.84,-146.75 149.79,-120 144.4,-111.01 135.84,-103.47 127.5,-97.65"/>
<polygon fill="black" stroke="black" points="166.28,-207.67 169.74,-217.68 173.28,-207.69 166.28,-207.67"/>
<text text-anchor="start" x="168.29" y="-141" font-family="Times,serif" font-style="italic" font-size="10.00"> &#160;optional</text>
<text text-anchor="start" x="164.79" y="-130" font-family="Times,serif" font-style="italic" font-size="10.00">direct call &#160;</text>
</g>
<!-- ref0&#45;&gt;tp_dealloc -->
<g id="edge15" class="edge">
<title>ref0&#45;&gt;tp_dealloc</title>
<path fill="none" stroke="black" d="M102.79,-119.94C102.79,-117.1 102.79,-114.1 102.79,-111.09"/>
<polygon fill="black" stroke="black" points="106.29,-111.03 102.79,-101.03 99.29,-111.03 106.29,-111.03"/>
</g>
<!-- tp_free -->
<g id="node11" class="node">
<title>tp_free</title>
<g id="a_node11"><a xlink:href="typeobj.html#c.PyTypeObject.tp_free" xlink:title="tp_free" target="_top">
<ellipse fill="none" stroke="black" cx="102.79" cy="-18" rx="31.4" ry="18"/>
<text text-anchor="middle" x="102.79" y="-15.5" font-family="Courier,monospace" font-size="10.00">tp_free</text>
</a>
</g>
</g>
<!-- tp_dealloc&#45;&gt;tp_free -->
<g id="edge17" class="edge">
<title>tp_dealloc&#45;&gt;tp_free</title>
<path fill="none" stroke="black" d="M102.79,-64.78C102.79,-59.09 102.79,-52.61 102.79,-46.34"/>
<polygon fill="black" stroke="black" points="106.29,-46.19 102.79,-36.19 99.29,-46.19 106.29,-46.19"/>
<text text-anchor="start" x="102.79" y="-48" font-family="Times,serif" font-style="italic" font-size="10.00"> &#160;directly calls &#160;</text>
</g>
</g>
</svg>
