<?xml version="1.0" encoding="UTF-8" standalone="no"?>
<?xml-stylesheet href="lifecycle.dot.css" type="text/css"?>
<!DOCTYPE svg PUBLIC "-//W3C//DTD SVG 1.1//EN"
 "http://www.w3.org/Graphics/SVG/1.1/DTD/svg11.dtd">
<!-- Generated by graphviz version 2.43.0 (0)
 -->
<!-- Title: Life Events Pages: 1 -->
<svg width="442pt" height="499pt"
 viewBox="0.00 0.00 442.07 499.00" xmlns="http://www.w3.org/2000/svg" xmlns:xlink="http://www.w3.org/1999/xlink">
<g id="life_events_graph" class="graph" transform="scale(1 1) rotate(0) translate(4 495)">
<title>Life Events</title>
<polygon fill="white" stroke="transparent" points="-4,4 -4,-495 438.07,-495 438.07,4 -4,4"/>
<!-- start -->
<!-- tp_new -->
<g id="life_events_graph_node2" class="node">
<title>tp_new</title>
<g id="a_life_events_graph_node2"><a xlink:href="typeobj.html#c.PyTypeObject.tp_new" xlink:title="tp_new" target="_top">
<ellipse fill="none" stroke="black" cx="222.07" cy="-441" rx="32.75" ry="18"/>
<text text-anchor="middle" x="222.07" y="-437.9" font-family="Courier,monospace" font-size="12.00">tp_new</text>
</a>
</g>
</g>
<!-- start&#45;&gt;tp_new -->
<g id="life_events_graph_edge1" class="edge">
<title>start&#45;&gt;tp_new</title>
<path fill="none" stroke="black" d="M222.07,-477.73C222.07,-475.4 222.07,-472.53 222.07,-469.44"/>
<polygon fill="black" stroke="black" points="225.57,-469.19 222.07,-459.19 218.57,-469.19 225.57,-469.19"/>
</g>
<!-- tp_alloc -->
<g id="life_events_graph_node3" class="node">
<title>tp_alloc</title>
<g id="a_life_events_graph_node3"><a xlink:href="typeobj.html#c.PyTypeObject.tp_alloc" xlink:title="tp_alloc" target="_top">
<ellipse fill="none" stroke="black" cx="372.07" cy="-441" rx="40.03" ry="18"/>
<text text-anchor="middle" x="372.07" y="-437.9" font-family="Courier,monospace" font-size="12.00">tp_alloc</text>
</a>
</g>
</g>
<!-- tp_new&#45;&gt;tp_alloc -->
<g id="life_events_graph_edge2" class="edge">
<title>tp_new&#45;&gt;tp_alloc</title>
<path fill="none" stroke="black" d="M254.99,-441C274.57,-441 299.8,-441 321.83,-441"/>
<polygon fill="black" stroke="black" points="322.02,-444.5 332.02,-441 322.02,-437.5 322.02,-444.5"/>
<text text-anchor="start" x="263.37" y="-447.4" font-family="Times,serif" font-style="italic" font-size="12.00"> &#160;direct call &#160;</text>
</g>
<!-- tp_init -->
<g id="life_events_graph_node4" class="node">
<title>tp_init</title>
<g id="a_life_events_graph_node4"><a xlink:href="typeobj.html#c.PyTypeObject.tp_init" xlink:title="tp_init" target="_top">
<ellipse fill="none" stroke="black" cx="222.07" cy="-386" rx="36.14" ry="18"/>
<text text-anchor="middle" x="222.07" y="-382.9" font-family="Courier,monospace" font-size="12.00">tp_init</text>
</a>
</g>
</g>
<!-- tp_new&#45;&gt;tp_init -->
<g id="life_events_graph_edge4" class="edge">
<title>tp_new&#45;&gt;tp_init</title>
<path fill="none" stroke="black" d="M222.07,-422.94C222.07,-420.1 222.07,-417.1 222.07,-414.09"/>
<polygon fill="black" stroke="black" points="225.57,-414.03 222.07,-404.03 218.57,-414.03 225.57,-414.03"/>
</g>
<!-- tp_alloc&#45;&gt;tp_new -->
<g id="life_events_graph_edge3" class="edge">
<title>tp_alloc&#45;&gt;tp_new</title>
<path fill="none" stroke="black" d="M339.86,-430.2C323.98,-426.09 304.5,-422.86 286.87,-425 278.27,-426.05 269.17,-427.85 260.59,-429.87"/>
<polygon fill="black" stroke="black" points="259.67,-426.49 250.82,-432.32 261.37,-433.28 259.67,-426.49"/>
<text text-anchor="start" x="286.87" y="-428.4" font-family="Times,serif" font-style="italic" font-size="12.00"> &#160;&#160;&#160;</text>
</g>
<!-- reachable -->
<g id="life_events_graph_node5" class="node">
<title>reachable</title>
<polygon fill="none" stroke="black" points="254.07,-349 190.07,-349 190.07,-313 254.07,-313 254.07,-349"/>
<text text-anchor="middle" x="222.07" y="-327.9" font-family="Times,serif" font-style="italic" font-size="12.00">reachable</text>
</g>
<!-- tp_init&#45;&gt;reachable -->
<g id="life_events_graph_edge5" class="edge">
<title>tp_init&#45;&gt;reachable</title>
<path fill="none" stroke="black" d="M222.07,-367.94C222.07,-365.1 222.07,-362.1 222.07,-359.09"/>
<polygon fill="black" stroke="black" points="225.57,-359.03 222.07,-349.03 218.57,-359.03 225.57,-359.03"/>
</g>
<!-- tp_traverse -->
<g id="life_events_graph_node6" class="node">
<title>tp_traverse</title>
<g id="a_life_events_graph_node6"><a xlink:href="typeobj.html#c.PyTypeObject.tp_traverse" xlink:title="tp_traverse" target="_top">
<ellipse fill="none" stroke="black" cx="341.07" cy="-331" rx="51.19" ry="18"/>
<text text-anchor="middle" x="341.07" y="-327.9" font-family="Courier,monospace" font-size="12.00">tp_traverse</text>
</a>
</g>
</g>
<!-- reachable&#45;&gt;tp_traverse -->
<g id="life_events_graph_edge6" class="edge">
<title>reachable&#45;&gt;tp_traverse</title>
<path fill="none" stroke="black" d="M254.14,-320.37C266.82,-317.72 279.51,-316.9 292.19,-317.93"/>
<polygon fill="black" stroke="black" points="292.01,-321.43 302.36,-319.15 292.85,-314.48 292.01,-321.43"/>
</g>
<!-- tp_finalize -->
<g id="life_events_graph_node7" class="node">
<title>tp_finalize</title>
<g id="a_life_events_graph_node7"><a xlink:href="typeobj.html#c.PyTypeObject.tp_finalize" xlink:title="tp_finalize" target="_top">
<ellipse fill="none" stroke="black" cx="139.07" cy="-249.5" rx="51.19" ry="18"/>
<text text-anchor="middle" x="139.07" y="-246.4" font-family="Courier,monospace" font-size="12.00">tp_finalize</text>
</a>
</g>
</g>
<!-- reachable&#45;&gt;tp_finalize -->
<g id="life_events_graph_edge9" class="edge">
<title>reachable&#45;&gt;tp_finalize</title>
<path fill="none" stroke="black" d="M179.55,-327.36C145.38,-324.25 101.29,-317.65 90.07,-304 82.73,-295.07 84.23,-287.97 90.07,-278 93.67,-271.85 99.2,-266.98 105.26,-263.15"/>
<polygon fill="black" stroke="black" points="179.53,-330.87 189.79,-328.22 180.12,-323.9 179.53,-330.87"/>
<text text-anchor="start" x="90.07" y="-287.9" font-family="Times,serif" font-style="italic" font-size="12.00"> &#160;resurrected &#160;</text>
</g>
<!-- reachable&#45;&gt;tp_finalize -->
<g id="life_events_graph_edge10" class="edge">
<title>reachable&#45;&gt;tp_finalize</title>
<path fill="none" stroke="black" d="M191.3,-312.79C187.35,-310.06 183.5,-307.11 180.07,-304 170.9,-295.7 162.32,-285.14 155.4,-275.6"/>
<polygon fill="black" stroke="black" points="158.13,-273.41 149.54,-267.21 152.4,-277.42 158.13,-273.41"/>
<text text-anchor="start" x="191.57" y="-294.4" font-family="Times,serif" font-style="italic" font-size="12.00"> &#160;became &#160;</text>
<text text-anchor="start" x="180.07" y="-281.4" font-family="Times,serif" font-style="italic" font-size="12.00"> &#160;unreachable &#160;</text>
</g>
<!-- tp_clear -->
<g id="life_events_graph_node8" class="node">
<title>tp_clear</title>
<g id="a_life_events_graph_node8"><a xlink:href="typeobj.html#c.PyTypeObject.tp_clear" xlink:title="tp_clear" target="_top">
<ellipse fill="none" stroke="black" cx="269.07" cy="-160" rx="40.03" ry="18"/>
<text text-anchor="middle" x="269.07" y="-156.9" font-family="Courier,monospace" font-size="12.00">tp_clear</text>
</a>
</g>
</g>
<!-- reachable&#45;&gt;tp_clear -->
<g id="life_events_graph_edge8" class="edge">
<title>reachable&#45;&gt;tp_clear</title>
<path fill="none" stroke="black" d="M245.66,-312.81C248.15,-310.12 250.39,-307.17 252.07,-304 271.47,-267.41 272.88,-218.3 271.46,-188.19"/>
<polygon fill="black" stroke="black" points="274.94,-187.78 270.84,-178.01 267.95,-188.21 274.94,-187.78"/>
<text text-anchor="start" x="270.07" y="-259.4" font-family="Times,serif" font-style="italic" font-size="12.00"> &#160;was resurrected, &#160;</text>
<text text-anchor="start" x="279.07" y="-246.4" font-family="Times,serif" font-style="italic" font-size="12.00"> &#160;then became &#160;</text>
<text text-anchor="start" x="279.57" y="-233.4" font-family="Times,serif" font-style="italic" font-size="12.00"> &#160;unreachable &#160;</text>
</g>
<!-- tp_dealloc -->
<g id="life_events_graph_node9" class="node">
<title>tp_dealloc</title>
<g id="a_life_events_graph_node9"><a xlink:href="typeobj.html#c.PyTypeObject.tp_dealloc" xlink:title="tp_dealloc" target="_top">
<ellipse fill="none" stroke="black" cx="204.07" cy="-85" rx="47.3" ry="18"/>
<text text-anchor="middle" x="204.07" y="-81.9" font-family="Courier,monospace" font-size="12.00">tp_dealloc</text>
</a>
</g>
</g>
<!-- reachable&#45;&gt;tp_dealloc -->
<g id="life_events_graph_edge15" class="edge">
<title>reachable&#45;&gt;tp_dealloc</title>
<path fill="none" stroke="black" d="M254.35,-320.76C292.47,-309.12 352.31,-288.31 365.07,-269 374.62,-254.54 368.98,-246.89 365.07,-230 354.35,-183.72 352.6,-166.62 318.07,-134 300.13,-117.05 275.33,-105.65 253.44,-98.23"/>
<polygon fill="black" stroke="black" points="254.21,-94.8 243.62,-95.09 252.08,-101.47 254.21,-94.8"/>
<text text-anchor="start" x="373.57" y="-211.4" font-family="Times,serif" font-style="italic" font-size="12.00"> &#160;became &#160;</text>
<text text-anchor="start" x="362.07" y="-198.4" font-family="Times,serif" font-style="italic" font-size="12.00"> &#160;unreachable &#160;</text>
</g>
<!-- tp_traverse&#45;&gt;reachable -->
<g id="life_events_graph_edge7" class="edge">
<title>tp_traverse&#45;&gt;reachable</title>
<path fill="none" stroke="black" d="M302.36,-342.85C289.68,-344.86 276.99,-345.03 264.31,-343.36"/>
<polygon fill="black" stroke="black" points="264.59,-339.86 254.14,-341.63 263.41,-346.76 264.59,-339.86"/>
</g>
<!-- tp_finalize&#45;&gt;tp_clear -->
<g id="life_events_graph_edge11" class="edge">
<title>tp_finalize&#45;&gt;tp_clear</title>
<path fill="none" stroke="black" d="M147.97,-231.57C155.11,-219.62 166.21,-204.17 180.07,-195 193.46,-186.14 199.94,-191.4 215.07,-186 221.47,-183.71 228.16,-180.95 234.55,-178.11"/>
<polygon fill="black" stroke="black" points="236.02,-181.28 243.65,-173.93 233.1,-174.92 236.02,-181.28"/>
<text text-anchor="start" x="201.57" y="-211.4" font-family="Times,serif" font-style="italic" font-size="12.00"> &#160;still &#160;</text>
<text text-anchor="start" x="180.07" y="-198.4" font-family="Times,serif" font-style="italic" font-size="12.00"> &#160;unreachable &#160;</text>
</g>
<!-- tp_finalize&#45;&gt;tp_dealloc -->
<g id="life_events_graph_edge12" class="edge">
<title>tp_finalize&#45;&gt;tp_dealloc</title>
<g id="a_life_events_graph_edge12"><a xlink:href="lifecycle.html#c.PyObject_CallFinalizerFromDealloc" xlink:title="&lt;TABLE&gt;" target="_top">
<path fill="none" stroke="black" d="M86.02,-237.1C58.29,-228.16 26.74,-212.6 10.07,-186 -2.21,-166.42 -4.18,-152.2 10.07,-134 28.19,-110.84 107.36,-97.31 158.8,-90.81"/>
<polygon fill="black" stroke="black" points="85.06,-240.46 95.64,-239.99 87.07,-233.76 85.06,-240.46"/>
</a>
</g>
<g id="a_life_events_graph_edge12&#45;label"><a xlink:href="lifecycle.html#c.PyObject_CallFinalizerFromDealloc" xlink:title="&lt;TABLE&gt;" target="_top">
<text text-anchor="start" x="10.57" y="-156.9" font-family="Times,serif" font-style="italic" font-size="12.00"> &#160;</text>
<text text-anchor="start" x="17.57" y="-176.4" font-family="Times,serif" font-style="italic" font-size="12.00">recommended call to</text>
<text text-anchor="start" x="17.57" y="-163.4" font-family="Courier,monospace" font-size="12.00">PyObject_Call</text>
<text text-anchor="start" x="17.57" y="-150.4" font-family="Courier,monospace" font-size="12.00">FinalizerFrom</text>
<text text-anchor="start" x="17.57" y="-137.4" font-family="Courier,monospace" font-size="12.00">Dealloc</text>
</a>
</g>
</g>
<!-- tp_finalize&#45;&gt;tp_dealloc -->
<g id="life_events_graph_edge13" class="edge">
<title>tp_finalize&#45;&gt;tp_dealloc</title>
<path fill="none" stroke="black" d="M136.54,-231.51C133.89,-208.15 132.07,-165.46 148.07,-134 153.5,-123.32 162.44,-114.03 171.6,-106.55"/>
<polygon fill="black" stroke="black" points="173.79,-109.28 179.63,-100.44 169.55,-103.71 173.79,-109.28"/>
<text text-anchor="start" x="169.57" y="-163.4" font-family="Times,serif" font-style="italic" font-size="12.00"> &#160;still &#160;</text>
<text text-anchor="start" x="148.07" y="-150.4" font-family="Times,serif" font-style="italic" font-size="12.00"> &#160;unreachable &#160;</text>
</g>
<!-- tp_clear&#45;&gt;tp_dealloc -->
<g id="life_events_graph_edge14" class="edge">
<title>tp_clear&#45;&gt;tp_dealloc</title>
<path fill="none" stroke="black" d="M254.64,-142.8C245.97,-133.06 234.79,-120.51 225.15,-109.67"/>
<polygon fill="black" stroke="black" points="227.72,-107.3 218.45,-102.16 222.49,-111.95 227.72,-107.3"/>
<text text-anchor="start" x="238.07" y="-115.4" font-family="Times,serif" font-style="italic" font-size="12.00"> &#160;&#160;&#160;</text>
</g>
<!-- tp_free -->
<g id="life_events_graph_node10" class="node">
<title>tp_free</title>
<g id="a_life_events_graph_node10"><a xlink:href="typeobj.html#c.PyTypeObject.tp_free" xlink:title="tp_free" target="_top">
<ellipse fill="none" stroke="black" cx="204.07" cy="-18" rx="36.14" ry="18"/>
<text text-anchor="middle" x="204.07" y="-14.9" font-family="Courier,monospace" font-size="12.00">tp_free</text>
</a>
</g>
</g>
<!-- tp_dealloc&#45;&gt;tp_free -->
<g id="life_events_graph_edge16" class="edge">
<title>tp_dealloc&#45;&gt;tp_free</title>
<path fill="none" stroke="black" d="M204.07,-66.92C204.07,-60.7 204.07,-53.5 204.07,-46.6"/>
<polygon fill="black" stroke="black" points="207.57,-46.19 204.07,-36.19 200.57,-46.19 207.57,-46.19"/>
<text text-anchor="start" x="204.07" y="-48.4" font-family="Times,serif" font-style="italic" font-size="12.00"> &#160;&#160;&#160;direct call &#160;</text>
</g>
</g>
</svg>
