<?xml version="1.0" encoding="UTF-8" standalone="no"?>
<!DOCTYPE svg PUBLIC "-//W3C//DTD SVG 1.1//EN"
 "http://www.w3.org/Graphics/SVG/1.1/DTD/svg11.dtd">
<!-- Generated by graphviz version 2.43.0 (0)
 -->
<!-- Title: G Pages: 1 -->
<svg width="382pt" height="474pt"
 viewBox="0.00 0.00 382.42 474.00" xmlns="http://www.w3.org/2000/svg" xmlns:xlink="http://www.w3.org/1999/xlink">
<g id="graph0" class="graph" transform="scale(1 1) rotate(0) translate(4 470)">
<title>G</title>
<polygon fill="white" stroke="transparent" points="-4,4 -4,-470 378.42,-470 378.42,4 -4,4"/>
<!-- start -->
<!-- tp_new -->
<g id="node2" class="node">
<title>tp_new</title>
<g id="a_node2"><a xlink:href="typeobj.html#c.PyTypeObject.tp_new" xlink:title="tp_new" target="_top">
<ellipse fill="none" stroke="black" cx="196.42" cy="-418" rx="28.01" ry="18"/>
<text text-anchor="middle" x="196.42" y="-415.5" font-family="Courier,monospace" font-size="10.00">tp_new</text>
</a>
</g>
</g>
<!-- start&#45;&gt;tp_new -->
<g id="edge1" class="edge">
<title>start&#45;&gt;tp_new</title>
<path fill="none" stroke="black" d="M196.42,-454.85C196.42,-452.57 196.42,-449.61 196.42,-446.37"/>
<polygon fill="black" stroke="black" points="199.92,-446.22 196.42,-436.22 192.92,-446.22 199.92,-446.22"/>
</g>
<!-- tp_alloc -->
<g id="node3" class="node">
<title>tp_alloc</title>
<g id="a_node3"><a xlink:href="typeobj.html#c.PyTypeObject.tp_alloc" xlink:title="tp_alloc" target="_top">
<ellipse fill="none" stroke="black" cx="328.42" cy="-418" rx="34.96" ry="18"/>
<text text-anchor="middle" x="328.42" y="-415.5" font-family="Courier,monospace" font-size="10.00">tp_alloc</text>
</a>
</g>
</g>
<!-- tp_new&#45;&gt;tp_alloc -->
<g id="edge2" class="edge">
<title>tp_new&#45;&gt;tp_alloc</title>
<path fill="none" stroke="black" d="M224.74,-418C241.82,-418 263.96,-418 283.4,-418"/>
<polygon fill="black" stroke="black" points="283.57,-421.5 293.57,-418 283.57,-414.5 283.57,-421.5"/>
<text text-anchor="start" x="233.18" y="-424" font-family="Times,serif" font-style="italic" font-size="10.00"> &#160;direct call &#160;</text>
</g>
<!-- tp_init -->
<g id="node4" class="node">
<title>tp_init</title>
<g id="a_node4"><a xlink:href="typeobj.html#c.PyTypeObject.tp_init" xlink:title="tp_init" target="_top">
<ellipse fill="none" stroke="black" cx="196.42" cy="-363" rx="31.4" ry="18"/>
<text text-anchor="middle" x="196.42" y="-360.5" font-family="Courier,monospace" font-size="10.00">tp_init</text>
</a>
</g>
</g>
<!-- tp_new&#45;&gt;tp_init -->
<g id="edge4" class="edge">
<title>tp_new&#45;&gt;tp_init</title>
<path fill="none" stroke="black" d="M196.42,-399.94C196.42,-397.1 196.42,-394.1 196.42,-391.09"/>
<polygon fill="black" stroke="black" points="199.92,-391.03 196.42,-381.03 192.92,-391.03 199.92,-391.03"/>
</g>
<!-- tp_alloc&#45;&gt;tp_new -->
<g id="edge3" class="edge">
<title>tp_alloc&#45;&gt;tp_new</title>
<path fill="none" stroke="black" d="M298.94,-408.22C285.37,-404.81 269.03,-402.23 254.18,-404 246.94,-404.87 239.29,-406.32 232.02,-407.97"/>
<polygon fill="black" stroke="black" points="230.94,-404.63 222.06,-410.4 232.6,-411.43 230.94,-404.63"/>
<text text-anchor="start" x="254.18" y="-407" font-family="Times,serif" font-style="italic" font-size="10.00"> &#160;&#160;&#160;</text>
</g>
<!-- reachable -->
<g id="node5" class="node">
<title>reachable</title>
<polygon fill="none" stroke="black" points="225.42,-326 167.42,-326 167.42,-290 225.42,-290 225.42,-326"/>
<text text-anchor="middle" x="196.42" y="-305.5" font-family="Times,serif" font-style="italic" font-size="10.00">reachable</text>
</g>
<!-- tp_init&#45;&gt;reachable -->
<g id="edge5" class="edge">
<title>tp_init&#45;&gt;reachable</title>
<path fill="none" stroke="black" d="M196.42,-344.94C196.42,-342.1 196.42,-339.1 196.42,-336.09"/>
<polygon fill="black" stroke="black" points="199.92,-336.03 196.42,-326.03 192.92,-336.03 199.92,-336.03"/>
</g>
<!-- tp_traverse -->
<g id="node6" class="node">
<title>tp_traverse</title>
<g id="a_node6"><a xlink:href="typeobj.html#c.PyTypeObject.tp_traverse" xlink:title="tp_traverse" target="_top">
<ellipse fill="none" stroke="black" cx="304.42" cy="-308" rx="43.62" ry="18"/>
<text text-anchor="middle" x="304.42" y="-305.5" font-family="Courier,monospace" font-size="10.00">tp_traverse</text>
</a>
</g>
</g>
<!-- reachable&#45;&gt;tp_traverse -->
<g id="edge6" class="edge">
<title>reachable&#45;&gt;tp_traverse</title>
<path fill="none" stroke="black" d="M225.53,-297.37C237.32,-294.65 249.12,-293.86 260.92,-295.01"/>
<polygon fill="black" stroke="black" points="260.43,-298.48 270.83,-296.43 261.42,-291.55 260.43,-298.48"/>
</g>
<!-- tp_finalize -->
<g id="node7" class="node">
<title>tp_finalize</title>
<g id="a_node7"><a xlink:href="typeobj.html#c.PyTypeObject.tp_finalize" xlink:title="tp_finalize" target="_top">
<ellipse fill="none" stroke="black" cx="122.42" cy="-232" rx="43.62" ry="18"/>
<text text-anchor="middle" x="122.42" y="-229.5" font-family="Courier,monospace" font-size="10.00">tp_finalize</text>
</a>
</g>
</g>
<!-- reachable&#45;&gt;tp_finalize -->
<g id="edge9" class="edge">
<title>reachable&#45;&gt;tp_finalize</title>
<path fill="none" stroke="black" d="M157.02,-303.39C127.26,-299.75 89.97,-292.93 80.42,-281 74.31,-273.37 75.66,-267.54 80.42,-259 83.42,-253.61 88.06,-249.19 93.17,-245.63"/>
<polygon fill="black" stroke="black" points="156.85,-306.89 167.18,-304.55 157.64,-299.94 156.85,-306.89"/>
<text text-anchor="start" x="80.42" y="-267.5" font-family="Times,serif" font-style="italic" font-size="10.00"> &#160;resurrected &#160;</text>
</g>
<!-- reachable&#45;&gt;tp_finalize -->
<g id="edge10" class="edge">
<title>reachable&#45;&gt;tp_finalize</title>
<path fill="none" stroke="black" d="M169.77,-289.75C166.15,-286.99 162.59,-284.04 159.42,-281 152.16,-274.06 145.17,-265.62 139.26,-257.76"/>
<polygon fill="black" stroke="black" points="142.01,-255.6 133.3,-249.57 136.35,-259.71 142.01,-255.6"/>
<text text-anchor="start" x="169.42" y="-273" font-family="Times,serif" font-style="italic" font-size="10.00"> &#160;became &#160;</text>
<text text-anchor="start" x="159.42" y="-262" font-family="Times,serif" font-style="italic" font-size="10.00"> &#160;unreachable &#160;</text>
</g>
<!-- tp_clear -->
<g id="node8" class="node">
<title>tp_clear</title>
<g id="a_node8"><a xlink:href="typeobj.html#c.PyTypeObject.tp_clear" xlink:title="tp_clear" target="_top">
<ellipse fill="none" stroke="black" cx="236.42" cy="-152" rx="34.96" ry="18"/>
<text text-anchor="middle" x="236.42" y="-149.5" font-family="Courier,monospace" font-size="10.00">tp_clear</text>
</a>
</g>
</g>
<!-- reachable&#45;&gt;tp_clear -->
<g id="edge8" class="edge">
<title>reachable&#45;&gt;tp_clear</title>
<path fill="none" stroke="black" d="M214.82,-289.9C217,-287.12 218.97,-284.12 220.42,-281 235.43,-248.69 237.96,-207.11 237.73,-180.25"/>
<polygon fill="black" stroke="black" points="241.22,-179.97 237.5,-170.06 234.22,-180.13 241.22,-179.97"/>
<text text-anchor="start" x="235.42" y="-240.5" font-family="Times,serif" font-style="italic" font-size="10.00"> &#160;was resurrected, &#160;</text>
<text text-anchor="start" x="242.92" y="-229.5" font-family="Times,serif" font-style="italic" font-size="10.00"> &#160;then became &#160;</text>
<text text-anchor="start" x="242.92" y="-218.5" font-family="Times,serif" font-style="italic" font-size="10.00"> &#160;unreachable &#160;</text>
</g>
<!-- tp_dealloc -->
<g id="node9" class="node">
<title>tp_dealloc</title>
<g id="a_node9"><a xlink:href="typeobj.html#c.PyTypeObject.tp_dealloc" xlink:title="tp_dealloc" target="_top">
<ellipse fill="none" stroke="black" cx="179.42" cy="-83" rx="40.74" ry="18"/>
<text text-anchor="middle" x="179.42" y="-80.5" font-family="Courier,monospace" font-size="10.00">tp_dealloc</text>
</a>
</g>
</g>
<!-- reachable&#45;&gt;tp_dealloc -->
<g id="edge15" class="edge">
<title>reachable&#45;&gt;tp_dealloc</title>
<path fill="none" stroke="black" d="M225.58,-297.09C257.4,-285.63 305.19,-266.23 315.42,-250 323.94,-236.46 318.56,-229.69 315.42,-214 307.49,-174.34 308.55,-159.06 280.42,-130 265.06,-114.13 243.2,-103.25 223.75,-96.07"/>
<polygon fill="black" stroke="black" points="224.73,-92.71 214.13,-92.74 222.44,-99.32 224.73,-92.71"/>
<text text-anchor="start" x="323.42" y="-197" font-family="Times,serif" font-style="italic" font-size="10.00"> &#160;became &#160;</text>
<text text-anchor="start" x="313.42" y="-186" font-family="Times,serif" font-style="italic" font-size="10.00"> &#160;unreachable &#160;</text>
</g>
<!-- tp_traverse&#45;&gt;reachable -->
<g id="edge7" class="edge">
<title>tp_traverse&#45;&gt;reachable</title>
<path fill="none" stroke="black" d="M270.83,-319.57C259.03,-321.8 247.23,-322.1 235.44,-320.46"/>
<polygon fill="black" stroke="black" points="236,-317.01 225.53,-318.63 234.73,-323.89 236,-317.01"/>
</g>
<!-- tp_finalize&#45;&gt;tp_clear -->
<g id="edge11" class="edge">
<title>tp_finalize&#45;&gt;tp_clear</title>
<path fill="none" stroke="black" d="M131.76,-214.21C138.29,-203.88 147.88,-191.11 159.42,-183 170.11,-175.48 175.17,-178.58 187.42,-174 192,-172.29 196.78,-170.39 201.47,-168.45"/>
<polygon fill="black" stroke="black" points="203.06,-171.58 210.92,-164.47 200.34,-165.13 203.06,-171.58"/>
<text text-anchor="start" x="177.42" y="-197" font-family="Times,serif" font-style="italic" font-size="10.00"> &#160;still &#160;</text>
<text text-anchor="start" x="159.42" y="-186" font-family="Times,serif" font-style="italic" font-size="10.00"> &#160;unreachable &#160;</text>
</g>
<!-- tp_finalize&#45;&gt;tp_dealloc -->
<g id="edge12" class="edge">
<title>tp_finalize&#45;&gt;tp_dealloc</title>
<g id="a_edge12"><a xlink:href="lifecycle.html#c.PyObject_CallFinalizerFromDealloc" xlink:title="&lt;TABLE&gt;" target="_top">
<path fill="none" stroke="black" d="M74.72,-219.94C50.39,-211.63 22.94,-197.49 8.42,-174 -1.86,-157.37 -3.48,-145.52 8.42,-130 24.41,-109.14 95.33,-95.62 140.67,-88.95"/>
<polygon fill="black" stroke="black" points="73.97,-223.38 84.56,-223.06 76.08,-216.7 73.97,-223.38"/>
</a>
</g>
<g id="a_edge12&#45;label"><a xlink:href="lifecycle.html#c.PyObject_CallFinalizerFromDealloc" xlink:title="&lt;TABLE&gt;" target="_top">
<text text-anchor="start" x="8.42" y="-149.5" font-family="Times,serif" font-style="italic" font-size="10.00"> &#160;</text>
<text text-anchor="start" x="13.42" y="-166" font-family="Times,serif" font-style="italic" font-size="10.00">recommended call to</text>
<text text-anchor="start" x="13.42" y="-155" font-family="Courier,monospace" font-size="10.00">PyObject_Call</text>
<text text-anchor="start" x="13.42" y="-144" font-family="Courier,monospace" font-size="10.00">FinalizerFrom</text>
<text text-anchor="start" x="13.42" y="-133" font-family="Courier,monospace" font-size="10.00">Dealloc</text>
</a>
</g>
</g>
<!-- tp_finalize&#45;&gt;tp_dealloc -->
<g id="edge13" class="edge">
<title>tp_finalize&#45;&gt;tp_dealloc</title>
<path fill="none" stroke="black" d="M120.42,-213.96C118.75,-193.08 118.38,-157.14 131.42,-130 135.82,-120.83 142.88,-112.52 150.25,-105.57"/>
<polygon fill="black" stroke="black" points="153.02,-107.8 158.25,-98.58 148.41,-102.53 153.02,-107.8"/>
<text text-anchor="start" x="149.42" y="-155" font-family="Times,serif" font-style="italic" font-size="10.00"> &#160;still &#160;</text>
<text text-anchor="start" x="131.42" y="-144" font-family="Times,serif" font-style="italic" font-size="10.00"> &#160;unreachable &#160;</text>
</g>
<!-- tp_clear&#45;&gt;tp_dealloc -->
<g id="edge14" class="edge">
<title>tp_clear&#45;&gt;tp_dealloc</title>
<path fill="none" stroke="black" d="M222.91,-135.12C216.05,-127.06 207.58,-117.1 199.94,-108.12"/>
<polygon fill="black" stroke="black" points="202.37,-105.58 193.22,-100.23 197.04,-110.11 202.37,-105.58"/>
<text text-anchor="start" x="209.42" y="-113" font-family="Times,serif" font-style="italic" font-size="10.00"> &#160;&#160;&#160;</text>
</g>
<!-- tp_free -->
<g id="node10" class="node">
<title>tp_free</title>
<g id="a_node10"><a xlink:href="typeobj.html#c.PyTypeObject.tp_free" xlink:title="tp_free" target="_top">
<ellipse fill="none" stroke="black" cx="179.42" cy="-18" rx="31.4" ry="18"/>
<text text-anchor="middle" x="179.42" y="-15.5" font-family="Courier,monospace" font-size="10.00">tp_free</text>
</a>
</g>
</g>
<!-- tp_dealloc&#45;&gt;tp_free -->
<g id="edge16" class="edge">
<title>tp_dealloc&#45;&gt;tp_free</title>
<path fill="none" stroke="black" d="M179.42,-64.78C179.42,-59.09 179.42,-52.61 179.42,-46.34"/>
<polygon fill="black" stroke="black" points="182.92,-46.19 179.42,-36.19 175.92,-46.19 182.92,-46.19"/>
<text text-anchor="start" x="179.42" y="-48" font-family="Times,serif" font-style="italic" font-size="10.00"> &#160;&#160;&#160;direct call &#160;</text>
</g>
</g>
</svg>
