<?xml version="1.0" encoding="UTF-8" standalone="no"?>
<?xml-stylesheet href="lifecycle.dot.css" type="text/css"?>
<!DOCTYPE svg PUBLIC "-//W3C//DTD SVG 1.1//EN"
 "http://www.w3.org/Graphics/SVG/1.1/DTD/svg11.dtd">
<!-- Generated by graphviz version 2.43.0 (0)
 -->
<!-- Title: Life Events Pages: 1 -->
<svg width="401pt" height="791pt"
 viewBox="0.00 0.00 400.63 791.00" xmlns="http://www.w3.org/2000/svg" xmlns:xlink="http://www.w3.org/1999/xlink">
<g id="life_events_graph" class="graph" transform="scale(1 1) rotate(0) translate(4 787)">
<title>Life Events</title>
<polygon fill="white" stroke="transparent" points="-4,4 -4,-787 396.63,-787 396.63,4 -4,4"/>
<!-- start -->
<!-- tp_new -->
<g id="life_events_graph_node2" class="node">
<title>tp_new</title>
<g id="a_life_events_graph_node2"><a xlink:href="typeobj.html#c.PyTypeObject.tp_new" xlink:title="tp_new" target="_top">
<ellipse fill="none" stroke="black" cx="189.63" cy="-721" rx="32.75" ry="18"/>
<text text-anchor="middle" x="189.63" y="-717.9" font-family="Courier,monospace" font-size="12.00">tp_new</text>
</a>
</g>
</g>
<!-- start&#45;&gt;tp_new -->
<g id="life_events_graph_edge1" class="edge">
<title>start&#45;&gt;tp_new</title>
<path fill="none" stroke="black" d="M189.63,-769.77C189.63,-764.75 189.63,-757.06 189.63,-749.3"/>
<polygon fill="black" stroke="black" points="193.13,-749.29 189.63,-739.29 186.13,-749.29 193.13,-749.29"/>
<text text-anchor="start" x="189.63" y="-751.4" font-family="Times,serif" font-style="italic" font-size="12.00"> &#160;&#160;&#160;type call &#160;</text>
</g>
<!-- tp_alloc -->
<g id="life_events_graph_node3" class="node">
<title>tp_alloc</title>
<g id="a_life_events_graph_node3"><a xlink:href="typeobj.html#c.PyTypeObject.tp_alloc" xlink:title="tp_alloc" target="_top">
<ellipse fill="none" stroke="black" cx="339.63" cy="-721" rx="40.03" ry="18"/>
<text text-anchor="middle" x="339.63" y="-717.9" font-family="Courier,monospace" font-size="12.00">tp_alloc</text>
</a>
</g>
</g>
<!-- tp_new&#45;&gt;tp_alloc -->
<g id="life_events_graph_edge2" class="edge">
<title>tp_new&#45;&gt;tp_alloc</title>
<path fill="none" stroke="black" d="M222.55,-721C242.13,-721 267.37,-721 289.39,-721"/>
<polygon fill="none" stroke="black" points="289.58,-724.5 299.58,-721 289.58,-717.5 289.58,-724.5"/>
<text text-anchor="start" x="230.94" y="-727.4" font-family="Times,serif" font-style="italic" font-size="12.00"> &#160;direct call &#160;</text>
</g>
<!-- tp_init -->
<g id="life_events_graph_node4" class="node">
<title>tp_init</title>
<g id="a_life_events_graph_node4"><a xlink:href="typeobj.html#c.PyTypeObject.tp_init" xlink:title="tp_init" target="_top">
<ellipse fill="none" stroke="black" cx="189.63" cy="-666" rx="36.14" ry="18"/>
<text text-anchor="middle" x="189.63" y="-662.9" font-family="Courier,monospace" font-size="12.00">tp_init</text>
</a>
</g>
</g>
<!-- tp_new&#45;&gt;tp_init -->
<g id="life_events_graph_edge3" class="edge">
<title>tp_new&#45;&gt;tp_init</title>
<path fill="none" stroke="black" d="M189.63,-702.94C189.63,-700.1 189.63,-697.1 189.63,-694.09"/>
<polygon fill="black" stroke="black" points="193.13,-694.03 189.63,-684.03 186.13,-694.03 193.13,-694.03"/>
</g>
<!-- reachable -->
<g id="life_events_graph_node5" class="node">
<title>reachable</title>
<polygon fill="none" stroke="black" points="221.63,-629 157.63,-629 157.63,-593 221.63,-593 221.63,-629"/>
<text text-anchor="middle" x="189.63" y="-607.9" font-family="Times,serif" font-style="italic" font-size="12.00">reachable</text>
</g>
<!-- tp_init&#45;&gt;reachable -->
<g id="life_events_graph_edge4" class="edge">
<title>tp_init&#45;&gt;reachable</title>
<path fill="none" stroke="black" d="M183.3,-648.23C183.04,-645.39 182.9,-642.37 182.88,-639.34"/>
<polygon fill="black" stroke="black" points="186.39,-639.33 183.26,-629.21 179.39,-639.07 186.39,-639.33"/>
</g>
<!-- reachable&#45;&gt;tp_init -->
<g id="life_events_graph_edge6" class="edge">
<title>reachable&#45;&gt;tp_init</title>
<path fill="none" stroke="black" d="M196,-629.21C196.24,-632.07 196.37,-635.09 196.38,-638.13"/>
<polygon fill="black" stroke="black" points="192.88,-638.09 195.96,-648.23 199.87,-638.38 192.88,-638.09"/>
</g>
<!-- tp_traverse -->
<g id="life_events_graph_node6" class="node">
<title>tp_traverse</title>
<g id="a_life_events_graph_node6"><a xlink:href="typeobj.html#c.PyTypeObject.tp_traverse" xlink:title="tp_traverse" target="_top">
<ellipse fill="none" stroke="black" cx="189.63" cy="-518" rx="51.19" ry="18"/>
<text text-anchor="middle" x="189.63" y="-514.9" font-family="Courier,monospace" font-size="12.00">tp_traverse</text>
</a>
</g>
</g>
<!-- reachable&#45;&gt;tp_traverse -->
<g id="life_events_graph_edge5" class="edge">
<title>reachable&#45;&gt;tp_traverse</title>
<path fill="none" stroke="black" d="M189.63,-592.88C189.63,-579.79 189.63,-561.48 189.63,-546.36"/>
<polygon fill="black" stroke="black" points="193.13,-546.04 189.63,-536.04 186.13,-546.04 193.13,-546.04"/>
<text text-anchor="start" x="201.63" y="-574.4" font-family="Times,serif" font-style="italic" font-size="12.00"> &#160;periodic &#160;</text>
<text text-anchor="start" x="189.63" y="-561.4" font-family="Times,serif" font-style="italic" font-size="12.00"> &#160;cyclic isolate &#160;&#160;</text>
<text text-anchor="start" x="200.13" y="-548.4" font-family="Times,serif" font-style="italic" font-size="12.00"> &#160;detection &#160;</text>
</g>
<!-- finalized -->
<g id="life_events_graph_node7" class="node">
<title>finalized</title>
<polygon fill="none" stroke="black" points="214.63,-443 148.63,-409 214.63,-375 280.63,-409 214.63,-443"/>
<text text-anchor="start" x="189.63" y="-412.4" font-family="Times,serif" font-style="italic" font-size="12.00">marked as</text>
<text text-anchor="start" x="191.63" y="-399.4" font-family="Times,serif" font-style="italic" font-size="12.00">finalized?</text>
</g>
<!-- reachable&#45;&gt;finalized -->
<g id="life_events_graph_edge10" class="edge">
<title>reachable&#45;&gt;finalized</title>
<path fill="none" stroke="black" d="M221.8,-607.73C238.04,-604.76 256.43,-598.21 266.63,-584 282.41,-562.02 266.98,-484.52 251.63,-452 249.56,-447.62 246.89,-443.35 243.94,-439.31"/>
<polygon fill="black" stroke="black" points="246.57,-437 237.57,-431.41 241.12,-441.39 246.57,-437"/>
<text text-anchor="start" x="271.63" y="-514.9" font-family="Times,serif" font-style="italic" font-size="12.00"> &#160;no refs &#160;</text>
</g>
<!-- tp_finalize -->
<g id="life_events_graph_node8" class="node">
<title>tp_finalize</title>
<g id="a_life_events_graph_node8"><a xlink:href="typeobj.html#c.PyTypeObject.tp_finalize" xlink:title="tp_finalize" target="_top">
<ellipse fill="none" stroke="black" cx="102.63" cy="-313" rx="51.19" ry="18"/>
<text text-anchor="middle" x="102.63" y="-309.9" font-family="Courier,monospace" font-size="12.00">tp_finalize</text>
</a>
</g>
</g>
<!-- reachable&#45;&gt;tp_finalize -->
<g id="life_events_graph_edge7" class="edge">
<title>reachable&#45;&gt;tp_finalize</title>
<path fill="none" stroke="black" d="M147.09,-608.06C130.16,-604.93 112.21,-598.16 101.63,-584 43.41,-506.09 80.23,-377.09 96.27,-331.01"/>
<polygon fill="black" stroke="black" points="147.03,-611.58 157.43,-609.56 148.04,-604.66 147.03,-611.58"/>
<text text-anchor="start" x="80.13" y="-481.4" font-family="Times,serif" font-style="italic" font-size="12.00"> &#160;resurrected &#160;</text>
<text text-anchor="start" x="70.63" y="-468.4" font-family="Times,serif" font-style="italic" font-size="12.00"> &#160;(maybe remove &#160;</text>
<text text-anchor="start" x="71.63" y="-455.4" font-family="Times,serif" font-style="italic" font-size="12.00"> &#160;finalized mark) &#160;</text>
</g>
<!-- tp_dealloc -->
<g id="life_events_graph_node11" class="node">
<title>tp_dealloc</title>
<g id="a_life_events_graph_node11"><a xlink:href="typeobj.html#c.PyTypeObject.tp_dealloc" xlink:title="tp_dealloc" target="_top">
<ellipse fill="none" stroke="black" cx="165.63" cy="-85" rx="47.3" ry="18"/>
<text text-anchor="middle" x="165.63" y="-81.9" font-family="Courier,monospace" font-size="12.00">tp_dealloc</text>
</a>
</g>
</g>
<!-- reachable&#45;&gt;tp_dealloc -->
<g id="life_events_graph_edge19" class="edge">
<title>reachable&#45;&gt;tp_dealloc</title>
<path fill="none" stroke="black" d="M221.64,-606.61C269.37,-599.6 353.63,-578.75 353.63,-519 353.63,-519 353.63,-519 353.63,-139 353.63,-111.31 277.1,-97.38 221.7,-90.92"/>
<polygon fill="black" stroke="black" points="221.95,-87.43 211.62,-89.8 221.17,-94.38 221.95,-87.43"/>
<text text-anchor="start" x="353.63" y="-309.9" font-family="Times,serif" font-style="italic" font-size="12.00"> &#160;no refs</text>
</g>
<!-- tp_traverse&#45;&gt;reachable -->
<g id="life_events_graph_edge8" class="edge">
<title>tp_traverse&#45;&gt;reachable</title>
<path fill="none" stroke="black" d="M142.22,-525.13C130.72,-528.97 119.71,-535.14 112.63,-545 102.52,-559.08 102.52,-569.92 112.63,-584 120.76,-595.33 134.09,-601.78 147.39,-605.44"/>
<polygon fill="black" stroke="black" points="146.94,-608.93 157.46,-607.73 148.49,-602.1 146.94,-608.93"/>
<text text-anchor="start" x="124.63" y="-567.9" font-family="Times,serif" font-style="italic" font-size="12.00"> &#160;not in a &#160;</text>
<text text-anchor="start" x="112.63" y="-554.9" font-family="Times,serif" font-style="italic" font-size="12.00"> &#160;cyclic isolate &#160;</text>
</g>
<!-- tp_traverse&#45;&gt;finalized -->
<g id="life_events_graph_edge9" class="edge">
<title>tp_traverse&#45;&gt;finalized</title>
<path fill="none" stroke="black" d="M193.65,-499.81C196.81,-486.28 201.34,-466.88 205.38,-449.57"/>
<polygon fill="black" stroke="black" points="208.83,-450.22 207.69,-439.68 202.01,-448.62 208.83,-450.22"/>
<text text-anchor="start" x="206.13" y="-474.9" font-family="Times,serif" font-style="italic" font-size="12.00"> &#160;cyclic &#160;</text>
<text text-anchor="start" x="204.63" y="-461.9" font-family="Times,serif" font-style="italic" font-size="12.00"> &#160;isolate &#160;</text>
</g>
<!-- finalized&#45;&gt;tp_finalize -->
<g id="life_events_graph_edge11" class="edge">
<title>finalized&#45;&gt;tp_finalize</title>
<path fill="none" stroke="black" d="M180.06,-392.72C166.57,-385.75 151.51,-376.67 139.63,-366 131.22,-358.45 123.64,-348.66 117.56,-339.62"/>
<polygon fill="black" stroke="black" points="120.34,-337.47 112.01,-330.93 114.44,-341.24 120.34,-337.47"/>
<text text-anchor="start" x="146.63" y="-356.4" font-family="Times,serif" font-style="italic" font-size="12.00"> &#160;no (mark &#160;</text>
<text text-anchor="start" x="139.63" y="-343.4" font-family="Times,serif" font-style="italic" font-size="12.00"> &#160;as finalized) &#160;</text>
</g>
<!-- tp_clear -->
<g id="life_events_graph_node9" class="node">
<title>tp_clear</title>
<g id="a_life_events_graph_node9"><a xlink:href="typeobj.html#c.PyTypeObject.tp_clear" xlink:title="tp_clear" target="_top">
<ellipse fill="none" stroke="black" cx="196.63" cy="-233" rx="40.03" ry="18"/>
<text text-anchor="middle" x="196.63" y="-229.9" font-family="Courier,monospace" font-size="12.00">tp_clear</text>
</a>
</g>
</g>
<!-- finalized&#45;&gt;tp_clear -->
<g id="life_events_graph_edge12" class="edge">
<title>finalized&#45;&gt;tp_clear</title>
<path fill="none" stroke="black" d="M217.42,-376.27C219.07,-348 219.51,-305.44 208.8,-260.57"/>
<polygon fill="black" stroke="black" points="212.13,-259.47 206.26,-250.65 205.35,-261.21 212.13,-259.47"/>
<text text-anchor="start" x="218.63" y="-309.9" font-family="Times,serif" font-style="italic" font-size="12.00"> &#160;yes &#160;</text>
</g>
<!-- tp_finalize&#45;&gt;tp_clear -->
<g id="life_events_graph_edge13" class="edge">
<title>tp_finalize&#45;&gt;tp_clear</title>
<path fill="none" stroke="black" d="M110.39,-295.16C116.26,-283.95 125.25,-269.59 136.63,-260 142.05,-255.43 148.4,-251.54 154.91,-248.27"/>
<polygon fill="black" stroke="black" points="156.8,-251.26 164.45,-243.92 153.9,-244.89 156.8,-251.26"/>
<text text-anchor="start" x="142.63" y="-276.4" font-family="Times,serif" font-style="italic" font-size="12.00"> &#160;no refs or &#160;&#160;</text>
<text text-anchor="start" x="136.63" y="-263.4" font-family="Times,serif" font-style="italic" font-size="12.00"> &#160;cyclic isolate &#160;</text>
</g>
<!-- tp_finalize&#45;&gt;tp_dealloc -->
<g id="life_events_graph_edge14" class="edge">
<title>tp_finalize&#45;&gt;tp_dealloc</title>
<g id="a_life_events_graph_edge14"><a xlink:href="lifecycle.html#c.PyObject_CallFinalizerFromDealloc" xlink:title=" &#160;recommended&lt;br/&gt; &#160;call (see&lt;br/&gt; &#160;explanation)" target="_top">
<path fill="none" stroke="black" stroke-dasharray="5,2" d="M70.93,-290.53C34.33,-262.9 -17.9,-212.99 6.63,-167 29.67,-123.81 84.83,-103.08 123.69,-93.54"/>
<polygon fill="none" stroke="black" points="69.25,-293.64 79.39,-296.73 73.39,-287.99 69.25,-293.64"/>
</a>
</g>
<g id="a_life_events_graph_edge14&#45;label"><a xlink:href="lifecycle.html#c.PyObject_CallFinalizerFromDealloc" xlink:title=" &#160;recommended&lt;br/&gt; &#160;call (see&lt;br/&gt; &#160;explanation)" target="_top">
<text text-anchor="start" x="6.63" y="-196.4" font-family="Times,serif" font-style="italic" font-size="12.00"> &#160;recommended</text>
<text text-anchor="start" x="20.63" y="-183.4" font-family="Times,serif" font-style="italic" font-size="12.00"> &#160;call (see</text>
<text text-anchor="start" x="10.63" y="-170.4" font-family="Times,serif" font-style="italic" font-size="12.00"> &#160;explanation)</text>
</a>
</g>
</g>
<!-- tp_finalize&#45;&gt;tp_dealloc -->
<g id="life_events_graph_edge15" class="edge">
<title>tp_finalize&#45;&gt;tp_dealloc</title>
<path fill="none" stroke="black" d="M103.69,-294.65C105.75,-267.05 111.41,-211.69 125.63,-167 131.77,-147.69 141.9,-127.24 150.43,-111.72"/>
<polygon fill="black" stroke="black" points="153.63,-113.18 155.48,-102.75 147.53,-109.75 153.63,-113.18"/>
<text text-anchor="start" x="125.63" y="-183.4" font-family="Times,serif" font-style="italic" font-size="12.00"> &#160;&#160;no refs &#160;</text>
</g>
<!-- uncollectable -->
<g id="life_events_graph_node10" class="node">
<title>uncollectable</title>
<polygon fill="none" stroke="black" points="308.63,-158 228.63,-158 228.63,-122 308.63,-122 308.63,-158"/>
<text text-anchor="start" x="236.63" y="-143.4" font-family="Times,serif" font-style="italic" font-size="12.00">uncollectable</text>
<text text-anchor="start" x="249.13" y="-130.4" font-family="Times,serif" font-style="italic" font-size="12.00">(leaked)</text>
</g>
<!-- tp_clear&#45;&gt;uncollectable -->
<g id="life_events_graph_edge17" class="edge">
<title>tp_clear&#45;&gt;uncollectable</title>
<path fill="none" stroke="black" d="M209.5,-215.73C220.46,-201.89 236.36,-181.78 248.92,-165.91"/>
<polygon fill="black" stroke="black" points="251.68,-168.07 255.14,-158.05 246.19,-163.73 251.68,-168.07"/>
<text text-anchor="start" x="248.13" y="-189.9" font-family="Times,serif" font-style="italic" font-size="12.00"> &#160;cyclic &#160;</text>
<text text-anchor="start" x="246.63" y="-176.9" font-family="Times,serif" font-style="italic" font-size="12.00"> &#160;isolate &#160;</text>
</g>
<!-- tp_clear&#45;&gt;tp_dealloc -->
<g id="life_events_graph_edge16" class="edge">
<title>tp_clear&#45;&gt;tp_dealloc</title>
<path fill="none" stroke="black" d="M190.76,-215.16C185.78,-200.29 178.81,-177.94 174.63,-158 171.55,-143.31 169.39,-126.7 167.96,-113.13"/>
<polygon fill="black" stroke="black" points="171.42,-112.62 166.96,-103.01 164.46,-113.3 171.42,-112.62"/>
<text text-anchor="start" x="174.63" y="-136.9" font-family="Times,serif" font-style="italic" font-size="12.00"> &#160;no refs &#160;</text>
</g>
<!-- uncollectable&#45;&gt;tp_dealloc -->
<!-- tp_free -->
<g id="life_events_graph_node12" class="node">
<title>tp_free</title>
<g id="a_life_events_graph_node12"><a xlink:href="typeobj.html#c.PyTypeObject.tp_free" xlink:title="tp_free" target="_top">
<ellipse fill="none" stroke="black" cx="165.63" cy="-18" rx="36.14" ry="18"/>
<text text-anchor="middle" x="165.63" y="-14.9" font-family="Courier,monospace" font-size="12.00">tp_free</text>
</a>
</g>
</g>
<!-- tp_dealloc&#45;&gt;tp_free -->
<g id="life_events_graph_edge20" class="edge">
<title>tp_dealloc&#45;&gt;tp_free</title>
<path fill="none" stroke="black" d="M165.63,-66.92C165.63,-60.7 165.63,-53.5 165.63,-46.6"/>
<polygon fill="none" stroke="black" points="169.13,-46.19 165.63,-36.19 162.13,-46.19 169.13,-46.19"/>
<text text-anchor="start" x="165.63" y="-48.4" font-family="Times,serif" font-style="italic" font-size="12.00"> &#160;&#160;&#160;direct call &#160;</text>
</g>
</g>
</svg>
