<?xml version="1.0" encoding="UTF-8"?>
<svg width="27px" height="16px" viewBox="0 0 27 16" version="1.1" xmlns="http://www.w3.org/2000/svg" xmlns:xlink="http://www.w3.org/1999/xlink">
    <!-- Generator: Sketch 59 (86127) - https://sketch.com -->
    <title>Slice</title>
    <desc>Created with Sketch.</desc>
    <g id="light" stroke="none" stroke-width="1" fill="none" fill-rule="evenodd">
        <g id="QL" transform="translate(1.000000, 1.000000)">
            <rect id="Rectangle-41" stroke="#2088FF" stroke-width="2" stroke-linecap="round" stroke-linejoin="round" x="0" y="0" width="25" height="14" rx="2"></rect>
            <line x1="17" y1="5" x2="19" y2="5" id="Stroke-15" stroke="#2088FF" stroke-width="2" stroke-linecap="round" stroke-linejoin="round"></line>
            <line x1="17" y1="9" x2="21" y2="9" id="Stroke-15" stroke="#2088FF" stroke-width="2" stroke-linecap="round" stroke-linejoin="round"></line>
            <path d="M8.85227273,7 C8.85227273,7.51894199 8.76988719,7.97537682 8.60511364,8.36931818 C8.44034009,8.76325955 8.21591051,9.08711994 7.93181818,9.34090909 L8.76420455,10.3863636 L7.61647727,10.3863636 L7.14772727,9.80965909 C6.83143781,9.92897787 6.49147909,9.98863636 6.12784091,9.98863636 C5.61079287,9.98863636 5.14678236,9.8712133 4.73579545,9.63636364 C4.32480855,9.40151398 4.00000119,9.06108178 3.76136364,8.61505682 C3.52272608,8.16903186 3.40340909,7.63068497 3.40340909,7 C3.40340909,6.36552713 3.52272608,5.8257598 3.76136364,5.38068182 C4.00000119,4.93560384 4.32480855,4.59611859 4.73579545,4.36221591 C5.14678236,4.12831322 5.61079287,4.01136364 6.12784091,4.01136364 C6.642995,4.01136364 7.10605855,4.12831322 7.51704545,4.36221591 C7.92803236,4.59611859 8.2533132,4.93560384 8.49289773,5.38068182 C8.73248226,5.8257598 8.85227273,6.36552713 8.85227273,7 Z M5.70170455,7.88636364 L6.74715909,7.88636364 L7.17897727,8.44034091 C7.31344764,8.27935526 7.41808675,8.07859969 7.49289773,7.83806818 C7.56770871,7.59753668 7.60511364,7.31818341 7.60511364,7 C7.60511364,6.38257267 7.47064528,5.91145996 7.20170455,5.58664773 C6.93276381,5.2618355 6.57481284,5.09943182 6.12784091,5.09943182 C5.68086898,5.09943182 5.32291801,5.2618355 5.05397727,5.58664773 C4.78503653,5.91145996 4.65056818,6.38257267 4.65056818,7 C4.65056818,7.61553338 4.78503653,8.08617261 5.05397727,8.41193182 C5.32291801,8.73769102 5.68086898,8.90056818 6.12784091,8.90056818 C6.23958389,8.90056818 6.34564344,8.89015162 6.44602273,8.86931818 L5.70170455,7.88636364 Z M10.1813315,10 L10.1813315,4 L11.4114451,4 L11.4114451,8.98579545 L13.9057633,8.98579545 L13.9057633,10 L10.1813315,10 Z" fill="#2088FF" fill-rule="nonzero"></path>
        </g>
    </g>
</svg>