/* XPM */
static char * textfile_xpm[] = {
"12 12 3 1",
" 	s None	c None",
".	c black",
"X	c #FFFFFFFFF3CE",
" ........   ",
" .XXXXXX.   ",
" .XXXXXX... ",
" .X....XXX. ",
" .XXXXXXXX. ",
" .X...XXXX. ",
" .XXXXXXXX. ",
" .X.....XX. ",
" .XXXXXXXX. ",
" .X.....XX. ",
" .XXXXXXXX. ",
" .......... "};
