<svg xmlns="http://www.w3.org/2000/svg" width="32" height="32" viewBox="0 0 32 32" fill="none">
  <path d="M16.010 6.49c-3.885 0-7.167 0.906-9.328 2.813-0.063-0.12-0.109-0.219-0.188-0.339-0.224-0.365-0.438-0.776-1.104-1.188-0.411-0.26-0.87-0.438-1.349-0.516-0.208-0.021-0.422-0.021-0.63 0l0.135-0.016c-1.214 0-1.922 0.724-2.385 1.354-0.458 0.625-0.755 1.328-0.948 2.099-0.38 1.542-0.385 3.536 1.083 5.026 0.766 0.781 1.667 1.151 2.484 1.37 0.156 0.042 0.297 0.052 0.448 0.083 0.531 2.521 2.104 4.656 4.208 5.839v0.005c1.24 0.693 2.417 1.010 3.297 1.349 1.234 0.479 2.536 1 4.052 1.135l0.078 0.005h0.198c1.745 0 3.063-0.703 4.203-1.141 0.875-0.333 2.052-0.641 3.302-1.344 0.578-0.323 1.115-0.719 1.594-1.172 1.318-1.234 2.229-2.839 2.625-4.599 1.115-0.182 2.141-0.719 2.922-1.536 1.464-1.484 1.458-3.479 1.078-5.021-0.193-0.771-0.49-1.474-0.948-2.099-0.458-0.63-1.172-1.354-2.385-1.354l0.135 0.016c-0.208-0.021-0.422-0.021-0.63 0-0.479 0.078-0.938 0.255-1.344 0.516-0.667 0.411-0.88 0.823-1.104 1.182-0.073 0.12-0.12 0.219-0.188 0.333-2.156-1.901-5.432-2.802-9.313-2.802zM16.042 8.313c4.745 0 8.016 1.422 9.411 3.964 0.839-0.323 1.453-2.521 2.146-2.948 0.563-0.344 0.885-0.26 0.885-0.26 1.271 0 2.578 3.729 0.953 5.38-0.859 0.875-2.443 1.12-3.229 1.057-0.063 2.542-1.542 4.833-3.5 5.932-1 0.563-2.068 0.854-3.063 1.234-1.229 0.469-2.38 1.016-3.547 1.016h-0.125c-1.161-0.099-2.318-0.542-3.547-1.016-0.995-0.38-2.068-0.682-3.063-1.24-1.948-1.099-3.427-3.391-3.49-5.927-0.781 0.068-2.385-0.177-3.245-1.057-1.625-1.651-0.318-5.38 0.948-5.38 0 0 0.328-0.083 0.885 0.26 0.698 0.427 1.318 2.646 2.161 2.953 1.391-2.547 4.667-3.969 9.417-3.969zM10.875 11.422c-2.276-0.042-4.146 1.792-4.146 4.068 0 2.281 1.87 4.115 4.146 4.073 5.328-0.099 5.328-8.047 0-8.141zM21.208 11.422c-5.427 0-5.427 8.141 0 8.141s5.427-8.141 0-8.141zM11.453 13.708c2.349 0.063 2.349 3.552 0 3.615-1.182 0-2.042-1.115-1.75-2.255 0.318 0.771 1.469 0.547 1.464-0.292 0-0.406-0.318-0.745-0.729-0.76 0.302-0.203 0.656-0.313 1.016-0.307zM20.641 13.708c2.344 0.063 2.344 3.552 0 3.615-1.182 0-2.047-1.115-1.755-2.255 0.229 0.552 0.979 0.641 1.328 0.146 0.344-0.49 0.010-1.167-0.589-1.193 0.297-0.208 0.651-0.313 1.016-0.313zM15.359 19.906c-0.318 0.026-0.5 0.193-0.5 0.635 0 0.281 0.182 0.484 0.5 0.484 0.229 0 0.266-0.323 0.047-0.375-0.031-0.005-0.172-0.057-0.172-0.182 0-0.12 0-0.167 0.24-0.198 0.104-0.016 0.156-0.141 0.125-0.24s-0.125-0.135-0.24-0.125zM16.724 19.906c-0.115-0.005-0.208 0.026-0.24 0.125s0.021 0.224 0.125 0.24c0.24 0.031 0.24 0.078 0.24 0.198 0 0.125-0.141 0.177-0.172 0.182-0.219 0.052-0.182 0.375 0.042 0.375 0.323 0 0.51-0.203 0.51-0.484 0-0.443-0.188-0.609-0.505-0.635z" fill="#C5C5C5"/>
  <line y2="24" x2="16" y1="26" x1="32" stroke-width="2" stroke="green" fill="none"/>
  <line y2="16" x2="24" y1="32" x1="24" stroke-width="1" stroke="green" fill="none"/>
</svg>
