<svg xmlns="http://www.w3.org/2000/svg" viewBox="0 0 32 32"><style>.icon-canvas-transparent{opacity:0;fill:#f6f6f6}.icon-vs-out{fill:#f6f6f6}.icon-white{fill:#fff}.icon-vso-bg{fill:#656565}.icon-visualstudio-online{fill:#007acc}.graph-lightgrey{fill:#dfdfdf}.st0{fill:#0078d7}.st1{fill:#fff}.st2{fill:url(#path1948_1_)}.st3{fill:url(#path1950_1_)}</style><path class="icon-canvas-transparent" d="M32 32H0V0h32v32z" id="canvas"/><g id="iconBg"><path class="icon-visualstudio-online" d="M30 5H5V3h25v2z"/><path class="icon-vso-bg" d="M29.972 26.972H5.029V5h.942v21.028h23.057V5h.943v21.972z"/><path class="icon-vs-out" d="M29 5v21H6V5h23z"/><path class="icon-white" d="M29.141 4l.429.429-.14.142-.43-.43-.43.43-.14-.142.429-.429-.429-.429.141-.142.429.43.43-.43.141.142-.43.429zM27.6 3.4h-1.2v1.2h1.2V3.4zm-1 .2h.8v.8h-.8v-.8zm-1.139.8h-1v.2h1v-.2z"/><path class="graph-lightgrey" d="M6 5h23v2H6z"/></g><g id="iconFg"><path class="st0" d="M4.5 23v6"/><path class="st1" d="M11.429 13.019a19.88 19.88 0 0 0 .071-1.645c0-4.223-1.329-8.165-3.556-10.545L7.17 0H5.83l-.774.829C2.829 3.209 1.5 7.151 1.5 11.374c0 .453.023.9.053 1.345C.887 13.472.357 14.438 0 15.533v6.603L.229 23H3v7h2v2h3v-1h2v-8h2.772l.394-1.488c.222-.842.335-1.714.335-2.592-.001-2.419-.803-4.534-2.072-5.901z"/><path class="st0" d="M6.5 22v9M8.5 23v7"/><path class="icon-visualstudio-online" d="M5 29H4v-6h1v6zm2-6H6v8h1v-8zm2 0H8v7h1v-7z"/><path class="icon-vso-bg" d="M10.381 13.38c.07-.658.119-1.325.119-2.006 0-3.975-1.229-7.662-3.286-9.862L6.5.748l-.714.763C3.729 3.712 2.5 7.399 2.5 11.374c0 .681.049 1.348.119 2.006C1.339 14.521.5 16.552.5 18.92c0 .793.102 1.578.302 2.336L.999 22h1.966l.072-.922c.081-1.046.471-1.966.993-2.503.487 1.019 1.07 1.929 1.756 2.662L6.5 22l.714-.763c.686-.733 1.269-1.643 1.756-2.662.522.537.912 1.457.993 2.503l.072.922h1.966l.197-.744c.2-.758.302-1.543.302-2.336 0-2.368-.839-4.399-2.119-5.54z"/><path class="icon-vs-out" d="M3.619 17.615c-.854.672-1.464 1.913-1.579 3.385h-.272a8.184 8.184 0 0 1-.268-2.08c0-1.722.505-3.259 1.297-4.272.187 1.05.465 2.045.822 2.967zm6.585-2.967a16.145 16.145 0 0 1-.822 2.967c.854.671 1.464 1.913 1.579 3.385h.272a8.184 8.184 0 0 0 .268-2.08c-.001-1.722-.506-3.259-1.297-4.272zM3.5 11.374c0 3.837 1.198 7.2 3 9.128 1.802-1.927 3-5.291 3-9.128s-1.198-7.2-3-9.128c-1.802 1.928-3 5.291-3 9.128z"/><path class="icon-visualstudio-online" d="M7.5 7a1 1 0 1 1-2 0 1 1 0 0 1 2 0z"/></g><g id="colorImportance"><path class="icon-white" d="M31.596 23.961c-.35 1.053-1.001 3.015-3.247 3.015h-1.3v1.337c0 .905-.392 2.537-3.021 3.298a9.213 9.213 0 0 1-2.59.39c-.83 0-1.668-.128-2.564-.392-1.918-.563-3.017-1.765-3.017-3.296v-1.337h-1.155c-1.698 0-2.943-1.129-3.416-3.098-.469-1.946-.469-3.195 0-5.141.451-1.881 1.96-3.098 3.845-3.098h.726v-1.337c0-2.005.905-2.982 3.126-3.374.729-.13 1.549-.2 2.367-.203h.004c.925 0 1.761.067 2.56.201 1.816.303 3.134 1.723 3.134 3.376v1.337h1.3c1.142 0 2.636.536 3.27 3.092.516 2.073.51 3.637-.022 5.23z"/><linearGradient id="path1948_1_" gradientUnits="userSpaceOnUse" x1="522.205" y1="-288.668" x2="540.902" y2="-304.754" gradientTransform="matrix(.5625 0 0 -.568 -282.272 -151.69)"><stop offset="0" stop-color="#5a9fd4"/><stop offset="1" stop-color="#306998"/></linearGradient><path id="path1948_7_" class="st2" d="M21.354 11.725c-.786.004-1.537.071-2.197.188-1.946.344-2.299 1.063-2.299 2.39v1.753h4.598v.584h-6.324c-1.336 0-2.507.803-2.873 2.331-.422 1.751-.441 2.844 0 4.673.327 1.361 1.107 2.331 2.444 2.331h1.581v-2.101c0-1.518 1.313-2.857 2.873-2.857h4.593c1.279 0 2.299-1.053 2.299-2.337v-4.379c0-1.246-1.051-2.182-2.299-2.39-.79-.13-1.61-.189-2.396-.186zm-2.486 1.41c.475 0 .863.394.863.879a.87.87 0 0 1-.863.874.868.868 0 0 1-.863-.874c0-.485.386-.879.863-.879z"/><linearGradient id="path1950_1_" gradientUnits="userSpaceOnUse" x1="548.13" y1="-314.489" x2="541.454" y2="-305.043" gradientTransform="matrix(.5625 0 0 -.568 -282.272 -151.69)"><stop offset="0" stop-color="#ffd43b"/><stop offset="1" stop-color="#ffe873"/></linearGradient><path id="path1950_7_" class="st3" d="M26.623 16.64v2.042c0 1.583-1.342 2.915-2.873 2.915h-4.593c-1.258 0-2.299 1.077-2.299 2.337v4.379c0 1.246 1.084 1.979 2.299 2.337 1.456.428 2.851.505 4.593 0 1.158-.335 2.299-1.01 2.299-2.337V26.56h-4.593v-.584H28.348c1.336 0 1.834-.932 2.299-2.331.48-1.44.46-2.826 0-4.673-.33-1.33-.961-2.331-2.299-2.331h-1.725zm-2.584 11.089c.477 0 .863.391.863.874a.871.871 0 0 1-.863.879.872.872 0 0 1-.863-.879.87.87 0 0 1 .863-.874z"/></g></svg>