<svg xmlns="http://www.w3.org/2000/svg" viewBox="0 0 32 32"><style>.icon-canvas-transparent{opacity:0;fill:#f6f6f6}.icon-vso-bg{fill:#656565}.icon-vs-out{fill:#f6f6f6}.icon-f12-hover-bg{fill:#d9ebf7}.icon-f12-ltgrey-disabled{fill:#ababac}.icon-white{fill:#fff}.st0{fill:#9ca2a7}.st1{fill:url(#path1948_1_)}.st2{fill:url(#path1950_1_)}</style><path class="icon-canvas-transparent" d="M32 32H0V0h32v32z" id="canvas"/><g id="iconBg"><path class="icon-vs-out" d="M21.053 3H7v26h19V8.009z"/><path class="icon-vso-bg" d="M21.471 2H6v28h21V7.599L21.471 2zM21 3h.053l4.939 5H21V3zm5 26H7V3h13v6h6v20z"/></g><g id="iconFg"><path class="st0" d="M13.784 17.705c-1.296 0-2.35-1.054-2.35-2.35s1.054-2.35 2.35-2.35 2.35 1.054 2.35 2.35-1.054 2.35-2.35 2.35zm0-4.5c-1.186 0-2.15.964-2.15 2.15s.964 2.151 2.15 2.151 2.15-.965 2.15-2.151-.964-2.15-2.15-2.15z"/><path class="icon-f12-hover-bg" d="M18.05 16.122c.016-.069.031-.139.043-.209l1.376-.618-.103-1.015-1.47-.33c-.025-.068-.056-.134-.086-.199l-.026-.056.892-1.236-.595-.827-1.45.453c-.069-.061-.141-.118-.213-.175l.151-1.511-.929-.418-1.032 1.121-.056-.013a3.089 3.089 0 0 0-.217-.045l-.618-1.374-1.015.104-.329 1.472c-.049.019-.096.04-.143.063l-.056.025-1.225-.907-.835.586.435 1.457c-.06.067-.123.138-.182.212l-1.506-.172-.429.925L9.54 14.48l-.005.024a4.127 4.127 0 0 0-.051.246l-1.387.606.092 1.015 1.463.346c.024.067.055.132.084.194l.03.067-.86 1.17-.042.059.588.832 1.456-.44c.07.063.138.122.209.178l-.167 1.508.926.427L12.92 19.6l.048.01c.074.017.149.034.226.046l.609 1.385 1.015-.095.342-1.466c.075-.027.147-.061.216-.093l.067-.031 1.235.892.827-.595-.452-1.45c.062-.071.12-.142.176-.215l1.512.151.418-.929-1.122-1.033.013-.055zm-4.266 1.583c-1.296 0-2.35-1.054-2.35-2.35s1.054-2.35 2.35-2.35 2.35 1.054 2.35 2.35-1.054 2.35-2.35 2.35z"/><path class="icon-f12-ltgrey-disabled" d="M13.803 21.04l-.609-1.384a3.08 3.08 0 0 1-.236-.048l-.038-.008-1.043 1.111-.925-.427.167-1.507a4.013 4.013 0 0 1-.209-.179l-1.456.439-.588-.832.902-1.228-.033-.072c-.028-.061-.058-.124-.082-.19l-1.463-.344-.091-1.015 1.387-.605c.012-.078.03-.154.047-.231l.009-.039-1.109-1.045.428-.925 1.507.17c.058-.072.118-.14.183-.211l-.435-1.458.834-.585 1.225.907.052-.024c.048-.022.097-.044.147-.063l.329-1.473 1.014-.104.62 1.375a2.389 2.389 0 0 1 .271.058l1.032-1.122.93.418-.153 1.511c.073.055.143.113.214.174l1.45-.453.595.827-.892 1.236a.8.8 0 0 1 .024.053c.03.064.062.131.087.201l1.471.332.103 1.014-1.376.618c-.012.071-.027.14-.043.208l-.014.058 1.122 1.033-.419.929-1.511-.152a3.851 3.851 0 0 1-.176.215l.452 1.45-.827.595-1.236-.892-.07.032a2.94 2.94 0 0 1-.212.092l-.341 1.465-1.015.095zm-.951-1.66l.151.033c.089.021.179.042.272.053l.056.007.597 1.354.728-.067.333-1.435.054-.018c.083-.025.161-.062.244-.101.042-.02.084-.039.127-.057l.052-.022 1.211.874.593-.427-.442-1.421.038-.043c.085-.094.163-.188.236-.288l.033-.046 1.48.15.3-.667-1.099-1.012.012-.055.025-.117c.019-.08.037-.16.047-.244l.007-.056 1.348-.605-.073-.728-1.441-.324-.018-.055c-.025-.081-.061-.157-.096-.233a2.145 2.145 0 0 1-.05-.109l-.022-.052.874-1.212-.427-.593-1.42.443-.042-.038a3.896 3.896 0 0 0-.288-.235L16.207 12l.149-1.48-.667-.3-1.012 1.1-.056-.011c-.04-.008-.08-.018-.119-.027-.082-.019-.162-.038-.246-.048l-.056-.005-.607-1.346-.727.074-.323 1.441-.054.018c-.063.02-.121.047-.18.074-.037.017-.073.034-.111.049l-.052.022-1.2-.89-.599.42.426 1.429-.038.042a4.07 4.07 0 0 0-.244.284l-.034.045-1.476-.167-.307.663 1.086 1.024-.034.151c-.02.089-.041.177-.052.269l-.007.056-1.358.593.066.728 1.431.337.017.055c.024.077.058.148.091.22.021.043.041.086.059.131l.022.052-.885 1.203.422.598 1.426-.432.042.038c.083.075.179.163.282.24l.045.035-.163 1.476.664.306 1.024-1.087zM20.918 22.972a1.35 1.35 0 1 1 .001-2.699 1.35 1.35 0 0 1-.001 2.699zm0-2.5c-.634 0-1.15.517-1.15 1.15s.517 1.15 1.15 1.15 1.15-.517 1.15-1.15-.516-1.15-1.15-1.15z"/><path class="icon-f12-hover-bg" d="M24.901 22.028v-.812l-1.269-.423a2.747 2.747 0 0 0-.21-.505l.599-1.196-.574-.574-1.196.599a2.81 2.81 0 0 0-.505-.209l-.423-1.268h-.811l-.423 1.268a2.81 2.81 0 0 0-.505.209l-1.197-.599-.573.574.599 1.196a2.747 2.747 0 0 0-.21.505l-1.268.423v.812l1.268.422c.054.175.124.345.21.506l-.599 1.196.573.574 1.197-.6c.161.087.331.157.505.21l.423 1.269h.811l.423-1.269c.174-.053.343-.123.505-.21l1.196.6.574-.574-.599-1.196c.086-.161.156-.331.21-.506l1.269-.422zm-3.983.943c-.744 0-1.35-.606-1.35-1.35 0-.744.605-1.35 1.35-1.35.744 0 1.35.605 1.35 1.35 0 .745-.606 1.35-1.35 1.35z"/><path class="icon-f12-ltgrey-disabled" d="M21.323 25.604h-.811l-.423-1.269a2.814 2.814 0 0 1-.505-.209l-1.197.599-.573-.574.599-1.196a2.747 2.747 0 0 1-.21-.505l-1.269-.423v-.812l1.269-.422c.054-.175.124-.345.21-.506l-.599-1.196.573-.573 1.197.599c.161-.087.331-.157.505-.21l.423-1.269h.811l.423 1.269c.174.053.344.123.505.21l1.196-.599.574.573-.599 1.196c.086.161.156.331.21.506l1.269.422v.812l-1.269.423a2.747 2.747 0 0 1-.21.505l.599 1.196-.574.574-1.196-.599a2.814 2.814 0 0 1-.505.209l-.423 1.269zm-.666-.199h.521l.411-1.232.051-.015c.193-.054.382-.132.56-.231l.046-.026 1.162.581.369-.369-.58-1.162.026-.046c.099-.178.177-.366.232-.56l.014-.051 1.232-.411v-.523l-1.232-.41-.014-.051a2.81 2.81 0 0 0-.232-.561l-.026-.046.58-1.162-.369-.368-1.162.58-.046-.026a2.627 2.627 0 0 0-.56-.232l-.05-.014-.411-1.232h-.521l-.411 1.232-.051.014a2.758 2.758 0 0 0-.56.232l-.046.026-1.163-.58-.368.368.58 1.162-.026.046a2.675 2.675 0 0 0-.232.561l-.014.051-1.232.41v.522l1.232.411.014.051c.056.193.134.382.232.56l.026.046-.58 1.162.368.369 1.163-.581.046.026c.178.1.366.178.56.231l.051.015.41 1.233z"/></g><g id="colorImportance"><path class="icon-white" d="M31.66 24.063C31.312 25.116 30.661 27 28.413 27H27v1.313c0 .905-.335 2.537-2.965 3.298-.904.261-1.694.389-2.531.389-.83 0-1.63-.128-2.526-.392C17.061 31.045 16 29.844 16 28.313V27h-1.232c-1.699 0-2.944-1.141-3.416-3.11-.469-1.946-.469-3.021 0-4.967.451-1.881 1.96-2.923 3.845-2.923H16v-1.697c0-2.005.866-2.845 3.087-3.238.727-.128 1.506-.065 2.327-.065h.003c.921 0 1.703-.07 2.504.064 1.818.302 3.079 1.585 3.079 3.239V16h1.413c1.142 0 2.636.356 3.27 2.912.515 2.072.509 3.558-.023 5.151z"/><linearGradient id="path1948_1_" gradientUnits="userSpaceOnUse" x1="522.32" y1="-288.668" x2="541.017" y2="-304.754" gradientTransform="matrix(.5625 0 0 -.568 -282.272 -151.69)"><stop offset="0" stop-color="#5a9fd4"/><stop offset="1" stop-color="#306998"/></linearGradient><path id="path1948_5_" class="st1" d="M21.419 11.725c-.786.004-1.537.071-2.197.188-1.946.344-2.299 1.063-2.299 2.39v1.753h4.598v.584h-6.324c-1.336 0-2.507.803-2.873 2.331-.422 1.751-.441 2.844 0 4.673.327 1.361 1.108 2.331 2.444 2.331h1.581v-2.101c0-1.518 1.313-2.857 2.873-2.857h4.593c1.278 0 2.299-1.053 2.299-2.337v-4.379c0-1.246-1.051-2.182-2.299-2.39-.79-.13-1.61-.189-2.396-.186zm-2.487 1.41c.475 0 .863.394.863.879a.87.87 0 0 1-.863.874.868.868 0 0 1-.863-.874c0-.485.387-.879.863-.879z"/><linearGradient id="path1950_1_" gradientUnits="userSpaceOnUse" x1="548.245" y1="-314.489" x2="541.569" y2="-305.043" gradientTransform="matrix(.5625 0 0 -.568 -282.272 -151.69)"><stop offset="0" stop-color="#ffd43b"/><stop offset="1" stop-color="#ffe873"/></linearGradient><path id="path1950_5_" class="st2" d="M26.687 16.64v2.042c0 1.583-1.342 2.915-2.873 2.915h-4.593c-1.258 0-2.299 1.077-2.299 2.337v4.379c0 1.246 1.084 1.979 2.299 2.337 1.456.428 2.851.505 4.593 0 1.158-.335 2.299-1.01 2.299-2.337V26.56H21.52v-.584H28.412c1.336 0 1.834-.932 2.299-2.331.48-1.44.46-2.826 0-4.673-.33-1.33-.961-2.331-2.299-2.331h-1.725zm-2.583 11.089c.477 0 .863.391.863.874a.871.871 0 0 1-.863.879.872.872 0 0 1-.863-.879c0-.484.388-.874.863-.874z"/></g></svg>