<svg xmlns="http://www.w3.org/2000/svg" viewBox="0 0 32 32"><style>.icon-canvas-transparent{opacity:0;fill:#f6f6f6}.icon-visualstudio-online{fill:#007acc}.icon-disabled-grey{fill:#848484}.icon-white{fill:#fff}.st0{fill:#f0eff1}.st1{fill:#424242}.st2{fill:url(#path1948_1_)}.st3{fill:url(#path1950_1_)}</style><path class="icon-canvas-transparent" d="M32 32H0V0h32v32z" id="canvas"/><g id="iconBg"><path class="st0" d="M18 8v10H1V8h17zm-1.191 15.572a1.004 1.004 0 0 0-.903-.572H2.907c-.385 0-.74.225-.903.572L.886 25.928A.748.748 0 0 0 1.563 27H17.25a.748.748 0 0 0 .677-1.072l-1.118-2.356z"/><path class="icon-disabled-grey" d="M17.927 25.929l-1.118-2.356a1.003 1.003 0 0 0-.903-.573H2.907c-.385 0-.74.225-.903.572L.886 25.928A.748.748 0 0 0 1.563 27H17.25a.747.747 0 0 0 .633-.349.746.746 0 0 0 .044-.722zM1.959 26l.949-2h12.998l.949 2H1.959zM6 22v-1h3v-2h1v2h3v1H6z"/><path class="st1" d="M0 7v12h19V7H0zm18 11H1V8h17v10z"/></g><g id="iconFg"><path class="icon-white" d="M12 6V0H7v6H2.755L9.5 13.495 16.245 6z"/><path class="icon-visualstudio-online" d="M8 4h3v3h3l-4.5 5L5 7h3V4zm3-2H8v1h3V2zm0-2H8v1h3V0z"/></g><g id="colorImportance"><path class="icon-white" d="M31.596 24.063C31.246 25.116 30.595 27 28.349 27H27v1.313c0 .905-.368 2.537-2.997 3.298-.903.261-1.727.389-2.565.389-.83 0-1.597-.128-2.493-.392C17.029 31.045 16 29.844 16 28.313V27h-1.296c-1.698 0-2.944-1.141-3.417-3.11-.469-1.944-.469-3.02 0-4.967.451-1.881 1.961-2.923 3.845-2.923H16v-1.697c0-2.005.834-2.845 3.054-3.238.728-.128 1.474-.065 2.296-.065h.003c.921 0 1.735-.07 2.537.064 1.816.303 3.11 1.585 3.11 3.24V16h1.349c1.142 0 2.636.356 3.27 2.912.515 2.072.509 3.559-.023 5.151z"/><linearGradient id="path1948_1_" gradientUnits="userSpaceOnUse" x1="522.205" y1="-288.668" x2="540.902" y2="-304.754" gradientTransform="matrix(.5625 0 0 -.568 -282.272 -151.69)"><stop offset="0" stop-color="#5a9fd4"/><stop offset="1" stop-color="#306998"/></linearGradient><path id="path1948_9_" class="st2" d="M21.354 11.725c-.786.004-1.537.071-2.197.188-1.946.344-2.299 1.063-2.299 2.39v1.753h4.598v.584h-6.324c-1.336 0-2.507.803-2.873 2.331-.422 1.751-.441 2.844 0 4.673.327 1.361 1.108 2.331 2.444 2.331h1.581v-2.101c0-1.518 1.313-2.857 2.873-2.857h4.593c1.279 0 2.299-1.053 2.299-2.337v-4.379c0-1.246-1.051-2.182-2.299-2.39-.79-.13-1.61-.189-2.396-.186zm-2.486 1.41c.475 0 .863.394.863.879a.87.87 0 0 1-.863.874.868.868 0 0 1-.863-.874c0-.485.386-.879.863-.879z"/><linearGradient id="path1950_1_" gradientUnits="userSpaceOnUse" x1="548.13" y1="-314.489" x2="541.454" y2="-305.043" gradientTransform="matrix(.5625 0 0 -.568 -282.272 -151.69)"><stop offset="0" stop-color="#ffd43b"/><stop offset="1" stop-color="#ffe873"/></linearGradient><path id="path1950_9_" class="st3" d="M26.623 16.64v2.042c0 1.583-1.342 2.915-2.873 2.915h-4.593c-1.258 0-2.299 1.077-2.299 2.337v4.379c0 1.246 1.084 1.979 2.299 2.337 1.456.428 2.851.505 4.593 0 1.158-.335 2.299-1.01 2.299-2.337V26.56h-4.593v-.584H28.348c1.336 0 1.834-.932 2.299-2.331.48-1.44.46-2.826 0-4.673-.33-1.33-.961-2.331-2.299-2.331h-1.725zm-2.584 11.089c.477 0 .863.391.863.874a.871.871 0 0 1-.863.879.872.872 0 0 1-.863-.879.87.87 0 0 1 .863-.874z"/></g></svg>