/* XPM */
static char * optmenu_xpm[] = {
"50 40 5 1",
" 	s None	c None",
".	c white",
"X	c gray80",
"o	c gray50",
"O	c black",
"                                                  ",
"                                                  ",
"   ..............................                 ",
"   .XXXXXXXXXXXXXXXXXXXXXXXXXXXXo                 ",
"   .XXXXXXXXXXXXXXXXXXXXXXXXXXXXo                 ",
"   .XXXXXXXXXXXXXXXXXXXXXXXXXXXXo                 ",
"   .XXXOXOXXOXXOXXXXOOXXXXXXXXXXo                 ",
"   .XXXOXOXXOXOXXXOXXOXXXXXXXXXXo                 ",
"   .XXXXOXXOXXOXXXOXXXOXXXXXXXXXo                 ",
"   .XXXXOXXXOXXOOXXOXOXXXXXXXXXXo                 ",
"   .XXXXXXXXXXXXXXXXXXXXXXXXXXXXo                 ",
"   .XXXXXXXXXXXXXXXXXXXXXXXXXXXXo.............o   ",
"   .............................o             o   ",
"   ..XXXOXXXXXOXXXXXXXXOXXXXXXXOo             o   ",
"   ..XXOXOXOXXOXOXXXOXXOXXXXXXXOo     ......  o   ",
"   ..XXXOXXXOXXOXXXOXXXOXXXXXXXOo     .    o  o   ",
"   ..XXOXXXOXXXOXOXXOXXOXXXXXXXOo     .    o  o   ",
"   ..XXXXXXXXXXXXXXXXXXXXXXXXXXOo     .ooooo  o   ",
"   .OOOOOOOOOOOOOOOOOOOOOOOOOOOOo             o   ",
"   .XXXXXXXXXXXXXXXXXXXXXXXXXXXXo             o   ",
"   .XXXXXXXXXXXXXXXXXXXXXXXXXXXXooooooooooooooo   ",
"   .XXXXOXXXXXOXXXXXXXXXXXXXXXXXo                 ",
"   .XXXOXXXXXXXXXOXXXXXXXXXXXXXXo                 ",
"   .XXXXOXXOXXOXOXOXXXXXXXXXXXXXo                 ",
"   .XXXXXOXXOXOXXXXXXXXXXXXXXXXXo                 ",
"   .XXXXXXXXXXXXXOXXXXXXXXXXXXXXo                 ",
"   .XXXXXXXXXXXXXXXXXXXXXXXXXXXXo                 ",
"   .XXXXXXXXXXXXXXXXXXXXXXXXXXXXo                 ",
"   .XXXOXOXXXXXXXOXOXXXXXOXXXXXXo                 ",
"   .XXXXXOXOXOXXOXXXXXOXXOXXXXXXo                 ",
"   .XXXXOXXOXOXOXXXOXOXOXXOXXXXXo                 ",
"   .XXXOXXXXOXXOXXXOXXOXXXXOXXXXo                 ",
"   .XXXXXXXXXXXXXXXXXXXXXXXXXXXXo                 ",
"   .XXXXXXXXXXXXXXXXXXXXXXXXXXXXo                 ",
"   .XXXXXXXXXXXXXXXXXXXXXXXXXXXXo                 ",
"   oooooooooooooooooooooooooooooo                 ",
"                                                  ",
"                                                  ",
"                                                  ",
"                                                  "};
