#define contents_width 63
#define contents_height 16
static char contents_bits[] = {
 0x00,0x00,0x00,0x00,0x00,0x00,0x00,0x00,0x00,0x00,0x00,0x00,0x00,0x00,0x00,
 0x00,0x00,0x00,0x00,0x00,0x00,0x00,0x00,0x00,0x00,0x00,0x00,0x00,0x00,0x00,
 0x00,0x00,0xc0,0x01,0x00,0x08,0x00,0x00,0x01,0x00,0x20,0x02,0x00,0x08,0x00,
 0x00,0x01,0x00,0x20,0xe2,0x74,0x7c,0x9c,0x8e,0x8f,0x03,0x20,0x10,0x99,0x08,
 0x22,0x13,0x41,0x04,0x20,0x10,0x89,0x08,0x3e,0x11,0x81,0x03,0x20,0x12,0x89,
 0x08,0x02,0x11,0x01,0x04,0x20,0x12,0x89,0x88,0x22,0x11,0x51,0x04,0xc0,0xe1,
 0x9c,0x71,0x9c,0x33,0x8e,0x03,0x00,0x00,0x00,0x00,0x00,0x00,0x00,0x00,0x00,
 0x00,0x00,0x00,0x00,0x00,0x00,0x00,0x00,0x00,0x00,0x00,0x00,0x00,0x00,0x00,
 0x00,0x00,0x00,0x00,0x00,0x00,0x00,0x00};
