<?xml version="1.0" standalone="yes"?>

<svg version="1.1" viewBox="0.0 0.0 538.0 496.0" fill="none" stroke="none" stroke-linecap="square" stroke-miterlimit="10" xmlns="http://www.w3.org/2000/svg" xmlns:xlink="http://www.w3.org/1999/xlink"><clipPath id="p.0"><path d="m0 0l538.0 0l0 496.0l-538.0 0l0 -496.0z" clip-rule="nonzero"></path></clipPath><g clip-path="url(#p.0)"><path fill="#000000" fill-opacity="0.0" d="m0 0l538.916 0l0 496.08398l-538.916 0z" fill-rule="nonzero"></path><path fill="#ffffff" d="m176.0 24.0l187.43307 0l0 80.53543l-187.43307 0z" fill-rule="nonzero"></path><path stroke="#000000" stroke-width="1.0" stroke-linejoin="round" stroke-linecap="butt" d="m176.0 24.0l187.43307 0l0 80.53543l-187.43307 0z" fill-rule="nonzero"></path><path fill="#000000" d="m235.18527 66.877716l0 1.640625l1.625 0q0.578125 0 0.8125 0.234375q0.25 0.21875 0.25 0.578125q0 0.34375 -0.25 0.578125q-0.234375 0.21875 -0.8125 0.21875l-3.46875 0q-0.578125 0 -0.828125 -0.21875q-0.25 -0.234375 -0.25 -0.59375q0 -0.34375 0.25 -0.5625q0.25 -0.234375 0.828125 -0.234375l0.25 0l0 -6.265625l-0.25 0q-0.578125 0 -0.828125 -0.21875q-0.25 -0.21875 -0.25 -0.578125q0 -0.359375 0.25 -0.578125q0.25 -0.234375 0.828125 -0.234375l3.6875 0.015625q1.625 0 2.5625 0.890625q0.953125 0.875 0.953125 2.15625q0 0.703125 -0.3125 1.328125q-0.25 0.46875 -0.8125 0.921875q-0.5625 0.453125 -1.15625 0.6875q-0.59375 0.234375 -1.5625 0.234375l-1.515625 0zm0 -1.609375l1.484375 0q1.046875 0 1.65625 -0.46875q0.625 -0.46875 0.625 -1.140625q0 -0.5625 -0.5 -0.984375q-0.5 -0.421875 -1.421875 -0.421875l-1.84375 0l0 3.015625zm13.9296875 -2.234375l0 5.484375q0.515625 0 0.75 0.234375q0.25 0.21875 0.25 0.578125q0 0.34375 -0.25 0.578125q-0.25 0.21875 -0.828125 0.21875l-1.515625 0l0 -0.375q-0.6875 0.3125 -1.3125 0.46875q-0.625 0.171875 -1.1875 0.171875q-0.796875 0 -1.375 -0.328125q-0.578125 -0.34375 -0.90625 -0.9375q-0.25 -0.421875 -0.25 -1.046875l0 -3.453125l-0.265625 0q-0.578125 0 -0.828125 -0.21875q-0.25 -0.21875 -0.25 -0.578125q0 -0.359375 0.25 -0.578125q0.25 -0.21875 0.828125 -0.21875l1.875 0l0 4.765625q0 0.5 0.234375 0.75q0.25 0.234375 0.765625 0.234375q0.484375 0 1.03125 -0.1875q0.5625 -0.203125 1.390625 -0.703125l0 -3.265625l-0.578125 0q-0.578125 0 -0.828125 -0.21875q-0.25 -0.21875 -0.25 -0.578125q0 -0.359375 0.25 -0.578125q0.25 -0.21875 0.828125 -0.21875l2.171875 0zm5.8671875 0l0 1.0q1.015625 -0.734375 1.59375 -0.96875q0.578125 -0.25 1.09375 -0.25q0.78125 0 1.515625 0.578125q0.5 0.390625 0.5 0.796875q0 0.34375 -0.25 0.59375q-0.234375 0.234375 -0.5625 0.234375q-0.296875 0 -0.625 -0.296875q-0.328125 -0.296875 -0.59375 -0.296875q-0.328125 0 -1.0 0.421875q-0.671875 0.421875 -1.671875 1.265625l0 2.40625l2.28125 0q0.578125 0 0.828125 0.234375q0.25 0.21875 0.25 0.578125q0 0.34375 -0.25 0.578125q-0.25 0.21875 -0.828125 0.21875l-4.828125 0q-0.578125 0 -0.828125 -0.21875q-0.25 -0.234375 -0.25 -0.59375q0 -0.34375 0.25 -0.5625q0.25 -0.234375 0.828125 -0.234375l0.953125 0l0 -3.890625l-0.578125 0q-0.578125 0 -0.828125 -0.21875q-0.25 -0.21875 -0.25 -0.578125q0 -0.359375 0.25 -0.578125q0.25 -0.21875 0.828125 -0.21875l2.171875 0zm13.9609375 4.359375l-6.578125 0q0.25 0.625 0.890625 1.015625q0.640625 0.375 1.71875 0.375q0.890625 0 2.375 -0.390625q0.609375 -0.15625 0.84375 -0.15625q0.3125 0 0.53125 0.234375q0.21875 0.21875 0.21875 0.5625q0 0.3125 -0.234375 0.53125q-0.3125 0.296875 -1.53125 0.5625q-1.203125 0.265625 -2.3125 0.265625q-1.921875 0 -3.078125 -1.09375q-1.15625 -1.09375 -1.15625 -2.671875q0 -1.6875 1.25 -2.75q1.25 -1.0625 2.875 -1.0625q0.96875 0 1.78125 0.34375q0.828125 0.34375 1.21875 0.75q0.5625 0.578125 0.9375 1.421875q0.25 0.59375 0.25 1.375l0 0.6875zm-1.78125 -1.609375q-0.359375 -0.6875 -0.953125 -1.015625q-0.59375 -0.34375 -1.421875 -0.34375q-0.8125 0 -1.40625 0.34375q-0.59375 0.328125 -0.96875 1.015625l4.75 0zm6.4296875 1.09375l0 1.640625l1.625 0q0.578125 0 0.8125 0.234375q0.25 0.21875 0.25 0.578125q0 0.34375 -0.25 0.578125q-0.234375 0.21875 -0.8125 0.21875l-3.46875 0q-0.578125 0 -0.828125 -0.21875q-0.25 -0.234375 -0.25 -0.59375q0 -0.34375 0.25 -0.5625q0.25 -0.234375 0.828125 -0.234375l0.25 0l0 -6.265625l-0.25 0q-0.578125 0 -0.828125 -0.21875q-0.25 -0.21875 -0.25 -0.578125q0 -0.359375 0.25 -0.578125q0.25 -0.234375 0.828125 -0.234375l3.6875 0.015625q1.625 0 2.5625 0.890625q0.953125 0.875 0.953125 2.15625q0 0.703125 -0.3125 1.328125q-0.25 0.46875 -0.8125 0.921875q-0.5625 0.453125 -1.15625 0.6875q-0.59375 0.234375 -1.5625 0.234375l-1.515625 0zm0 -1.609375l1.484375 0q1.046875 0 1.65625 -0.46875q0.625 -0.46875 0.625 -1.140625q0 -0.5625 -0.5 -0.984375q-0.5 -0.421875 -1.421875 -0.421875l-1.84375 0l0 3.015625zm11.9765625 4.859375l0 -0.375q-0.609375 0.3125 -1.34375 0.46875q-0.71875 0.171875 -1.3125 0.171875q-1.28125 0 -2.09375 -0.6875q-0.796875 -0.6875 -0.796875 -1.515625q0 -1.0 1.015625 -1.859375q1.03125 -0.875 2.84375 -0.875q0.734375 0 1.6875 0.15625l0 -0.375q0 -0.359375 -0.3125 -0.578125q-0.3125 -0.234375 -1.171875 -0.234375q-0.71875 0 -1.84375 0.28125q-0.421875 0.09375 -0.65625 0.09375q-0.328125 0 -0.546875 -0.21875q-0.21875 -0.234375 -0.21875 -0.59375q0 -0.203125 0.078125 -0.34375q0.078125 -0.15625 0.21875 -0.25q0.140625 -0.09375 0.578125 -0.21875q0.59375 -0.15625 1.203125 -0.25q0.625 -0.109375 1.125 -0.109375q1.5 0 2.3125 0.65625q0.828125 0.640625 0.828125 1.75l0 3.296875l0.28125 0q0.578125 0 0.8125 0.234375q0.25 0.21875 0.25 0.578125q0 0.34375 -0.25 0.578125q-0.234375 0.21875 -0.8125 0.21875l-1.875 0zm0 -2.875q-0.96875 -0.1875 -1.78125 -0.1875q-0.96875 0 -1.671875 0.484375q-0.4375 0.296875 -0.4375 0.609375q0 0.234375 0.203125 0.375q0.390625 0.25 1.078125 0.25q0.578125 0 1.296875 -0.21875q0.734375 -0.234375 1.3125 -0.625l0 -0.6875zm7.7578125 -2.625l0 3.21875q0 0.515625 0.21875 0.671875q0.328125 0.265625 1.171875 0.265625q1.21875 0 2.265625 -0.53125q0.390625 -0.203125 0.625 -0.203125q0.3125 0 0.53125 0.234375q0.234375 0.234375 0.234375 0.578125q0 0.3125 -0.25 0.53125q-0.375 0.375 -1.515625 0.6875q-1.125 0.3125 -1.890625 0.3125q-1.5 0 -2.25 -0.640625q-0.734375 -0.65625 -0.734375 -1.59375l0 -3.53125l-0.578125 0q-0.578125 0 -0.828125 -0.21875q-0.25 -0.21875 -0.25 -0.578125q0 -0.359375 0.25 -0.578125q0.25 -0.21875 0.828125 -0.21875l0.578125 0l0 -1.453125q0 -0.578125 0.21875 -0.8125q0.21875 -0.25 0.578125 -0.25q0.359375 0 0.578125 0.25q0.21875 0.234375 0.21875 0.8125l0 1.453125l2.96875 0q0.578125 0 0.8125 0.21875q0.25 0.21875 0.25 0.578125q0 0.359375 -0.25 0.578125q-0.234375 0.21875 -0.8125 0.21875l-2.96875 0zm8.3515625 -4.640625l0 3.421875q0.5 -0.296875 1.0 -0.4375q0.515625 -0.15625 1.046875 -0.15625q0.828125 0 1.46875 0.28125q0.65625 0.28125 1.078125 0.890625q0.421875 0.609375 0.421875 1.53125l0 3.0q0.609375 0 0.796875 0.125q0.375 0.234375 0.375 0.6875q0 0.34375 -0.25 0.578125q-0.234375 0.21875 -0.8125 0.21875l-1.828125 0q-0.5625 0 -0.8125 -0.21875q-0.25 -0.234375 -0.25 -0.59375q0 -0.4375 0.375 -0.671875q0.203125 -0.125 0.796875 -0.125l0 -2.890625q0 -0.625 -0.28125 -0.875q-0.359375 -0.328125 -1.078125 -0.328125q-0.53125 0 -0.953125 0.203125q-0.40625 0.203125 -1.09375 0.890625l0 3.0q0.609375 0 0.796875 0.125q0.375 0.234375 0.375 0.6875q0 0.34375 -0.25 0.578125q-0.234375 0.21875 -0.8125 0.21875l-1.828125 0q-0.578125 0 -0.828125 -0.21875q-0.234375 -0.234375 -0.234375 -0.59375q0 -0.4375 0.375 -0.671875q0.1875 -0.125 0.796875 -0.125l0 -6.921875l-0.265625 0q-0.578125 0 -0.828125 -0.21875q-0.25 -0.234375 -0.25 -0.59375q0 -0.34375 0.25 -0.5625q0.25 -0.234375 0.828125 -0.234375l1.875 0z" fill-rule="nonzero"></path><path fill="#ffffff" d="m16.0 144.0l187.43306 0l0 80.53543l-187.43306 0z" fill-rule="nonzero"></path><path stroke="#000000" stroke-width="1.0" stroke-linejoin="round" stroke-linecap="butt" d="m16.0 144.0l187.43306 0l0 80.53543l-187.43306 0z" fill-rule="nonzero"></path><path fill="#000000" d="m51.181374 186.87772l0 1.640625l1.625 0q0.578125 0 0.8125 0.234375q0.25 0.21875 0.25 0.578125q0 0.34375 -0.25 0.578125q-0.234375 0.21875 -0.8125 0.21875l-3.46875 0q-0.578125 0 -0.828125 -0.21875q-0.25 -0.234375 -0.25 -0.59375q0 -0.34375 0.25 -0.5625q0.25 -0.234375 0.828125 -0.234375l0.25 0l0 -6.265625l-0.25 0q-0.578125 0 -0.828125 -0.21875q-0.25 -0.21875 -0.25 -0.578125q0 -0.359375 0.25 -0.578125q0.25 -0.234375 0.828125 -0.234375l3.6875 0.015625q1.625 0 2.5625 0.890625q0.953125 0.875 0.953125 2.15625q0 0.703125 -0.3125 1.328125q-0.25 0.46875 -0.8125 0.921875q-0.5625 0.453125 -1.15625 0.6875q-0.59375 0.234375 -1.5625 0.234375l-1.515625 0zm0 -1.609375l1.484375 0q1.046875 0 1.65625 -0.46875q0.625 -0.46875 0.625 -1.140625q0 -0.5625 -0.5 -0.984375q-0.5 -0.421875 -1.421875 -0.421875l-1.84375 0l0 3.015625zm13.9296875 -2.234375l0 5.484375q0.515625 0 0.75 0.234375q0.25 0.21875 0.25 0.578125q0 0.34375 -0.25 0.578125q-0.25 0.21875 -0.828125 0.21875l-1.515625 0l0 -0.375q-0.6875 0.3125 -1.3125 0.46875q-0.625 0.171875 -1.1875 0.171875q-0.796875 0 -1.375 -0.328125q-0.578125 -0.34375 -0.90625 -0.9375q-0.25 -0.421875 -0.25 -1.046875l0 -3.453125l-0.265625 0q-0.578125 0 -0.828125 -0.21875q-0.25 -0.21875 -0.25 -0.578125q0 -0.359375 0.25 -0.578125q0.25 -0.21875 0.828125 -0.21875l1.875 0l0 4.765625q0 0.5 0.234375 0.75q0.25 0.234375 0.765625 0.234375q0.484375 0 1.03125 -0.1875q0.5625 -0.203125 1.390625 -0.703125l0 -3.265625l-0.578125 0q-0.578125 0 -0.828125 -0.21875q-0.25 -0.21875 -0.25 -0.578125q0 -0.359375 0.25 -0.578125q0.25 -0.21875 0.828125 -0.21875l2.171875 0zm5.8671875 0l0 1.0q1.015625 -0.734375 1.59375 -0.96875q0.578125 -0.25 1.09375 -0.25q0.78125 0 1.515625 0.578125q0.5 0.390625 0.5 0.796875q0 0.34375 -0.25 0.59375q-0.234375 0.234375 -0.5625 0.234375q-0.296875 0 -0.625 -0.296875q-0.328125 -0.296875 -0.59375 -0.296875q-0.328125 0 -1.0 0.421875q-0.671875 0.421875 -1.671875 1.265625l0 2.40625l2.28125 0q0.578125 0 0.828125 0.234375q0.25 0.21875 0.25 0.578125q0 0.34375 -0.25 0.578125q-0.25 0.21875 -0.828125 0.21875l-4.828125 0q-0.578125 0 -0.828125 -0.21875q-0.25 -0.234375 -0.25 -0.59375q0 -0.34375 0.25 -0.5625q0.25 -0.234375 0.828125 -0.234375l0.953125 0l0 -3.890625l-0.578125 0q-0.578125 0 -0.828125 -0.21875q-0.25 -0.21875 -0.25 -0.578125q0 -0.359375 0.25 -0.578125q0.25 -0.21875 0.828125 -0.21875l2.171875 0zm13.9609375 4.359375l-6.578125 0q0.25 0.625 0.890625 1.015625q0.640625 0.375 1.71875 0.375q0.890625 0 2.375 -0.390625q0.609375 -0.15625 0.84375 -0.15625q0.3125 0 0.53125 0.234375q0.21875 0.21875 0.21875 0.5625q0 0.3125 -0.234375 0.53125q-0.3125 0.296875 -1.53125 0.5625q-1.203125 0.265625 -2.3125 0.265625q-1.921875 0 -3.078125 -1.09375q-1.15625 -1.09375 -1.15625 -2.671875q0 -1.6875 1.25 -2.75q1.25 -1.0625 2.875 -1.0625q0.96875 0 1.78125 0.34375q0.828125 0.34375 1.21875 0.75q0.5625 0.578125 0.9375 1.421875q0.25 0.59375 0.25 1.375l0 0.6875zm-1.78125 -1.609375q-0.359375 -0.6875 -0.953125 -1.015625q-0.59375 -0.34375 -1.421875 -0.34375q-0.8125 0 -1.40625 0.34375q-0.59375 0.328125 -0.96875 1.015625l4.75 0zm6.4296875 1.09375l0 1.640625l1.625 0q0.578125 0 0.8125 0.234375q0.25 0.21875 0.25 0.578125q0 0.34375 -0.25 0.578125q-0.234375 0.21875 -0.8125 0.21875l-3.46875 0q-0.578125 0 -0.828125 -0.21875q-0.25 -0.234375 -0.25 -0.59375q0 -0.34375 0.25 -0.5625q0.25 -0.234375 0.828125 -0.234375l0.25 0l0 -6.265625l-0.25 0q-0.578125 0 -0.828125 -0.21875q-0.25 -0.21875 -0.25 -0.578125q0 -0.359375 0.25 -0.578125q0.25 -0.234375 0.828125 -0.234375l3.6875 0.015625q1.625 0 2.5625 0.890625q0.953125 0.875 0.953125 2.15625q0 0.703125 -0.3125 1.328125q-0.25 0.46875 -0.8125 0.921875q-0.5625 0.453125 -1.15625 0.6875q-0.59375 0.234375 -1.5625 0.234375l-1.515625 0zm0 -1.609375l1.484375 0q1.046875 0 1.65625 -0.46875q0.625 -0.46875 0.625 -1.140625q0 -0.5625 -0.5 -0.984375q-0.5 -0.421875 -1.421875 -0.421875l-1.84375 0l0 3.015625zm14.6953125 1.4375q0 0.921875 -0.515625 1.796875q-0.515625 0.859375 -1.53125 1.375q-1.0 0.515625 -2.109375 0.515625q-1.09375 0 -2.09375 -0.5q-1.0 -0.515625 -1.53125 -1.375q-0.515625 -0.875 -0.515625 -1.828125q0 -0.953125 0.53125 -1.875q0.53125 -0.9375 1.53125 -1.46875q1.0 -0.53125 2.078125 -0.53125q1.09375 0 2.109375 0.546875q1.015625 0.546875 1.53125 1.46875q0.515625 0.90625 0.515625 1.875zm-1.609375 0.015625q0 -0.78125 -0.546875 -1.421875q-0.765625 -0.875 -2.0 -0.875q-1.078125 0 -1.8125 0.703125q-0.71875 0.6875 -0.71875 1.59375q0 0.75 0.734375 1.40625q0.734375 0.65625 1.796875 0.65625q1.078125 0 1.8125 -0.65625q0.734375 -0.65625 0.734375 -1.40625zm8.7734375 -1.8125q-0.390625 -0.25 -0.828125 -0.359375q-0.421875 -0.125 -0.890625 -0.125q-0.921875 0 -1.46875 0.296875q-0.25 0.140625 -0.25 0.296875q0 0.171875 0.328125 0.34375q0.25 0.125 1.125 0.25q1.59375 0.21875 2.21875 0.4375q0.8125 0.28125 1.25 0.859375q0.453125 0.5625 0.453125 1.203125q0 0.859375 -0.75 1.4375q-1.09375 0.84375 -2.828125 0.84375q-0.6875 0 -1.28125 -0.125q-0.59375 -0.125 -1.078125 -0.359375q-0.125 0.09375 -0.265625 0.15625q-0.125 0.046875 -0.265625 0.046875q-0.375 0 -0.59375 -0.234375q-0.21875 -0.25 -0.21875 -0.828125l0 -0.546875q0 -0.578125 0.21875 -0.8125q0.21875 -0.25 0.578125 -0.25q0.296875 0 0.484375 0.15625q0.203125 0.15625 0.3125 0.546875q0.359375 0.3125 0.875 0.484375q0.515625 0.15625 1.1875 0.15625q1.109375 0 1.71875 -0.34375q0.28125 -0.171875 0.28125 -0.359375q0 -0.3125 -0.40625 -0.515625q-0.421875 -0.203125 -1.71875 -0.34375q-1.921875 -0.203125 -2.578125 -0.78125q-0.640625 -0.578125 -0.640625 -1.40625q0 -0.859375 0.71875 -1.4375q0.984375 -0.78125 2.578125 -0.78125q0.5625 0 1.0625 0.109375q0.515625 0.109375 0.984375 0.328125q0.15625 -0.109375 0.28125 -0.15625q0.125 -0.0625 0.234375 -0.0625q0.328125 0 0.546875 0.25q0.21875 0.234375 0.21875 0.8125l0 0.390625q0 0.53125 -0.125 0.71875q-0.25 0.359375 -0.671875 0.359375q-0.296875 0 -0.515625 -0.171875q-0.21875 -0.1875 -0.28125 -0.484375zm8.4453125 -4.921875l0 1.703125l-1.90625 0l0 -1.703125l1.90625 0zm0.21875 3.046875l0 5.484375l1.921875 0q0.578125 0 0.828125 0.234375q0.25 0.21875 0.25 0.578125q0 0.34375 -0.25 0.578125q-0.25 0.21875 -0.828125 0.21875l-5.4375 0q-0.578125 0 -0.828125 -0.21875q-0.25 -0.234375 -0.25 -0.59375q0 -0.34375 0.25 -0.5625q0.25 -0.234375 0.828125 -0.234375l1.921875 0l0 -3.890625l-1.296875 0q-0.5625 0 -0.8125 -0.21875q-0.25 -0.21875 -0.25 -0.578125q0 -0.359375 0.234375 -0.578125q0.25 -0.21875 0.828125 -0.21875l2.890625 0zm10.007805 3.40625l2.4375 2.078125q0.4375 0.03125 0.65625 0.25q0.21875 0.21875 0.21875 0.5625q0 0.34375 -0.25 0.578125q-0.25 0.21875 -0.828125 0.21875l-1.8125 0q-0.578125 0 -0.828125 -0.21875q-0.25 -0.234375 -0.25 -0.59375q0 -0.28125 0.171875 -0.5q0.1875 -0.21875 0.484375 -0.296875l-1.1875 -1.03125l-1.2187424 1.03125q0.35936737 0.09375 0.5156174 0.296875q0.171875 0.1875 0.171875 0.5q0 0.359375 -0.25 0.59375q-0.23436737 0.21875 -0.8124924 0.21875l-1.8125 0q-0.578125 0 -0.828125 -0.21875q-0.234375 -0.234375 -0.234375 -0.59375q0 -0.328125 0.21875 -0.546875q0.21875 -0.21875 0.65625 -0.25l2.375 -2.09375l-2.109375 -1.796875q-0.40625 -0.03125 -0.625 -0.25q-0.21875 -0.21875 -0.21875 -0.546875q0 -0.359375 0.25 -0.578125q0.25 -0.21875 0.828125 -0.21875l1.5 0q0.578125 0 0.8124924 0.21875q0.25 0.21875 0.25 0.5625q0 0.46875 -0.43749237 0.75l0.9687424 0.8125l0.953125 -0.828125q-0.421875 -0.296875 -0.421875 -0.703125q0 -0.375 0.234375 -0.59375q0.25 -0.21875 0.828125 -0.21875l1.484375 0q0.578125 0 0.828125 0.21875q0.25 0.21875 0.25 0.578125q0 0.328125 -0.21875 0.546875q-0.21875 0.21875 -0.640625 0.25l-2.109375 1.8125zm7.4765625 0.4375l0 1.640625l1.625 0q0.578125 0 0.8125 0.234375q0.25 0.21875 0.25 0.578125q0 0.34375 -0.25 0.578125q-0.234375 0.21875 -0.8125 0.21875l-3.46875 0q-0.578125 0 -0.828125 -0.21875q-0.25 -0.234375 -0.25 -0.59375q0 -0.34375 0.25 -0.5625q0.25 -0.234375 0.828125 -0.234375l0.25 0l0 -6.265625l-0.25 0q-0.578125 0 -0.828125 -0.21875q-0.25 -0.21875 -0.25 -0.578125q0 -0.359375 0.25 -0.578125q0.25 -0.234375 0.828125 -0.234375l3.6875 0.015625q1.625 0 2.5625 0.890625q0.953125 0.875 0.953125 2.15625q0 0.703125 -0.3125 1.328125q-0.25 0.46875 -0.8125 0.921875q-0.5625 0.453125 -1.15625 0.6875q-0.59375 0.234375 -1.5625 0.234375l-1.515625 0zm0 -1.609375l1.484375 0q1.046875 0 1.65625 -0.46875q0.625 -0.46875 0.625 -1.140625q0 -0.5625 -0.5 -0.984375q-0.5 -0.421875 -1.421875 -0.421875l-1.84375 0l0 3.015625zm11.9765625 4.859375l0 -0.375q-0.609375 0.3125 -1.34375 0.46875q-0.71875 0.171875 -1.3125 0.171875q-1.28125 0 -2.09375 -0.6875q-0.796875 -0.6875 -0.796875 -1.515625q0 -1.0 1.015625 -1.859375q1.03125 -0.875 2.84375 -0.875q0.734375 0 1.6875 0.15625l0 -0.375q0 -0.359375 -0.3125 -0.578125q-0.3125 -0.234375 -1.171875 -0.234375q-0.71875 0 -1.84375 0.28125q-0.421875 0.09375 -0.65625 0.09375q-0.328125 0 -0.546875 -0.21875q-0.21875 -0.234375 -0.21875 -0.59375q0 -0.203125 0.078125 -0.34375q0.078125 -0.15625 0.21875 -0.25q0.140625 -0.09375 0.578125 -0.21875q0.59375 -0.15625 1.203125 -0.25q0.625 -0.109375 1.125 -0.109375q1.5 0 2.3125 0.65625q0.828125 0.640625 0.828125 1.75l0 3.296875l0.28125 0q0.578125 0 0.8125 0.234375q0.25 0.21875 0.25 0.578125q0 0.34375 -0.25 0.578125q-0.234375 0.21875 -0.8125 0.21875l-1.875 0zm0 -2.875q-0.96875 -0.1875 -1.78125 -0.1875q-0.96875 0 -1.671875 0.484375q-0.4375 0.296875 -0.4375 0.609375q0 0.234375 0.203125 0.375q0.390625 0.25 1.078125 0.25q0.578125 0 1.296875 -0.21875q0.734375 -0.234375 1.3125 -0.625l0 -0.6875zm7.7578125 -2.625l0 3.21875q0 0.515625 0.21875 0.671875q0.328125 0.265625 1.171875 0.265625q1.21875 0 2.265625 -0.53125q0.390625 -0.203125 0.625 -0.203125q0.3125 0 0.53125 0.234375q0.234375 0.234375 0.234375 0.578125q0 0.3125 -0.25 0.53125q-0.375 0.375 -1.515625 0.6875q-1.125 0.3125 -1.890625 0.3125q-1.5 0 -2.25 -0.640625q-0.734375 -0.65625 -0.734375 -1.59375l0 -3.53125l-0.578125 0q-0.578125 0 -0.828125 -0.21875q-0.25 -0.21875 -0.25 -0.578125q0 -0.359375 0.25 -0.578125q0.25 -0.21875 0.828125 -0.21875l0.578125 0l0 -1.453125q0 -0.578125 0.21875 -0.8125q0.21875 -0.25 0.578125 -0.25q0.359375 0 0.578125 0.25q0.21875 0.234375 0.21875 0.8125l0 1.453125l2.96875 0q0.578125 0 0.8125 0.21875q0.25 0.21875 0.25 0.578125q0 0.359375 -0.25 0.578125q-0.234375 0.21875 -0.8125 0.21875l-2.96875 0zm8.3515625 -4.640625l0 3.421875q0.5 -0.296875 1.0 -0.4375q0.515625 -0.15625 1.046875 -0.15625q0.828125 0 1.46875 0.28125q0.65625 0.28125 1.078125 0.890625q0.421875 0.609375 0.421875 1.53125l0 3.0q0.609375 0 0.796875 0.125q0.375 0.234375 0.375 0.6875q0 0.34375 -0.25 0.578125q-0.234375 0.21875 -0.8125 0.21875l-1.828125 0q-0.5625 0 -0.8125 -0.21875q-0.25 -0.234375 -0.25 -0.59375q0 -0.4375 0.375 -0.671875q0.203125 -0.125 0.796875 -0.125l0 -2.890625q0 -0.625 -0.28125 -0.875q-0.359375 -0.328125 -1.078125 -0.328125q-0.53125 0 -0.953125 0.203125q-0.40625 0.203125 -1.09375 0.890625l0 3.0q0.609375 0 0.796875 0.125q0.375 0.234375 0.375 0.6875q0 0.34375 -0.25 0.578125q-0.234375 0.21875 -0.8125 0.21875l-1.828125 0q-0.578125 0 -0.828125 -0.21875q-0.234375 -0.234375 -0.234375 -0.59375q0 -0.4375 0.375 -0.671875q0.1875 -0.125 0.796875 -0.125l0 -6.921875l-0.265625 0q-0.578125 0 -0.828125 -0.21875q-0.25 -0.234375 -0.25 -0.59375q0 -0.34375 0.25 -0.5625q0.25 -0.234375 0.828125 -0.234375l1.875 0z" fill-rule="nonzero"></path><path fill="#ffffff" d="m336.0 143.46457l187.43304 0l0 80.53543l-187.43304 0z" fill-rule="nonzero"></path><path stroke="#000000" stroke-width="1.0" stroke-linejoin="round" stroke-linecap="butt" d="m336.0 143.46457l187.43304 0l0 80.53543l-187.43304 0z" fill-rule="nonzero"></path><path fill="#000000" d="m361.5798 186.34229l0 1.640625l1.625 0q0.578125 0 0.8125 0.234375q0.25 0.21875 0.25 0.578125q0 0.34375 -0.25 0.578125q-0.234375 0.21875 -0.8125 0.21875l-3.46875 0q-0.578125 0 -0.828125 -0.21875q-0.25 -0.234375 -0.25 -0.59375q0 -0.34375 0.25 -0.5625q0.25 -0.234375 0.828125 -0.234375l0.25 0l0 -6.265625l-0.25 0q-0.578125 0 -0.828125 -0.21875q-0.25 -0.21875 -0.25 -0.578125q0 -0.359375 0.25 -0.578125q0.25 -0.234375 0.828125 -0.234375l3.6875 0.015625q1.625 0 2.5625 0.890625q0.953125 0.875 0.953125 2.15625q0 0.703125 -0.3125 1.328125q-0.25 0.46875 -0.8125 0.921875q-0.5625 0.453125 -1.15625 0.6875q-0.59375 0.234375 -1.5625 0.234375l-1.515625 0zm0 -1.609375l1.484375 0q1.046875 0 1.65625 -0.46875q0.625 -0.46875 0.625 -1.140625q0 -0.5625 -0.5 -0.984375q-0.5 -0.421875 -1.421875 -0.421875l-1.84375 0l0 3.015625zm13.9296875 -2.234375l0 5.484375q0.515625 0 0.75 0.234375q0.25 0.21875 0.25 0.578125q0 0.34375 -0.25 0.578125q-0.25 0.21875 -0.828125 0.21875l-1.515625 0l0 -0.375q-0.6875 0.3125 -1.3125 0.46875q-0.625 0.171875 -1.1875 0.171875q-0.796875 0 -1.375 -0.328125q-0.578125 -0.34375 -0.90625 -0.9375q-0.25 -0.421875 -0.25 -1.046875l0 -3.453125l-0.265625 0q-0.578125 0 -0.828125 -0.21875q-0.25 -0.21875 -0.25 -0.578125q0 -0.359375 0.25 -0.578125q0.25 -0.21875 0.828125 -0.21875l1.875 0l0 4.765625q0 0.5 0.234375 0.75q0.25 0.234375 0.765625 0.234375q0.484375 0 1.03125 -0.1875q0.5625 -0.203125 1.390625 -0.703125l0 -3.265625l-0.578125 0q-0.578125 0 -0.828125 -0.21875q-0.25 -0.21875 -0.25 -0.578125q0 -0.359375 0.25 -0.578125q0.25 -0.21875 0.828125 -0.21875l2.171875 0zm5.8671875 0l0 1.0q1.015625 -0.734375 1.59375 -0.96875q0.578125 -0.25 1.09375 -0.25q0.78125 0 1.515625 0.578125q0.5 0.390625 0.5 0.796875q0 0.34375 -0.25 0.59375q-0.234375 0.234375 -0.5625 0.234375q-0.296875 0 -0.625 -0.296875q-0.328125 -0.296875 -0.59375 -0.296875q-0.328125 0 -1.0 0.421875q-0.671875 0.421875 -1.671875 1.265625l0 2.40625l2.28125 0q0.578125 0 0.828125 0.234375q0.25 0.21875 0.25 0.578125q0 0.34375 -0.25 0.578125q-0.25 0.21875 -0.828125 0.21875l-4.828125 0q-0.578125 0 -0.828125 -0.21875q-0.25 -0.234375 -0.25 -0.59375q0 -0.34375 0.25 -0.5625q0.25 -0.234375 0.828125 -0.234375l0.953125 0l0 -3.890625l-0.578125 0q-0.578125 0 -0.828125 -0.21875q-0.25 -0.21875 -0.25 -0.578125q0 -0.359375 0.25 -0.578125q0.25 -0.21875 0.828125 -0.21875l2.171875 0zm13.9609375 4.359375l-6.578125 0q0.25 0.625 0.890625 1.015625q0.640625 0.375 1.71875 0.375q0.890625 0 2.375 -0.390625q0.609375 -0.15625 0.84375 -0.15625q0.3125 0 0.53125 0.234375q0.21875 0.21875 0.21875 0.5625q0 0.3125 -0.234375 0.53125q-0.3125 0.296875 -1.53125 0.5625q-1.203125 0.265625 -2.3125 0.265625q-1.921875 0 -3.078125 -1.09375q-1.15625 -1.09375 -1.15625 -2.671875q0 -1.6875 1.25 -2.75q1.25 -1.0625 2.875 -1.0625q0.96875 0 1.78125 0.34375q0.828125 0.34375 1.21875 0.75q0.5625 0.578125 0.9375 1.421875q0.25 0.59375 0.25 1.375l0 0.6875zm-1.78125 -1.609375q-0.359375 -0.6875 -0.953125 -1.015625q-0.59375 -0.34375 -1.421875 -0.34375q-0.8125 0 -1.40625 0.34375q-0.59375 0.328125 -0.96875 1.015625l4.75 0zm7.3671875 -0.203125l-1.484375 4.546875l-1.796875 0l-0.953125 -7.875q-0.375 -0.046875 -0.5625 -0.25q-0.1875 -0.203125 -0.1875 -0.53125q0 -0.375 0.25 -0.59375q0.25 -0.234375 0.828125 -0.234375l2.125 0.015625q0.578125 0 0.828125 0.21875q0.25 0.21875 0.25 0.578125q0 0.359375 -0.25 0.578125q-0.25 0.21875 -0.828125 0.21875l-0.828125 0l0.53125 4.484375l1.25 -3.734375l1.671875 0l1.25 3.734375l0.53125 -4.484375l-0.84375 0q-0.578125 0 -0.828125 -0.21875q-0.234375 -0.21875 -0.234375 -0.578125q0 -0.359375 0.234375 -0.578125q0.25 -0.234375 0.828125 -0.234375l2.125 0.015625q0.578125 0 0.828125 0.21875q0.25 0.21875 0.25 0.578125q0 0.296875 -0.203125 0.515625q-0.1875 0.21875 -0.5625 0.28125l-0.921875 7.875l-1.765625 0l-1.53125 -4.546875zm10.1640625 -5.59375l0 1.703125l-1.90625 0l0 -1.703125l1.90625 0zm0.21875 3.046875l0 5.484375l1.921875 0q0.578125 0 0.828125 0.234375q0.25 0.21875 0.25 0.578125q0 0.34375 -0.25 0.578125q-0.25 0.21875 -0.828125 0.21875l-5.4375 0q-0.578125 0 -0.828125 -0.21875q-0.25 -0.234375 -0.25 -0.59375q0 -0.34375 0.25 -0.5625q0.25 -0.234375 0.828125 -0.234375l1.921875 0l0 -3.890625l-1.296875 0q-0.5625 0 -0.8125 -0.21875q-0.25 -0.21875 -0.25 -0.578125q0 -0.359375 0.234375 -0.578125q0.25 -0.21875 0.828125 -0.21875l2.890625 0zm7.1953125 0l0 0.53125q0.4375 -0.375 0.953125 -0.5625q0.53125 -0.1875 1.15625 -0.1875q1.421875 0 2.25 0.890625q0.65625 0.703125 0.65625 1.84375l0 2.96875q0.5 0 0.734375 0.234375q0.25 0.21875 0.25 0.578125q0 0.34375 -0.25 0.578125q-0.234375 0.21875 -0.8125 0.21875l-1.453125 0q-0.578125 0 -0.828125 -0.21875q-0.234375 -0.234375 -0.234375 -0.59375q0 -0.34375 0.234375 -0.5625q0.25 -0.234375 0.75 -0.234375l0 -3.015625q0 -0.53125 -0.28125 -0.765625q-0.359375 -0.3125 -1.09375 -0.3125q-0.5625 0 -0.984375 0.21875q-0.40625 0.203125 -1.046875 0.90625l0 2.96875q0.609375 0 0.796875 0.125q0.375 0.234375 0.375 0.6875q0 0.34375 -0.25 0.578125q-0.234375 0.21875 -0.8125 0.21875l-1.828125 0q-0.578125 0 -0.828125 -0.21875q-0.234375 -0.234375 -0.234375 -0.59375q0 -0.4375 0.375 -0.671875q0.1875 -0.125 0.796875 -0.125l0 -3.890625q-0.5 0 -0.75 -0.21875q-0.234375 -0.234375 -0.234375 -0.578125q0 -0.359375 0.234375 -0.578125q0.25 -0.21875 0.828125 -0.21875l1.53125 0zm14.8984375 -3.046875l0 8.53125l0.265625 0q0.578125 0 0.828125 0.234375q0.25 0.21875 0.25 0.578125q0 0.34375 -0.25 0.578125q-0.25 0.21875 -0.828125 0.21875l-1.875 0l0 -0.390625q-0.546875 0.3125 -1.140625 0.484375q-0.59375 0.171875 -1.234375 0.171875q-1.8125 0 -2.921875 -1.046875q-1.09375 -1.046875 -1.09375 -2.609375q0 -1.625 1.15625 -2.765625q1.15625 -1.15625 2.828125 -1.15625q0.625 0 1.21875 0.203125q0.609375 0.1875 1.1875 0.5625l0 -1.984375l-0.265625 0q-0.578125 0 -0.828125 -0.21875q-0.25 -0.234375 -0.25 -0.578125q0 -0.359375 0.25 -0.578125q0.25 -0.234375 0.828125 -0.234375l1.875 0zm-1.609375 6.796875q0 -0.984375 -0.703125 -1.671875q-0.6875 -0.6875 -1.6875 -0.6875q-1.0 0 -1.703125 0.6875q-0.6875 0.6875 -0.6875 1.65625q0 0.875 0.625 1.453125q0.625 0.5625 1.765625 0.5625q1.125 0 1.75 -0.5625q0.640625 -0.578125 0.640625 -1.4375zm11.6953125 -0.078125q0 0.921875 -0.515625 1.796875q-0.515625 0.859375 -1.53125 1.375q-1.0 0.515625 -2.109375 0.515625q-1.09375 0 -2.09375 -0.5q-1.0 -0.515625 -1.53125 -1.375q-0.515625 -0.875 -0.515625 -1.828125q0 -0.953125 0.53125 -1.875q0.53125 -0.9375 1.53125 -1.46875q1.0 -0.53125 2.078125 -0.53125q1.09375 0 2.109375 0.546875q1.015625 0.546875 1.53125 1.46875q0.515625 0.90625 0.515625 1.875zm-1.609375 0.015625q0 -0.78125 -0.546875 -1.421875q-0.765625 -0.875 -2.0 -0.875q-1.078125 0 -1.8125 0.703125q-0.71875 0.6875 -0.71875 1.59375q0 0.75 0.734375 1.40625q0.734375 0.65625 1.796875 0.65625q1.078125 0 1.8125 -0.65625q0.734375 -0.65625 0.734375 -1.40625zm7.0546875 0.453125l-1.109375 2.953125l-1.5 0l-1.34375 -5.5q-0.4375 -0.015625 -0.671875 -0.234375q-0.21875 -0.234375 -0.21875 -0.5625q0 -0.359375 0.25 -0.578125q0.25 -0.21875 0.828125 -0.21875l1.484375 0q0.578125 0 0.828125 0.21875q0.25 0.21875 0.25 0.578125q0 0.359375 -0.28125 0.609375q-0.21875 0.1875 -0.828125 0.1875l0.609375 2.546875l0.984375 -2.609375l1.421875 0l1.0 2.609375l0.625 -2.546875q-0.59375 0 -0.78125 -0.109375q-0.375 -0.25 -0.375 -0.6875q0 -0.359375 0.25 -0.578125q0.25 -0.21875 0.828125 -0.21875l1.5 0q0.578125 0 0.828125 0.21875q0.25 0.21875 0.25 0.578125q0 0.328125 -0.21875 0.546875q-0.21875 0.21875 -0.640625 0.25l-1.3125 5.5l-1.484375 0l-1.171875 -2.953125zm11.3203125 -2.265625q-0.390625 -0.25 -0.828125 -0.359375q-0.421875 -0.125 -0.890625 -0.125q-0.921875 0 -1.46875 0.296875q-0.25 0.140625 -0.25 0.296875q0 0.171875 0.328125 0.34375q0.25 0.125 1.125 0.25q1.59375 0.21875 2.21875 0.4375q0.8125 0.28125 1.25 0.859375q0.453125 0.5625 0.453125 1.203125q0 0.859375 -0.75 1.4375q-1.09375 0.84375 -2.828125 0.84375q-0.6875 0 -1.28125 -0.125q-0.59375 -0.125 -1.078125 -0.359375q-0.125 0.09375 -0.265625 0.15625q-0.125 0.046875 -0.265625 0.046875q-0.375 0 -0.59375 -0.234375q-0.21875 -0.25 -0.21875 -0.828125l0 -0.546875q0 -0.578125 0.21875 -0.8125q0.21875 -0.25 0.578125 -0.25q0.296875 0 0.484375 0.15625q0.203125 0.15625 0.3125 0.546875q0.359375 0.3125 0.875 0.484375q0.515625 0.15625 1.1875 0.15625q1.109375 0 1.71875 -0.34375q0.28125 -0.171875 0.28125 -0.359375q0 -0.3125 -0.40625 -0.515625q-0.421875 -0.203125 -1.71875 -0.34375q-1.921875 -0.203125 -2.578125 -0.78125q-0.640625 -0.578125 -0.640625 -1.40625q0 -0.859375 0.71875 -1.4375q0.984375 -0.78125 2.578125 -0.78125q0.5625 0 1.0625 0.109375q0.515625 0.109375 0.984375 0.328125q0.15625 -0.109375 0.28125 -0.15625q0.125 -0.0625 0.234375 -0.0625q0.328125 0 0.546875 0.25q0.21875 0.234375 0.21875 0.8125l0 0.390625q0 0.53125 -0.125 0.71875q-0.25 0.359375 -0.671875 0.359375q-0.296875 0 -0.515625 -0.171875q-0.21875 -0.1875 -0.28125 -0.484375zm6.9453125 1.96875l0 1.640625l1.625 0q0.578125 0 0.8125 0.234375q0.25 0.21875 0.25 0.578125q0 0.34375 -0.25 0.578125q-0.234375 0.21875 -0.8125 0.21875l-3.46875 0q-0.578125 0 -0.828125 -0.21875q-0.25 -0.234375 -0.25 -0.59375q0 -0.34375 0.25 -0.5625q0.25 -0.234375 0.828125 -0.234375l0.25 0l0 -6.265625l-0.25 0q-0.578125 0 -0.828125 -0.21875q-0.25 -0.21875 -0.25 -0.578125q0 -0.359375 0.25 -0.578125q0.25 -0.234375 0.828125 -0.234375l3.6875 0.015625q1.625 0 2.5625 0.890625q0.953125 0.875 0.953125 2.15625q0 0.703125 -0.3125 1.328125q-0.25 0.46875 -0.8125 0.921875q-0.5625 0.453125 -1.15625 0.6875q-0.59375 0.234375 -1.5625 0.234375l-1.515625 0zm0 -1.609375l1.484375 0q1.046875 0 1.65625 -0.46875q0.625 -0.46875 0.625 -1.140625q0 -0.5625 -0.5 -0.984375q-0.5 -0.421875 -1.421875 -0.421875l-1.84375 0l0 3.015625zm11.9765625 4.859375l0 -0.375q-0.609375 0.3125 -1.34375 0.46875q-0.71875 0.171875 -1.3125 0.171875q-1.28125 0 -2.09375 -0.6875q-0.796875 -0.6875 -0.796875 -1.515625q0 -1.0 1.015625 -1.859375q1.03125 -0.875 2.84375 -0.875q0.734375 0 1.6875 0.15625l0 -0.375q0 -0.359375 -0.3125 -0.578125q-0.3125 -0.234375 -1.171875 -0.234375q-0.71875 0 -1.84375 0.28125q-0.421875 0.09375 -0.65625 0.09375q-0.328125 0 -0.546875 -0.21875q-0.21875 -0.234375 -0.21875 -0.59375q0 -0.203125 0.078125 -0.34375q0.078125 -0.15625 0.21875 -0.25q0.140625 -0.09375 0.578125 -0.21875q0.59375 -0.15625 1.203125 -0.25q0.625 -0.109375 1.125 -0.109375q1.5 0 2.3125 0.65625q0.828125 0.640625 0.828125 1.75l0 3.296875l0.28125 0q0.578125 0 0.8125 0.234375q0.25 0.21875 0.25 0.578125q0 0.34375 -0.25 0.578125q-0.234375 0.21875 -0.8125 0.21875l-1.875 0zm0 -2.875q-0.96875 -0.1875 -1.78125 -0.1875q-0.96875 0 -1.671875 0.484375q-0.4375 0.296875 -0.4375 0.609375q0 0.234375 0.203125 0.375q0.390625 0.25 1.078125 0.25q0.578125 0 1.296875 -0.21875q0.734375 -0.234375 1.3125 -0.625l0 -0.6875zm7.7578125 -2.625l0 3.21875q0 0.515625 0.21875 0.671875q0.328125 0.265625 1.171875 0.265625q1.21875 0 2.265625 -0.53125q0.390625 -0.203125 0.625 -0.203125q0.3125 0 0.53125 0.234375q0.234375 0.234375 0.234375 0.578125q0 0.3125 -0.25 0.53125q-0.375 0.375 -1.515625 0.6875q-1.125 0.3125 -1.890625 0.3125q-1.5 0 -2.25 -0.640625q-0.734375 -0.65625 -0.734375 -1.59375l0 -3.53125l-0.578125 0q-0.578125 0 -0.828125 -0.21875q-0.25 -0.21875 -0.25 -0.578125q0 -0.359375 0.25 -0.578125q0.25 -0.21875 0.828125 -0.21875l0.578125 0l0 -1.453125q0 -0.578125 0.21875 -0.8125q0.21875 -0.25 0.578125 -0.25q0.359375 0 0.578125 0.25q0.21875 0.234375 0.21875 0.8125l0 1.453125l2.96875 0q0.578125 0 0.8125 0.21875q0.25 0.21875 0.25 0.578125q0 0.359375 -0.25 0.578125q-0.234375 0.21875 -0.8125 0.21875l-2.96875 0zm8.3515625 -4.640625l0 3.421875q0.5 -0.296875 1.0 -0.4375q0.515625 -0.15625 1.046875 -0.15625q0.828125 0 1.46875 0.28125q0.65625 0.28125 1.078125 0.890625q0.421875 0.609375 0.421875 1.53125l0 3.0q0.609375 0 0.796875 0.125q0.375 0.234375 0.375 0.6875q0 0.34375 -0.25 0.578125q-0.234375 0.21875 -0.8125 0.21875l-1.828125 0q-0.5625 0 -0.8125 -0.21875q-0.25 -0.234375 -0.25 -0.59375q0 -0.4375 0.375 -0.671875q0.203125 -0.125 0.796875 -0.125l0 -2.890625q0 -0.625 -0.28125 -0.875q-0.359375 -0.328125 -1.078125 -0.328125q-0.53125 0 -0.953125 0.203125q-0.40625 0.203125 -1.09375 0.890625l0 3.0q0.609375 0 0.796875 0.125q0.375 0.234375 0.375 0.6875q0 0.34375 -0.25 0.578125q-0.234375 0.21875 -0.8125 0.21875l-1.828125 0q-0.578125 0 -0.828125 -0.21875q-0.234375 -0.234375 -0.234375 -0.59375q0 -0.4375 0.375 -0.671875q0.1875 -0.125 0.796875 -0.125l0 -6.921875l-0.265625 0q-0.578125 0 -0.828125 -0.21875q-0.25 -0.234375 -0.25 -0.59375q0 -0.34375 0.25 -0.5625q0.25 -0.234375 0.828125 -0.234375l1.875 0z" fill-rule="nonzero"></path><path fill="#ffffff" d="m176.0 271.46457l187.43307 0l0 80.53543l-187.43307 0z" fill-rule="nonzero"></path><path stroke="#000000" stroke-width="1.0" stroke-linejoin="round" stroke-linecap="butt" d="m176.0 271.46457l187.43307 0l0 80.53543l-187.43307 0z" fill-rule="nonzero"></path><path fill="#000000" d="m254.3884 314.3423l0 1.640625l1.625 0q0.578125 0 0.8125 0.234375q0.25 0.21875 0.25 0.578125q0 0.34375 -0.25 0.578125q-0.234375 0.21875 -0.8125 0.21875l-3.46875 0q-0.578125 0 -0.828125 -0.21875q-0.25 -0.234375 -0.25 -0.59375q0 -0.34375 0.25 -0.5625q0.25 -0.234375 0.828125 -0.234375l0.25 0l0 -6.265625l-0.25 0q-0.578125 0 -0.828125 -0.21875q-0.25 -0.21875 -0.25 -0.578125q0 -0.359375 0.25 -0.578125q0.25 -0.234375 0.828125 -0.234375l3.6875 0.015625q1.625 0 2.5625 0.890625q0.953125 0.875 0.953125 2.15625q0 0.703125 -0.3125 1.328125q-0.25 0.46875 -0.8125 0.921875q-0.5625 0.453125 -1.15625 0.6875q-0.59375 0.234375 -1.5625 0.234375l-1.515625 0zm0 -1.609375l1.484375 0q1.046875 0 1.65625 -0.46875q0.625 -0.46875 0.625 -1.140625q0 -0.5625 -0.5 -0.984375q-0.5 -0.421875 -1.421875 -0.421875l-1.84375 0l0 3.015625zm11.9765625 4.859375l0 -0.375q-0.609375 0.3125 -1.34375 0.46875q-0.71875 0.171875 -1.3125 0.171875q-1.28125 0 -2.09375 -0.6875q-0.796875 -0.6875 -0.796875 -1.515625q0 -1.0 1.015625 -1.859375q1.03125 -0.875 2.84375 -0.875q0.734375 0 1.6875 0.15625l0 -0.375q0 -0.359375 -0.3125 -0.578125q-0.3125 -0.234375 -1.171875 -0.234375q-0.71875 0 -1.84375 0.28125q-0.421875 0.09375 -0.65625 0.09375q-0.328125 0 -0.546875 -0.21875q-0.21875 -0.234375 -0.21875 -0.59375q0 -0.203125 0.078125 -0.34375q0.078125 -0.15625 0.21875 -0.25q0.140625 -0.09375 0.578125 -0.21875q0.59375 -0.15625 1.203125 -0.25q0.625 -0.109375 1.125 -0.109375q1.5 0 2.3125 0.65625q0.828125 0.640625 0.828125 1.75l0 3.296875l0.28125 0q0.578125 0 0.8125 0.234375q0.25 0.21875 0.25 0.578125q0 0.34375 -0.25 0.578125q-0.234375 0.21875 -0.8125 0.21875l-1.875 0zm0 -2.875q-0.96875 -0.1875 -1.78125 -0.1875q-0.96875 0 -1.671875 0.484375q-0.4375 0.296875 -0.4375 0.609375q0 0.234375 0.203125 0.375q0.390625 0.25 1.078125 0.25q0.578125 0 1.296875 -0.21875q0.734375 -0.234375 1.3125 -0.625l0 -0.6875zm7.7578125 -2.625l0 3.21875q0 0.515625 0.21875 0.671875q0.328125 0.265625 1.171875 0.265625q1.21875 0 2.265625 -0.53125q0.390625 -0.203125 0.625 -0.203125q0.3125 0 0.53125 0.234375q0.234375 0.234375 0.234375 0.578125q0 0.3125 -0.25 0.53125q-0.375 0.375 -1.515625 0.6875q-1.125 0.3125 -1.890625 0.3125q-1.5 0 -2.25 -0.640625q-0.734375 -0.65625 -0.734375 -1.59375l0 -3.53125l-0.578125 0q-0.578125 0 -0.828125 -0.21875q-0.25 -0.21875 -0.25 -0.578125q0 -0.359375 0.25 -0.578125q0.25 -0.21875 0.828125 -0.21875l0.578125 0l0 -1.453125q0 -0.578125 0.21875 -0.8125q0.21875 -0.25 0.578125 -0.25q0.359375 0 0.578125 0.25q0.21875 0.234375 0.21875 0.8125l0 1.453125l2.96875 0q0.578125 0 0.8125 0.21875q0.25 0.21875 0.25 0.578125q0 0.359375 -0.25 0.578125q-0.234375 0.21875 -0.8125 0.21875l-2.96875 0zm8.3515625 -4.640625l0 3.421875q0.5 -0.296875 1.0 -0.4375q0.515625 -0.15625 1.046875 -0.15625q0.828125 0 1.46875 0.28125q0.65625 0.28125 1.078125 0.890625q0.421875 0.609375 0.421875 1.53125l0 3.0q0.609375 0 0.796875 0.125q0.375 0.234375 0.375 0.6875q0 0.34375 -0.25 0.578125q-0.234375 0.21875 -0.8125 0.21875l-1.828125 0q-0.5625 0 -0.8125 -0.21875q-0.25 -0.234375 -0.25 -0.59375q0 -0.4375 0.375 -0.671875q0.203125 -0.125 0.796875 -0.125l0 -2.890625q0 -0.625 -0.28125 -0.875q-0.359375 -0.328125 -1.078125 -0.328125q-0.53125 0 -0.953125 0.203125q-0.40625 0.203125 -1.09375 0.890625l0 3.0q0.609375 0 0.796875 0.125q0.375 0.234375 0.375 0.6875q0 0.34375 -0.25 0.578125q-0.234375 0.21875 -0.8125 0.21875l-1.828125 0q-0.578125 0 -0.828125 -0.21875q-0.234375 -0.234375 -0.234375 -0.59375q0 -0.4375 0.375 -0.671875q0.1875 -0.125 0.796875 -0.125l0 -6.921875l-0.265625 0q-0.578125 0 -0.828125 -0.21875q-0.25 -0.234375 -0.25 -0.59375q0 -0.34375 0.25 -0.5625q0.25 -0.234375 0.828125 -0.234375l1.875 0z" fill-rule="nonzero"></path><path fill="#ffffff" d="m16.0 400.0l187.43306 0l0 80.53543l-187.43306 0z" fill-rule="nonzero"></path><path stroke="#000000" stroke-width="1.0" stroke-linejoin="round" stroke-linecap="butt" d="m16.0 400.0l187.43306 0l0 80.53543l-187.43306 0z" fill-rule="nonzero"></path><path fill="#000000" d="m70.3845 442.87772l0 1.640625l1.625 0q0.578125 0 0.8125 0.234375q0.25 0.21875 0.25 0.578125q0 0.34375 -0.25 0.578125q-0.234375 0.21875 -0.8125 0.21875l-3.46875 0q-0.578125 0 -0.828125 -0.21875q-0.25 -0.234375 -0.25 -0.59375q0 -0.34375 0.25 -0.5625q0.25 -0.234375 0.828125 -0.234375l0.25 0l0 -6.265625l-0.25 0q-0.578125 0 -0.828125 -0.21875q-0.25 -0.21875 -0.25 -0.578125q0 -0.359375 0.25 -0.578125q0.25 -0.234375 0.828125 -0.234375l3.6875 0.015625q1.625 0 2.5625 0.890625q0.953125 0.875 0.953125 2.15625q0 0.703125 -0.3125 1.328125q-0.25 0.46875 -0.8125 0.921875q-0.5625 0.453125 -1.15625 0.6875q-0.59375 0.234375 -1.5625 0.234375l-1.515625 0zm0 -1.609375l1.484375 0q1.046875 0 1.65625 -0.46875q0.625 -0.46875 0.625 -1.140625q0 -0.5625 -0.5 -0.984375q-0.5 -0.421875 -1.421875 -0.421875l-1.84375 0l0 3.015625zm14.6953125 1.4375q0 0.921875 -0.515625 1.796875q-0.515625 0.859375 -1.53125 1.375q-1.0 0.515625 -2.109375 0.515625q-1.09375 0 -2.09375 -0.5q-1.0 -0.515625 -1.53125 -1.375q-0.515625 -0.875 -0.515625 -1.828125q0 -0.953125 0.53125 -1.875q0.53125 -0.9375 1.53125 -1.46875q1.0 -0.53125 2.078125 -0.53125q1.09375 0 2.109375 0.546875q1.015625 0.546875 1.53125 1.46875q0.515625 0.90625 0.515625 1.875zm-1.609375 0.015625q0 -0.78125 -0.546875 -1.421875q-0.765625 -0.875 -2.0 -0.875q-1.078125 0 -1.8125 0.703125q-0.71875 0.6875 -0.71875 1.59375q0 0.75 0.734375 1.40625q0.734375 0.65625 1.796875 0.65625q1.078125 0 1.8125 -0.65625q0.734375 -0.65625 0.734375 -1.40625zm8.7734375 -1.8125q-0.390625 -0.25 -0.828125 -0.359375q-0.421875 -0.125 -0.890625 -0.125q-0.921875 0 -1.46875 0.296875q-0.25 0.140625 -0.25 0.296875q0 0.171875 0.328125 0.34375q0.25 0.125 1.125 0.25q1.59375 0.21875 2.21875 0.4375q0.8125 0.28125 1.25 0.859375q0.453125 0.5625 0.453125 1.203125q0 0.859375 -0.75 1.4375q-1.09375 0.84375 -2.828125 0.84375q-0.6875 0 -1.28125 -0.125q-0.59375 -0.125 -1.078125 -0.359375q-0.125 0.09375 -0.265625 0.15625q-0.125 0.046875 -0.265625 0.046875q-0.375 0 -0.59375 -0.234375q-0.21875 -0.25 -0.21875 -0.828125l0 -0.546875q0 -0.578125 0.21875 -0.8125q0.21875 -0.25 0.578125 -0.25q0.296875 0 0.484375 0.15625q0.203125 0.15625 0.3125 0.546875q0.359375 0.3125 0.875 0.484375q0.515625 0.15625 1.1875 0.15625q1.109375 0 1.71875 -0.34375q0.28125 -0.171875 0.28125 -0.359375q0 -0.3125 -0.40625 -0.515625q-0.421875 -0.203125 -1.71875 -0.34375q-1.921875 -0.203125 -2.578125 -0.78125q-0.640625 -0.578125 -0.640625 -1.40625q0 -0.859375 0.71875 -1.4375q0.984375 -0.78125 2.578125 -0.78125q0.5625 0 1.0625 0.109375q0.515625 0.109375 0.984375 0.328125q0.15625 -0.109375 0.28125 -0.15625q0.125 -0.0625 0.234375 -0.0625q0.328125 0 0.546875 0.25q0.21875 0.234375 0.21875 0.8125l0 0.390625q0 0.53125 -0.125 0.71875q-0.25 0.359375 -0.671875 0.359375q-0.296875 0 -0.515625 -0.171875q-0.21875 -0.1875 -0.28125 -0.484375zm8.4453125 -4.921875l0 1.703125l-1.90625 0l0 -1.703125l1.90625 0zm0.21875 3.046875l0 5.484375l1.921875 0q0.578125 0 0.828125 0.234375q0.25 0.21875 0.25 0.578125q0 0.34375 -0.25 0.578125q-0.25 0.21875 -0.828125 0.21875l-5.4375 0q-0.578125 0 -0.828125 -0.21875q-0.25 -0.234375 -0.25 -0.59375q0 -0.34375 0.25 -0.5625q0.25 -0.234375 0.828125 -0.234375l1.921875 0l0 -3.890625l-1.296875 0q-0.5625 0 -0.8125 -0.21875q-0.25 -0.21875 -0.25 -0.578125q0 -0.359375 0.234375 -0.578125q0.25 -0.21875 0.828125 -0.21875l2.890625 0zm10.0078125 3.40625l2.4375 2.078125q0.4375 0.03125 0.65625 0.25q0.21875 0.21875 0.21875 0.5625q0 0.34375 -0.25 0.578125q-0.25 0.21875 -0.828125 0.21875l-1.8125 0q-0.578125 0 -0.828125 -0.21875q-0.25 -0.234375 -0.25 -0.59375q0 -0.28125 0.171875 -0.5q0.1875 -0.21875 0.484375 -0.296875l-1.1875 -1.03125l-1.21875 1.03125q0.359375 0.09375 0.515625 0.296875q0.171875 0.1875 0.171875 0.5q0 0.359375 -0.25 0.59375q-0.234375 0.21875 -0.8125 0.21875l-1.8125 0q-0.578125 0 -0.828125 -0.21875q-0.234375 -0.234375 -0.234375 -0.59375q0 -0.328125 0.21875 -0.546875q0.21875 -0.21875 0.65625 -0.25l2.375 -2.09375l-2.109375 -1.796875q-0.40625 -0.03125 -0.625 -0.25q-0.21875 -0.21875 -0.21875 -0.546875q0 -0.359375 0.25 -0.578125q0.25 -0.21875 0.828125 -0.21875l1.5 0q0.578125 0 0.8125 0.21875q0.25 0.21875 0.25 0.5625q0 0.46875 -0.4375 0.75l0.96875 0.8125l0.953125 -0.828125q-0.421875 -0.296875 -0.421875 -0.703125q0 -0.375 0.234375 -0.59375q0.25 -0.21875 0.828125 -0.21875l1.484375 0q0.578125 0 0.828125 0.21875q0.25 0.21875 0.25 0.578125q0 0.328125 -0.21875 0.546875q-0.21875 0.21875 -0.640625 0.25l-2.109375 1.8125zm7.4765625 0.4375l0 1.640625l1.625 0q0.578125 0 0.8125 0.234375q0.25 0.21875 0.25 0.578125q0 0.34375 -0.25 0.578125q-0.234375 0.21875 -0.8125 0.21875l-3.46875 0q-0.578125 0 -0.828125 -0.21875q-0.25 -0.234375 -0.25 -0.59375q0 -0.34375 0.25 -0.5625q0.25 -0.234375 0.828125 -0.234375l0.25 0l0 -6.265625l-0.25 0q-0.578125 0 -0.828125 -0.21875q-0.25 -0.21875 -0.25 -0.578125q0 -0.359375 0.25 -0.578125q0.25 -0.234375 0.828125 -0.234375l3.6875 0.015625q1.625 0 2.5625 0.890625q0.953125 0.875 0.953125 2.15625q0 0.703125 -0.3125 1.328125q-0.25 0.46875 -0.8125 0.921875q-0.5625 0.453125 -1.15625 0.6875q-0.59375 0.234375 -1.5625 0.234375l-1.515625 0zm0 -1.609375l1.484375 0q1.046875 0 1.65625 -0.46875q0.625 -0.46875 0.625 -1.140625q0 -0.5625 -0.5 -0.984375q-0.5 -0.421875 -1.421875 -0.421875l-1.84375 0l0 3.015625zm11.976555 4.859375l0 -0.375q-0.609375 0.3125 -1.34375 0.46875q-0.71875 0.171875 -1.3124924 0.171875q-1.28125 0 -2.09375 -0.6875q-0.796875 -0.6875 -0.796875 -1.515625q0 -1.0 1.015625 -1.859375q1.03125 -0.875 2.8437424 -0.875q0.734375 0 1.6875 0.15625l0 -0.375q0 -0.359375 -0.3125 -0.578125q-0.3125 -0.234375 -1.171875 -0.234375q-0.71875 0 -1.8437424 0.28125q-0.421875 0.09375 -0.65625 0.09375q-0.328125 0 -0.546875 -0.21875q-0.21875 -0.234375 -0.21875 -0.59375q0 -0.203125 0.078125 -0.34375q0.078125 -0.15625 0.21875 -0.25q0.140625 -0.09375 0.578125 -0.21875q0.59375 -0.15625 1.203125 -0.25q0.6249924 -0.109375 1.1249924 -0.109375q1.5 0 2.3125 0.65625q0.828125 0.640625 0.828125 1.75l0 3.296875l0.28125 0q0.578125 0 0.8125 0.234375q0.25 0.21875 0.25 0.578125q0 0.34375 -0.25 0.578125q-0.234375 0.21875 -0.8125 0.21875l-1.875 0zm0 -2.875q-0.96875 -0.1875 -1.78125 -0.1875q-0.9687424 0 -1.6718674 0.484375q-0.4375 0.296875 -0.4375 0.609375q0 0.234375 0.203125 0.375q0.390625 0.25 1.078125 0.25q0.5781174 0 1.2968674 -0.21875q0.734375 -0.234375 1.3125 -0.625l0 -0.6875zm7.7578125 -2.625l0 3.21875q0 0.515625 0.21875 0.671875q0.328125 0.265625 1.171875 0.265625q1.21875 0 2.265625 -0.53125q0.390625 -0.203125 0.625 -0.203125q0.3125 0 0.53125 0.234375q0.234375 0.234375 0.234375 0.578125q0 0.3125 -0.25 0.53125q-0.375 0.375 -1.515625 0.6875q-1.125 0.3125 -1.890625 0.3125q-1.5 0 -2.25 -0.640625q-0.734375 -0.65625 -0.734375 -1.59375l0 -3.53125l-0.578125 0q-0.578125 0 -0.828125 -0.21875q-0.25 -0.21875 -0.25 -0.578125q0 -0.359375 0.25 -0.578125q0.25 -0.21875 0.828125 -0.21875l0.578125 0l0 -1.453125q0 -0.578125 0.21875 -0.8125q0.21875 -0.25 0.578125 -0.25q0.359375 0 0.578125 0.25q0.21875 0.234375 0.21875 0.8125l0 1.453125l2.96875 0q0.578125 0 0.8125 0.21875q0.25 0.21875 0.25 0.578125q0 0.359375 -0.25 0.578125q-0.234375 0.21875 -0.8125 0.21875l-2.96875 0zm8.3515625 -4.640625l0 3.421875q0.5 -0.296875 1.0 -0.4375q0.515625 -0.15625 1.046875 -0.15625q0.828125 0 1.46875 0.28125q0.65625 0.28125 1.078125 0.890625q0.421875 0.609375 0.421875 1.53125l0 3.0q0.609375 0 0.796875 0.125q0.375 0.234375 0.375 0.6875q0 0.34375 -0.25 0.578125q-0.234375 0.21875 -0.8125 0.21875l-1.828125 0q-0.5625 0 -0.8125 -0.21875q-0.25 -0.234375 -0.25 -0.59375q0 -0.4375 0.375 -0.671875q0.203125 -0.125 0.796875 -0.125l0 -2.890625q0 -0.625 -0.28125 -0.875q-0.359375 -0.328125 -1.078125 -0.328125q-0.53125 0 -0.953125 0.203125q-0.40625 0.203125 -1.09375 0.890625l0 3.0q0.609375 0 0.796875 0.125q0.375 0.234375 0.375 0.6875q0 0.34375 -0.25 0.578125q-0.234375 0.21875 -0.8125 0.21875l-1.828125 0q-0.578125 0 -0.828125 -0.21875q-0.234375 -0.234375 -0.234375 -0.59375q0 -0.4375 0.375 -0.671875q0.1875 -0.125 0.796875 -0.125l0 -6.921875l-0.265625 0q-0.578125 0 -0.828125 -0.21875q-0.25 -0.234375 -0.25 -0.59375q0 -0.34375 0.25 -0.5625q0.25 -0.234375 0.828125 -0.234375l1.875 0z" fill-rule="nonzero"></path><path fill="#ffffff" d="m336.0 400.0l187.43304 0l0 80.53543l-187.43304 0z" fill-rule="nonzero"></path><path stroke="#000000" stroke-width="1.0" stroke-linejoin="round" stroke-linecap="butt" d="m336.0 400.0l187.43304 0l0 80.53543l-187.43304 0z" fill-rule="nonzero"></path><path fill="#000000" d="m381.72043 441.58084l-1.484375 4.546875l-1.796875 0l-0.953125 -7.875q-0.375 -0.046875 -0.5625 -0.25q-0.1875 -0.203125 -0.1875 -0.53125q0 -0.375 0.25 -0.59375q0.25 -0.234375 0.828125 -0.234375l2.125 0.015625q0.578125 0 0.828125 0.21875q0.25 0.21875 0.25 0.578125q0 0.359375 -0.25 0.578125q-0.25 0.21875 -0.828125 0.21875l-0.828125 0l0.53125 4.484375l1.25 -3.734375l1.671875 0l1.25 3.734375l0.53125 -4.484375l-0.84375 0q-0.578125 0 -0.828125 -0.21875q-0.234375 -0.21875 -0.234375 -0.578125q0 -0.359375 0.234375 -0.578125q0.25 -0.234375 0.828125 -0.234375l2.125 0.015625q0.578125 0 0.828125 0.21875q0.25 0.21875 0.25 0.578125q0 0.296875 -0.203125 0.515625q-0.1875 0.21875 -0.5625 0.28125l-0.921875 7.875l-1.765625 0l-1.53125 -4.546875zm10.1640625 -5.59375l0 1.703125l-1.90625 0l0 -1.703125l1.90625 0zm0.21875 3.046875l0 5.484375l1.921875 0q0.578125 0 0.828125 0.234375q0.25 0.21875 0.25 0.578125q0 0.34375 -0.25 0.578125q-0.25 0.21875 -0.828125 0.21875l-5.4375 0q-0.578125 0 -0.828125 -0.21875q-0.25 -0.234375 -0.25 -0.59375q0 -0.34375 0.25 -0.5625q0.25 -0.234375 0.828125 -0.234375l1.921875 0l0 -3.890625l-1.296875 0q-0.5625 0 -0.8125 -0.21875q-0.25 -0.21875 -0.25 -0.578125q0 -0.359375 0.234375 -0.578125q0.25 -0.21875 0.828125 -0.21875l2.890625 0zm7.1953125 0l0 0.53125q0.4375 -0.375 0.953125 -0.5625q0.53125 -0.1875 1.15625 -0.1875q1.421875 0 2.25 0.890625q0.65625 0.703125 0.65625 1.84375l0 2.96875q0.5 0 0.734375 0.234375q0.25 0.21875 0.25 0.578125q0 0.34375 -0.25 0.578125q-0.234375 0.21875 -0.8125 0.21875l-1.453125 0q-0.578125 0 -0.828125 -0.21875q-0.234375 -0.234375 -0.234375 -0.59375q0 -0.34375 0.234375 -0.5625q0.25 -0.234375 0.75 -0.234375l0 -3.015625q0 -0.53125 -0.28125 -0.765625q-0.359375 -0.3125 -1.09375 -0.3125q-0.5625 0 -0.984375 0.21875q-0.40625 0.203125 -1.046875 0.90625l0 2.96875q0.609375 0 0.796875 0.125q0.375 0.234375 0.375 0.6875q0 0.34375 -0.25 0.578125q-0.234375 0.21875 -0.8125 0.21875l-1.828125 0q-0.578125 0 -0.828125 -0.21875q-0.234375 -0.234375 -0.234375 -0.59375q0 -0.4375 0.375 -0.671875q0.1875 -0.125 0.796875 -0.125l0 -3.890625q-0.5 0 -0.75 -0.21875q-0.234375 -0.234375 -0.234375 -0.578125q0 -0.359375 0.234375 -0.578125q0.25 -0.21875 0.828125 -0.21875l1.53125 0zm14.8984375 -3.046875l0 8.53125l0.265625 0q0.578125 0 0.828125 0.234375q0.25 0.21875 0.25 0.578125q0 0.34375 -0.25 0.578125q-0.25 0.21875 -0.828125 0.21875l-1.875 0l0 -0.390625q-0.546875 0.3125 -1.140625 0.484375q-0.59375 0.171875 -1.234375 0.171875q-1.8125 0 -2.921875 -1.046875q-1.09375 -1.046875 -1.09375 -2.609375q0 -1.625 1.15625 -2.765625q1.15625 -1.15625 2.828125 -1.15625q0.625 0 1.21875 0.203125q0.609375 0.1875 1.1875 0.5625l0 -1.984375l-0.265625 0q-0.578125 0 -0.828125 -0.21875q-0.25 -0.234375 -0.25 -0.578125q0 -0.359375 0.25 -0.578125q0.25 -0.234375 0.828125 -0.234375l1.875 0zm-1.609375 6.796875q0 -0.984375 -0.703125 -1.671875q-0.6875 -0.6875 -1.6875 -0.6875q-1.0 0 -1.703125 0.6875q-0.6875 0.6875 -0.6875 1.65625q0 0.875 0.625 1.453125q0.625 0.5625 1.765625 0.5625q1.125 0 1.75 -0.5625q0.640625 -0.578125 0.640625 -1.4375zm11.6953125 -0.078125q0 0.921875 -0.515625 1.796875q-0.515625 0.859375 -1.53125 1.375q-1.0 0.515625 -2.109375 0.515625q-1.09375 0 -2.09375 -0.5q-1.0 -0.515625 -1.53125 -1.375q-0.515625 -0.875 -0.515625 -1.828125q0 -0.953125 0.53125 -1.875q0.53125 -0.9375 1.53125 -1.46875q1.0 -0.53125 2.078125 -0.53125q1.09375 0 2.109375 0.546875q1.015625 0.546875 1.53125 1.46875q0.515625 0.90625 0.515625 1.875zm-1.609375 0.015625q0 -0.78125 -0.546875 -1.421875q-0.765625 -0.875 -2.0 -0.875q-1.078125 0 -1.8125 0.703125q-0.71875 0.6875 -0.71875 1.59375q0 0.75 0.734375 1.40625q0.734375 0.65625 1.796875 0.65625q1.078125 0 1.8125 -0.65625q0.734375 -0.65625 0.734375 -1.40625zm7.0546875 0.453125l-1.109375 2.953125l-1.5 0l-1.34375 -5.5q-0.4375 -0.015625 -0.671875 -0.234375q-0.21875 -0.234375 -0.21875 -0.5625q0 -0.359375 0.25 -0.578125q0.25 -0.21875 0.828125 -0.21875l1.484375 0q0.578125 0 0.828125 0.21875q0.25 0.21875 0.25 0.578125q0 0.359375 -0.28125 0.609375q-0.21875 0.1875 -0.828125 0.1875l0.609375 2.546875l0.984375 -2.609375l1.421875 0l1.0 2.609375l0.625 -2.546875q-0.59375 0 -0.78125 -0.109375q-0.375 -0.25 -0.375 -0.6875q0 -0.359375 0.25 -0.578125q0.25 -0.21875 0.828125 -0.21875l1.5 0q0.578125 0 0.828125 0.21875q0.25 0.21875 0.25 0.578125q0 0.328125 -0.21875 0.546875q-0.21875 0.21875 -0.640625 0.25l-1.3125 5.5l-1.484375 0l-1.171875 -2.953125zm11.3203125 -2.265625q-0.390625 -0.25 -0.828125 -0.359375q-0.421875 -0.125 -0.890625 -0.125q-0.921875 0 -1.46875 0.296875q-0.25 0.140625 -0.25 0.296875q0 0.171875 0.328125 0.34375q0.25 0.125 1.125 0.25q1.59375 0.21875 2.21875 0.4375q0.8125 0.28125 1.25 0.859375q0.453125 0.5625 0.453125 1.203125q0 0.859375 -0.75 1.4375q-1.09375 0.84375 -2.828125 0.84375q-0.6875 0 -1.28125 -0.125q-0.59375 -0.125 -1.078125 -0.359375q-0.125 0.09375 -0.265625 0.15625q-0.125 0.046875 -0.265625 0.046875q-0.375 0 -0.59375 -0.234375q-0.21875 -0.25 -0.21875 -0.828125l0 -0.546875q0 -0.578125 0.21875 -0.8125q0.21875 -0.25 0.578125 -0.25q0.296875 0 0.484375 0.15625q0.203125 0.15625 0.3125 0.546875q0.359375 0.3125 0.875 0.484375q0.515625 0.15625 1.1875 0.15625q1.109375 0 1.71875 -0.34375q0.28125 -0.171875 0.28125 -0.359375q0 -0.3125 -0.40625 -0.515625q-0.421875 -0.203125 -1.71875 -0.34375q-1.921875 -0.203125 -2.578125 -0.78125q-0.640625 -0.578125 -0.640625 -1.40625q0 -0.859375 0.71875 -1.4375q0.984375 -0.78125 2.578125 -0.78125q0.5625 0 1.0625 0.109375q0.515625 0.109375 0.984375 0.328125q0.15625 -0.109375 0.28125 -0.15625q0.125 -0.0625 0.234375 -0.0625q0.328125 0 0.546875 0.25q0.21875 0.234375 0.21875 0.8125l0 0.390625q0 0.53125 -0.125 0.71875q-0.25 0.359375 -0.671875 0.359375q-0.296875 0 -0.515625 -0.171875q-0.21875 -0.1875 -0.28125 -0.484375zm6.9453125 1.96875l0 1.640625l1.625 0q0.578125 0 0.8125 0.234375q0.25 0.21875 0.25 0.578125q0 0.34375 -0.25 0.578125q-0.234375 0.21875 -0.8125 0.21875l-3.46875 0q-0.578125 0 -0.828125 -0.21875q-0.25 -0.234375 -0.25 -0.59375q0 -0.34375 0.25 -0.5625q0.25 -0.234375 0.828125 -0.234375l0.25 0l0 -6.265625l-0.25 0q-0.578125 0 -0.828125 -0.21875q-0.25 -0.21875 -0.25 -0.578125q0 -0.359375 0.25 -0.578125q0.25 -0.234375 0.828125 -0.234375l3.6875 0.015625q1.625 0 2.5625 0.890625q0.953125 0.875 0.953125 2.15625q0 0.703125 -0.3125 1.328125q-0.25 0.46875 -0.8125 0.921875q-0.5625 0.453125 -1.15625 0.6875q-0.59375 0.234375 -1.5625 0.234375l-1.515625 0zm0 -1.609375l1.484375 0q1.046875 0 1.65625 -0.46875q0.625 -0.46875 0.625 -1.140625q0 -0.5625 -0.5 -0.984375q-0.5 -0.421875 -1.421875 -0.421875l-1.84375 0l0 3.015625zm11.9765625 4.859375l0 -0.375q-0.609375 0.3125 -1.34375 0.46875q-0.71875 0.171875 -1.3125 0.171875q-1.28125 0 -2.09375 -0.6875q-0.796875 -0.6875 -0.796875 -1.515625q0 -1.0 1.015625 -1.859375q1.03125 -0.875 2.84375 -0.875q0.734375 0 1.6875 0.15625l0 -0.375q0 -0.359375 -0.3125 -0.578125q-0.3125 -0.234375 -1.171875 -0.234375q-0.71875 0 -1.84375 0.28125q-0.421875 0.09375 -0.65625 0.09375q-0.328125 0 -0.546875 -0.21875q-0.21875 -0.234375 -0.21875 -0.59375q0 -0.203125 0.078125 -0.34375q0.078125 -0.15625 0.21875 -0.25q0.140625 -0.09375 0.578125 -0.21875q0.59375 -0.15625 1.203125 -0.25q0.625 -0.109375 1.125 -0.109375q1.5 0 2.3125 0.65625q0.828125 0.640625 0.828125 1.75l0 3.296875l0.28125 0q0.578125 0 0.8125 0.234375q0.25 0.21875 0.25 0.578125q0 0.34375 -0.25 0.578125q-0.234375 0.21875 -0.8125 0.21875l-1.875 0zm0 -2.875q-0.96875 -0.1875 -1.78125 -0.1875q-0.96875 0 -1.671875 0.484375q-0.4375 0.296875 -0.4375 0.609375q0 0.234375 0.203125 0.375q0.390625 0.25 1.078125 0.25q0.578125 0 1.296875 -0.21875q0.734375 -0.234375 1.3125 -0.625l0 -0.6875zm7.7578125 -2.625l0 3.21875q0 0.515625 0.21875 0.671875q0.328125 0.265625 1.171875 0.265625q1.21875 0 2.265625 -0.53125q0.390625 -0.203125 0.625 -0.203125q0.3125 0 0.53125 0.234375q0.234375 0.234375 0.234375 0.578125q0 0.3125 -0.25 0.53125q-0.375 0.375 -1.515625 0.6875q-1.125 0.3125 -1.890625 0.3125q-1.5 0 -2.25 -0.640625q-0.734375 -0.65625 -0.734375 -1.59375l0 -3.53125l-0.578125 0q-0.578125 0 -0.828125 -0.21875q-0.25 -0.21875 -0.25 -0.578125q0 -0.359375 0.25 -0.578125q0.25 -0.21875 0.828125 -0.21875l0.578125 0l0 -1.453125q0 -0.578125 0.21875 -0.8125q0.21875 -0.25 0.578125 -0.25q0.359375 0 0.578125 0.25q0.21875 0.234375 0.21875 0.8125l0 1.453125l2.96875 0q0.578125 0 0.8125 0.21875q0.25 0.21875 0.25 0.578125q0 0.359375 -0.25 0.578125q-0.234375 0.21875 -0.8125 0.21875l-2.96875 0zm8.3515625 -4.640625l0 3.421875q0.5 -0.296875 1.0 -0.4375q0.515625 -0.15625 1.046875 -0.15625q0.828125 0 1.46875 0.28125q0.65625 0.28125 1.078125 0.890625q0.421875 0.609375 0.421875 1.53125l0 3.0q0.609375 0 0.796875 0.125q0.375 0.234375 0.375 0.6875q0 0.34375 -0.25 0.578125q-0.234375 0.21875 -0.8125 0.21875l-1.828125 0q-0.5625 0 -0.8125 -0.21875q-0.25 -0.234375 -0.25 -0.59375q0 -0.4375 0.375 -0.671875q0.203125 -0.125 0.796875 -0.125l0 -2.890625q0 -0.625 -0.28125 -0.875q-0.359375 -0.328125 -1.078125 -0.328125q-0.53125 0 -0.953125 0.203125q-0.40625 0.203125 -1.09375 0.890625l0 3.0q0.609375 0 0.796875 0.125q0.375 0.234375 0.375 0.6875q0 0.34375 -0.25 0.578125q-0.234375 0.21875 -0.8125 0.21875l-1.828125 0q-0.578125 0 -0.828125 -0.21875q-0.234375 -0.234375 -0.234375 -0.59375q0 -0.4375 0.375 -0.671875q0.1875 -0.125 0.796875 -0.125l0 -6.921875l-0.265625 0q-0.578125 0 -0.828125 -0.21875q-0.25 -0.234375 -0.25 -0.59375q0 -0.34375 0.25 -0.5625q0.25 -0.234375 0.828125 -0.234375l1.875 0z" fill-rule="nonzero"></path><path fill="#000000" fill-opacity="0.0" d="m96.0 144.0l0 -80.0l80.0 0" fill-rule="nonzero"></path><path stroke="#000000" stroke-width="2.0" stroke-linejoin="round" stroke-linecap="butt" d="m96.0 144.0l0 -80.0l68.0 0" fill-rule="evenodd"></path><path stroke="#000000" stroke-width="2.0" stroke-linecap="butt" d="m164.0 67.30347l9.076202 -3.3034668l-9.076202 -3.303463z" fill-rule="evenodd"></path><path fill="#000000" fill-opacity="0.0" d="m431.5013 143.08398l0 -78.99999l-68.0 0" fill-rule="nonzero"></path><path stroke="#000000" stroke-width="2.0" stroke-linejoin="round" stroke-linecap="butt" d="m431.5013 143.08398l0 -78.99999l-56.0 0" fill-rule="evenodd"></path><path stroke="#000000" stroke-width="2.0" stroke-linecap="butt" d="m375.5013 60.780525l-9.076202 3.3034668l9.076202 3.3034592z" fill-rule="evenodd"></path><path fill="#000000" fill-opacity="0.0" d="m269.71652 104.53543l0 166.92914" fill-rule="nonzero"></path><path stroke="#000000" stroke-width="2.0" stroke-linejoin="round" stroke-linecap="butt" d="m269.71652 116.53543l0 154.92914" fill-rule="evenodd"></path><path stroke="#000000" stroke-width="2.0" stroke-linecap="butt" d="m273.02 116.53543l-3.3034668 -9.076195l-3.3034668 9.076195z" fill-rule="evenodd"></path><path fill="#000000" fill-opacity="0.0" d="m65.0 223.08398l-1.0078735 176.91339" fill-rule="nonzero"></path><path stroke="#000000" stroke-width="2.0" stroke-linejoin="round" stroke-linecap="butt" d="m64.93163 235.08379l-0.93950653 164.91359" fill-rule="evenodd"></path><path stroke="#000000" stroke-width="2.0" stroke-linecap="butt" d="m68.23505 235.10262l-3.2517014 -9.094864l-3.3551178 9.05722z" fill-rule="evenodd"></path><path fill="#000000" fill-opacity="0.0" d="m471.0 224.38058l-1.0078735 176.91336" fill-rule="nonzero"></path><path stroke="#000000" stroke-width="2.0" stroke-linejoin="round" stroke-linecap="butt" d="m470.93164 236.38037l-0.93951416 164.9136" fill-rule="evenodd"></path><path stroke="#000000" stroke-width="2.0" stroke-linecap="butt" d="m474.23505 236.3992l-3.251709 -9.094864l-3.3551025 9.05722z" fill-rule="evenodd"></path><path fill="#000000" fill-opacity="0.0" d="m128.50131 400.00266l0 -86.168l47.496002 0" fill-rule="nonzero"></path><path stroke="#000000" stroke-width="2.0" stroke-linejoin="round" stroke-linecap="butt" d="m128.50131 400.00266l0 -86.168l35.496002 0" fill-rule="evenodd"></path><path stroke="#000000" stroke-width="2.0" stroke-linecap="butt" d="m163.99731 317.13812l9.076202 -3.3034668l-9.076202 -3.3034668z" fill-rule="evenodd"></path><path fill="#000000" fill-opacity="0.0" d="m414.71902 400.00266l0 -86.168l-51.216003 0" fill-rule="nonzero"></path><path stroke="#000000" stroke-width="2.0" stroke-linejoin="round" stroke-linecap="butt" d="m414.71902 400.00266l0 -86.168l-39.216003 0" fill-rule="evenodd"></path><path stroke="#000000" stroke-width="2.0" stroke-linecap="butt" d="m375.50302 310.5312l-9.076172 3.3034668l9.076172 3.3034668z" fill-rule="evenodd"></path></g></svg>

